<svg width="72" height="64" viewBox="0 0 72 64" fill="none" xmlns="http://www.w3.org/2000/svg">
<path d="M36 0.25C45.9107 0.25 54.8706 2.25952 61.3438 5.49609C67.8319 8.74016 71.75 13.1751 71.75 18C71.75 22.8249 67.8319 27.2598 61.3438 30.5039C54.8706 33.7405 45.9107 35.75 36 35.75C26.0893 35.75 17.1294 33.7405 10.6562 30.5039C4.16811 27.2598 0.25 22.8249 0.25 18C0.25 13.1751 4.16811 8.74016 10.6562 5.49609C17.1294 2.25952 26.0893 0.25 36 0.25Z" stroke="url(#paint0_linear_500_6811)" stroke-width="0.5"/>
<path d="M36 2.25C45.9107 2.25 54.8706 4.25952 61.3438 7.49609C67.8319 10.7402 71.75 15.1751 71.75 20C71.75 24.8249 67.8319 29.2598 61.3438 32.5039C54.8706 35.7405 45.9107 37.75 36 37.75C26.0893 37.75 17.1294 35.7405 10.6562 32.5039C4.16811 29.2598 0.25 24.8249 0.25 20C0.25 15.1751 4.16811 10.7402 10.6562 7.49609C17.1294 4.25952 26.0893 2.25 36 2.25Z" stroke="url(#paint1_linear_500_6811)" stroke-width="0.5"/>
<path d="M36 4.25C45.9107 4.25 54.8706 6.25952 61.3438 9.49609C67.8319 12.7402 71.75 17.1751 71.75 22C71.75 26.8249 67.8319 31.2598 61.3438 34.5039C54.8706 37.7405 45.9107 39.75 36 39.75C26.0893 39.75 17.1294 37.7405 10.6562 34.5039C4.16811 31.2598 0.25 26.8249 0.25 22C0.25 17.1751 4.16811 12.7402 10.6562 9.49609C17.1294 6.25952 26.0893 4.25 36 4.25Z" stroke="url(#paint2_linear_500_6811)" stroke-width="0.5"/>
<path d="M36 6.25C45.9107 6.25 54.8706 8.25952 61.3438 11.4961C67.8319 14.7402 71.75 19.1751 71.75 24C71.75 28.8249 67.8319 33.2598 61.3438 36.5039C54.8706 39.7405 45.9107 41.75 36 41.75C26.0893 41.75 17.1294 39.7405 10.6562 36.5039C4.16811 33.2598 0.25 28.8249 0.25 24C0.25 19.1751 4.16811 14.7402 10.6562 11.4961C17.1294 8.25952 26.0893 6.25 36 6.25Z" stroke="url(#paint3_linear_500_6811)" stroke-width="0.5"/>
<path d="M36 8.25C45.9107 8.25 54.8706 10.2595 61.3438 13.4961C67.8319 16.7402 71.75 21.1751 71.75 26C71.75 30.8249 67.8319 35.2598 61.3438 38.5039C54.8706 41.7405 45.9107 43.75 36 43.75C26.0893 43.75 17.1294 41.7405 10.6562 38.5039C4.16811 35.2598 0.25 30.8249 0.25 26C0.25 21.1751 4.16811 16.7402 10.6562 13.4961C17.1294 10.2595 26.0893 8.25 36 8.25Z" stroke="url(#paint4_linear_500_6811)" stroke-width="0.5"/>
<path d="M36 10.25C45.9107 10.25 54.8706 12.2595 61.3438 15.4961C67.8319 18.7402 71.75 23.1751 71.75 28C71.75 32.8249 67.8319 37.2598 61.3438 40.5039C54.8706 43.7405 45.9107 45.75 36 45.75C26.0893 45.75 17.1294 43.7405 10.6562 40.5039C4.16811 37.2598 0.25 32.8249 0.25 28C0.25 23.1751 4.16811 18.7402 10.6562 15.4961C17.1294 12.2595 26.0893 10.25 36 10.25Z" stroke="url(#paint5_linear_500_6811)" stroke-width="0.5"/>
<path d="M36 12.25C45.9107 12.25 54.8706 14.2595 61.3438 17.4961C67.8319 20.7402 71.75 25.1751 71.75 30C71.75 34.8249 67.8319 39.2598 61.3438 42.5039C54.8706 45.7405 45.9107 47.75 36 47.75C26.0893 47.75 17.1294 45.7405 10.6562 42.5039C4.16811 39.2598 0.25 34.8249 0.25 30C0.25 25.1751 4.16811 20.7402 10.6562 17.4961C17.1294 14.2595 26.0893 12.25 36 12.25Z" stroke="url(#paint6_linear_500_6811)" stroke-width="0.5"/>
<path d="M36 14.25C45.9107 14.25 54.8706 16.2595 61.3438 19.4961C67.8319 22.7402 71.75 27.1751 71.75 32C71.75 36.8249 67.8319 41.2598 61.3438 44.5039C54.8706 47.7405 45.9107 49.75 36 49.75C26.0893 49.75 17.1294 47.7405 10.6562 44.5039C4.16811 41.2598 0.25 36.8249 0.25 32C0.25 27.1751 4.16811 22.7402 10.6562 19.4961C17.1294 16.2595 26.0893 14.25 36 14.25Z" stroke="url(#paint7_linear_500_6811)" stroke-width="0.5"/>
<path d="M36 16.25C45.9107 16.25 54.8706 18.2595 61.3438 21.4961C67.8319 24.7402 71.75 29.1751 71.75 34C71.75 38.8249 67.8319 43.2598 61.3438 46.5039C54.8706 49.7405 45.9107 51.75 36 51.75C26.0893 51.75 17.1294 49.7405 10.6562 46.5039C4.16811 43.2598 0.25 38.8249 0.25 34C0.25 29.1751 4.16811 24.7402 10.6562 21.4961C17.1294 18.2595 26.0893 16.25 36 16.25Z" stroke="url(#paint8_linear_500_6811)" stroke-width="0.5"/>
<path d="M36 18.25C45.9107 18.25 54.8706 20.2595 61.3438 23.4961C67.8319 26.7402 71.75 31.1751 71.75 36C71.75 40.8249 67.8319 45.2598 61.3438 48.5039C54.8706 51.7405 45.9107 53.75 36 53.75C26.0893 53.75 17.1294 51.7405 10.6562 48.5039C4.16811 45.2598 0.25 40.8249 0.25 36C0.25 31.1751 4.16811 26.7402 10.6562 23.4961C17.1294 20.2595 26.0893 18.25 36 18.25Z" stroke="url(#paint9_linear_500_6811)" stroke-width="0.5"/>
<path d="M36 20.25C45.9107 20.25 54.8706 22.2595 61.3438 25.4961C67.8319 28.7402 71.75 33.1751 71.75 38C71.75 42.8249 67.8319 47.2598 61.3438 50.5039C54.8706 53.7405 45.9107 55.75 36 55.75C26.0893 55.75 17.1294 53.7405 10.6562 50.5039C4.16811 47.2598 0.25 42.8249 0.25 38C0.25 33.1751 4.16811 28.7402 10.6562 25.4961C17.1294 22.2595 26.0893 20.25 36 20.25Z" stroke="url(#paint10_linear_500_6811)" stroke-width="0.5"/>
<path d="M36 22.25C45.9107 22.25 54.8706 24.2595 61.3438 27.4961C67.8319 30.7402 71.75 35.1751 71.75 40C71.75 44.8249 67.8319 49.2598 61.3438 52.5039C54.8706 55.7405 45.9107 57.75 36 57.75C26.0893 57.75 17.1294 55.7405 10.6562 52.5039C4.16811 49.2598 0.25 44.8249 0.25 40C0.25 35.1751 4.16811 30.7402 10.6562 27.4961C17.1294 24.2595 26.0893 22.25 36 22.25Z" stroke="url(#paint11_linear_500_6811)" stroke-width="0.5"/>
<path d="M36 24.25C45.9107 24.25 54.8706 26.2595 61.3438 29.4961C67.8319 32.7402 71.75 37.1751 71.75 42C71.75 46.8249 67.8319 51.2598 61.3438 54.5039C54.8706 57.7405 45.9107 59.75 36 59.75C26.0893 59.75 17.1294 57.7405 10.6562 54.5039C4.16811 51.2598 0.25 46.8249 0.25 42C0.25 37.1751 4.16811 32.7402 10.6562 29.4961C17.1294 26.2595 26.0893 24.25 36 24.25Z" stroke="url(#paint12_linear_500_6811)" stroke-width="0.5"/>
<path d="M36 26.25C45.9107 26.25 54.8706 28.2595 61.3438 31.4961C67.8319 34.7402 71.75 39.1751 71.75 44C71.75 48.8249 67.8319 53.2598 61.3438 56.5039C54.8706 59.7405 45.9107 61.75 36 61.75C26.0893 61.75 17.1294 59.7405 10.6562 56.5039C4.16811 53.2598 0.25 48.8249 0.25 44C0.25 39.1751 4.16811 34.7402 10.6562 31.4961C17.1294 28.2595 26.0893 26.25 36 26.25Z" stroke="url(#paint13_linear_500_6811)" stroke-width="0.5"/>
<path d="M36 28.25C45.9107 28.25 54.8706 30.2595 61.3438 33.4961C67.8319 36.7402 71.75 41.1751 71.75 46C71.75 50.8249 67.8319 55.2598 61.3438 58.5039C54.8706 61.7405 45.9107 63.75 36 63.75C26.0893 63.75 17.1294 61.7405 10.6562 58.5039C4.16811 55.2598 0.25 50.8249 0.25 46C0.25 41.1751 4.16811 36.7402 10.6562 33.4961C17.1294 30.2595 26.0893 28.25 36 28.25Z" stroke="url(#paint14_linear_500_6811)" stroke-width="0.5"/>
<defs>
<linearGradient id="paint0_linear_500_6811" x1="36" y1="0" x2="36" y2="36" gradientUnits="userSpaceOnUse">
<stop stop-color="white"/>
<stop offset="1" stop-color="#807D7D" stop-opacity="0.54"/>
</linearGradient>
<linearGradient id="paint1_linear_500_6811" x1="36" y1="2" x2="36" y2="38" gradientUnits="userSpaceOnUse">
<stop stop-color="white"/>
<stop offset="1" stop-color="#807D7D" stop-opacity="0.54"/>
</linearGradient>
<linearGradient id="paint2_linear_500_6811" x1="36" y1="4" x2="36" y2="40" gradientUnits="userSpaceOnUse">
<stop stop-color="white"/>
<stop offset="1" stop-color="#807D7D" stop-opacity="0.54"/>
</linearGradient>
<linearGradient id="paint3_linear_500_6811" x1="36" y1="6" x2="36" y2="42" gradientUnits="userSpaceOnUse">
<stop stop-color="white"/>
<stop offset="1" stop-color="#807D7D" stop-opacity="0.54"/>
</linearGradient>
<linearGradient id="paint4_linear_500_6811" x1="36" y1="8" x2="36" y2="44" gradientUnits="userSpaceOnUse">
<stop stop-color="white"/>
<stop offset="1" stop-color="#807D7D" stop-opacity="0.54"/>
</linearGradient>
<linearGradient id="paint5_linear_500_6811" x1="36" y1="10" x2="36" y2="46" gradientUnits="userSpaceOnUse">
<stop stop-color="white"/>
<stop offset="1" stop-color="#807D7D" stop-opacity="0.54"/>
</linearGradient>
<linearGradient id="paint6_linear_500_6811" x1="36" y1="12" x2="36" y2="48" gradientUnits="userSpaceOnUse">
<stop stop-color="white"/>
<stop offset="1" stop-color="#807D7D" stop-opacity="0.54"/>
</linearGradient>
<linearGradient id="paint7_linear_500_6811" x1="36" y1="14" x2="36" y2="50" gradientUnits="userSpaceOnUse">
<stop stop-color="white"/>
<stop offset="1" stop-color="#807D7D" stop-opacity="0.54"/>
</linearGradient>
<linearGradient id="paint8_linear_500_6811" x1="36" y1="16" x2="36" y2="52" gradientUnits="userSpaceOnUse">
<stop stop-color="white"/>
<stop offset="1" stop-color="#807D7D" stop-opacity="0.54"/>
</linearGradient>
<linearGradient id="paint9_linear_500_6811" x1="36" y1="18" x2="36" y2="54" gradientUnits="userSpaceOnUse">
<stop stop-color="white"/>
<stop offset="1" stop-color="#807D7D" stop-opacity="0.54"/>
</linearGradient>
<linearGradient id="paint10_linear_500_6811" x1="36" y1="20" x2="36" y2="56" gradientUnits="userSpaceOnUse">
<stop stop-color="white"/>
<stop offset="1" stop-color="#807D7D" stop-opacity="0.54"/>
</linearGradient>
<linearGradient id="paint11_linear_500_6811" x1="36" y1="22" x2="36" y2="58" gradientUnits="userSpaceOnUse">
<stop stop-color="white"/>
<stop offset="1" stop-color="#807D7D" stop-opacity="0.54"/>
</linearGradient>
<linearGradient id="paint12_linear_500_6811" x1="36" y1="24" x2="36" y2="60" gradientUnits="userSpaceOnUse">
<stop stop-color="white"/>
<stop offset="1" stop-color="#807D7D" stop-opacity="0.54"/>
</linearGradient>
<linearGradient id="paint13_linear_500_6811" x1="36" y1="26" x2="36" y2="62" gradientUnits="userSpaceOnUse">
<stop stop-color="white"/>
<stop offset="1" stop-color="#807D7D" stop-opacity="0.54"/>
</linearGradient>
<linearGradient id="paint14_linear_500_6811" x1="36" y1="28" x2="36" y2="64" gradientUnits="userSpaceOnUse">
<stop stop-color="white"/>
<stop offset="1" stop-color="#807D7D" stop-opacity="0.54"/>
</linearGradient>
</defs>
</svg>
