<svg id="SvgjsSvg1001" width="360" height="360" xmlns="http://www.w3.org/2000/svg" version="1.1" xmlns:xlink="http://www.w3.org/1999/xlink" xmlns:svgjs="http://svgjs.com/svgjs"><defs id="SvgjsDefs1002"></defs><g id="SvgjsG1008"><svg xmlns="http://www.w3.org/2000/svg" fill="none" viewBox="0 0 3000 3000" width="360" height="360"><path fill="#a7ff83" d="M1245.73 941.931C1164.56 1010.78 1006.39 999.308 937.451 984.964C855.504 974.904 949.158 914.546 1120.86 859.776C1292.56 805.007 1366.7 726.765 1378.41 777.622C1390.11 828.48 1347.19 855.864 1245.73 941.931Z" class="colorE7E8FF svgShape"></path><path fill="#a7ff83" d="M2333.33 1336.93C2367.51 1645.03 2416.89 1686.87 2618.2 1922.7C2777.86 2109.75 2622.19 2440.4 2522.03 2588.22H1043.59C957.042 2588.22 674.873 2333.86 618.608 2267.93C599.438 2245.47 577.322 2221.7 551.921 2196.57C240.461 1888.47 418.981 1268.46 639.282 1146.74C859.584 1025.02 1110.27 1257.05 1505.3 899.498C1900.32 541.946 2301.67 1051.65 2333.33 1336.93Z" class="colorE7E8FF svgShape"></path><path fill="#ffffff" d="M1618.33 2592.03H1944.45C2121.34 2528.84 2298.22 2237.66 2135.16 2267.88C1972.09 2298.09 1811.79 2284.36 2024.6 2179.97C2237.42 2075.58 2121.34 1995.92 2024.6 2004.16C1927.87 2012.4 1944.45 1946.47 1983.15 1820.11C2021.84 1693.75 1983.15 1578.37 1875.36 1578.37C1767.57 1578.37 1853.25 1891.53 1767.57 1913.51C1681.89 1935.49 1723.35 1789.89 1618.33 1820.11C1513.3 1850.33 1684.66 2210.19 1618.33 2179.97C1551.99 2149.75 1560.29 2004.16 1441.44 2114.04C1346.37 2201.95 1519.75 2469.33 1618.33 2592.03Z" class="colorfff svgShape"></path><path fill="#000000" d="M2108.78 2453.39L2089.31 2593.58H2868.18L2848.71 2453.39H2108.78Z" class="color032068 svgShape"></path><path fill="#ffffff" d="M1656.32 1215.64C1658.25 1236 1676.07 1263.37 1684.74 1274.51C1659.11 1303.06 1606.29 1357 1600.04 1344.41C1592.23 1328.67 1571.61 1285.54 1518.95 1222.15C1466.29 1158.75 1505.58 1101.81 1541.49 1101.37C1577.4 1100.93 1605.18 1163.25 1612.11 1164.54C1619.03 1165.84 1617.5 1154.84 1617.26 1136.94C1617.02 1119.04 1627.81 1099.63 1651 1128.95C1674.19 1158.28 1653.9 1190.2 1656.32 1215.64Z" class="colorfff svgShape"></path><path fill="#000000" fill-rule="evenodd" d="M1632.54 1122.41C1635.24 1123.69 1639.37 1126.91 1644.84 1133.82C1654.57 1146.13 1655.4 1158.94 1653.65 1172.77C1653.06 1177.49 1652.22 1181.97 1651.35 1186.62C1650.89 1189.07 1650.43 1191.56 1649.98 1194.16C1648.76 1201.32 1647.79 1208.94 1648.49 1216.39C1649.61 1228.16 1655.16 1241.22 1661.08 1252.25C1665.54 1260.56 1670.47 1268.21 1674.59 1274.01C1662.05 1287.74 1644.96 1305.46 1629.87 1319.05C1621.34 1326.72 1613.82 1332.75 1608.27 1336.07C1607.13 1336.75 1606.19 1337.25 1605.44 1337.6C1596.4 1319.38 1574.89 1277.19 1524.99 1217.12C1500.11 1187.17 1497.75 1159.92 1504.43 1140.73C1511.31 1120.95 1527.62 1109.4 1541.59 1109.23C1548.22 1109.15 1555.02 1111.96 1562 1117.17C1568.96 1122.38 1575.53 1129.55 1581.49 1137.16C1586.48 1143.52 1590.84 1149.9 1594.61 1155.42C1595.34 1156.49 1596.05 1157.52 1596.73 1158.52C1598.78 1161.5 1600.75 1164.3 1602.47 1166.41C1603.33 1167.46 1604.3 1168.56 1605.35 1169.49C1606.16 1170.21 1608.03 1171.77 1610.67 1172.27C1612.47 1172.6 1614.64 1172.66 1616.87 1171.9C1619.19 1171.1 1620.97 1169.63 1622.21 1167.93C1624.39 1164.96 1624.95 1161.27 1625.2 1158.67C1625.56 1154.83 1625.42 1149.54 1625.27 1143.83C1625.21 1141.54 1625.15 1139.19 1625.12 1136.83C1625.07 1133.09 1625.6 1129.45 1626.6 1126.58C1627.64 1123.56 1628.85 1122.3 1629.46 1121.93C1629.47 1121.92 1629.47 1121.92 1629.48 1121.92C1629.62 1121.82 1630.31 1121.35 1632.54 1122.41ZM1603.18 1338.43C1603.18 1338.43 1603.18 1338.43 1603.2 1338.43C1603.18 1338.43 1603.18 1338.43 1603.18 1338.43ZM1611.74 1121.45C1610.05 1126.34 1609.33 1131.83 1609.4 1137.04C1609.45 1140.21 1609.52 1143.02 1609.59 1145.5C1609.63 1146.99 1609.66 1148.36 1609.69 1149.62C1609.68 1149.62 1609.68 1149.62 1609.68 1149.61C1609.04 1148.68 1608.36 1147.69 1607.65 1146.66C1603.89 1141.14 1599.19 1134.27 1593.85 1127.46C1587.51 1119.37 1579.96 1110.98 1571.4 1104.58C1562.85 1098.19 1552.72 1093.38 1541.39 1093.51C1519.45 1093.78 1498.16 1110.93 1489.58 1135.57C1480.8 1160.81 1485.12 1193.73 1512.91 1227.17C1563.28 1287.8 1583.93 1329.56 1592.18 1346.25C1592.47 1346.83 1592.74 1347.38 1593 1347.9C1594.2 1350.32 1596.2 1352.28 1598.86 1353.32C1601.32 1354.29 1603.74 1354.25 1605.63 1353.95C1609.26 1353.39 1613 1351.55 1616.34 1349.55C1623.26 1345.41 1631.71 1338.53 1640.38 1330.73C1657.86 1314.99 1677.68 1294.14 1690.59 1279.76L1694.98 1274.87L1690.94 1269.69C1686.86 1264.43 1680.48 1255.18 1674.93 1244.82C1669.28 1234.29 1664.95 1223.48 1664.14 1214.9C1663.64 1209.62 1664.3 1203.71 1665.47 1196.81C1665.83 1194.71 1666.25 1192.47 1666.68 1190.14C1667.6 1185.21 1668.59 1179.9 1669.24 1174.74C1671.24 1158.91 1670.62 1141.09 1657.16 1124.08C1651.03 1116.32 1645.11 1110.98 1639.28 1108.21C1633.08 1105.27 1626.69 1105.18 1621.22 1108.54C1616.27 1111.59 1613.38 1116.71 1611.74 1121.45ZM1615.79 1157.75C1615.92 1157.86 1615.9 1157.83 1615.77 1157.72C1615.78 1157.73 1615.79 1157.74 1615.79 1157.75Z" clip-rule="evenodd" class="color032068 svgShape"></path><path fill="#ffffff" d="M2398.11 1211.15L2443.7 1290.33L2324.47 1401.91L2275.38 1279.54L2274.67 1279.62C2242.99 1283.24 2187.43 1289.58 2149.14 1189.56C2110.57 1088.78 2131.61 970.01 2275.38 973.609C2390.4 976.488 2405.12 1133.17 2398.11 1211.15Z" class="colorfff svgShape"></path><path fill="#000000" fill-rule="evenodd" d="M2193.45 998.501C2213.52 987.153 2240.31 980.591 2275.18 981.464C2328.01 982.787 2358.43 1019.03 2375.09 1066.8C2391.78 1114.68 2393.73 1172.13 2390.29 1210.45L2390.06 1212.92L2433.78 1288.86L2327.49 1388.32L2280.44 1271.05L2273.78 1271.81C2257.87 1273.63 2238.11 1275.77 2217.68 1266.32C2197.48 1256.99 2175.16 1235.54 2156.48 1186.75C2137.62 1137.46 2133.8 1084.87 2151.08 1045.61C2159.65 1026.13 2173.44 1009.81 2193.45 998.501ZM2136.69 1039.28C2117.15 1083.69 2122.1 1140.88 2141.8 1192.37C2161.41 1243.6 2186.01 1269 2211.09 1280.59C2233.31 1290.86 2254.74 1289.67 2270.31 1288.01L2321.46 1415.49L2453.62 1291.81L2406.15 1209.37C2409.42 1169.72 2407.23 1111.27 2389.93 1061.63C2372.22 1010.85 2337.76 967.31 2275.58 965.754C2238.56 964.827 2208.81 971.763 2185.71 984.821C2162.55 997.916 2146.53 1016.92 2136.69 1039.28Z" clip-rule="evenodd" class="color032068 svgShape"></path><path fill="#ffffff" fill-rule="evenodd" d="M2258.05 1394.66C2163.65 1434.72 1983.34 1506.16 1941.32 1503.16C1911.81 1501.05 1856.04 1425.9 1804.3 1356.17C1760.47 1297.1 1719.52 1241.92 1699.87 1238.35C1657.04 1230.56 1559.68 1312.34 1551.89 1335.7C1544.1 1359.07 1762.18 1818.61 1840.07 1857.55C1895.66 1885.34 2056.64 1834.61 2154.32 1796.62C2113.44 2060.12 2078.28 2370.83 2073.73 2430.02C2070.41 2473.17 2089.04 2496.13 2112.67 2507.38C2109.59 2516.84 2107.12 2526.21 2104.53 2536.02C2103.96 2538.16 2103.39 2540.33 2102.81 2542.51C2097.16 2563.72 2112.72 2585.79 2134.66 2585.79H2297.42C2315.82 2585.79 2332.99 2576.6 2343.19 2561.3L2373.59 2515.7H2506H2809.76C2946.07 2515.7 2903.23 2258.67 2809.76 1849.76C2716.3 1440.85 2580 1288.97 2521.58 1269.5C2467.88 1251.6 2328.59 1322.57 2258.05 1394.66Z" clip-rule="evenodd" class="colorfff svgShape"></path><path fill="#000000" fill-rule="evenodd" d="M1559.55 1337.63C1559.56 1337.77 1559.58 1337.96 1559.61 1338.21C1559.74 1339.29 1560.05 1340.88 1560.6 1343.05C1561.7 1347.35 1563.58 1353.23 1566.23 1360.57C1571.52 1375.21 1579.62 1395.06 1589.88 1418.47C1610.37 1465.28 1639.26 1525.97 1670.83 1587.18C1702.42 1648.41 1736.61 1710 1767.71 1758.63C1783.26 1782.96 1797.95 1803.92 1811.08 1819.92C1824.43 1836.19 1835.46 1846.46 1843.58 1850.52C1855.58 1856.52 1874.34 1858.67 1898.43 1857.25C1922.24 1855.85 1950.14 1851.03 1979.61 1844.11C2038.53 1830.26 2102.83 1808.22 2151.47 1789.29L2164.17 1784.35L2162.08 1797.82C2121.23 2061.2 2086.1 2371.7 2081.56 2430.62C2080 2450.94 2083.64 2465.83 2089.91 2476.75C2096.17 2487.67 2105.41 2495.22 2116.05 2500.29L2122.28 2503.26L2120.14 2509.82C2117.14 2519.03 2114.72 2528.18 2112.13 2538.03L2112.1 2538.12C2111.55 2540.23 2110.98 2542.37 2110.4 2544.54C2105.96 2561.22 2118.35 2577.94 2134.66 2577.94H2297.43C2313.19 2577.94 2327.91 2570.06 2336.65 2556.94L2369.39 2507.84H2809.76C2825.52 2507.84 2838.18 2504.14 2848.36 2497.32C2858.57 2490.49 2866.86 2480.14 2873.24 2465.93C2886.15 2437.19 2890.74 2393.83 2888.08 2336.43C2882.76 2221.89 2848.87 2056.11 2802.1 1851.51C2755.5 1647.62 2698.3 1508.21 2645.73 1417.53C2619.44 1372.19 2594.37 1339.14 2572.44 1316.32C2550.38 1293.36 2531.96 1281.24 2519.1 1276.96C2507.8 1273.19 2490.79 1273.85 2469.52 1279C2448.51 1284.1 2424.4 1293.31 2399.57 1305.4C2349.84 1329.61 2298.18 1364.89 2263.67 1400.15L2262.57 1401.28L2261.12 1401.89C2213.84 1421.96 2145.03 1449.89 2082.72 1472.45C2051.58 1483.72 2021.95 1493.69 1997.41 1500.67C1985.14 1504.15 1974.04 1506.92 1964.6 1508.72C1955.3 1510.5 1947.07 1511.45 1940.76 1511C1930.74 1510.28 1920.06 1503.72 1909.73 1495.16C1899.06 1486.33 1887.38 1474.19 1875.21 1460.18C1850.92 1432.18 1823.9 1395.77 1798.12 1361.03L1797.99 1360.86C1776.03 1331.25 1754.99 1302.91 1737 1281.5C1728 1270.79 1719.94 1262.03 1713.04 1255.78C1705.79 1249.21 1700.99 1246.54 1698.47 1246.08C1690.24 1244.58 1677.99 1247.34 1663.02 1254.14C1648.39 1260.79 1632.44 1270.69 1617.37 1281.69C1602.33 1292.67 1588.4 1304.59 1577.81 1315.11C1572.52 1320.38 1568.14 1325.21 1564.91 1329.34C1561.91 1333.17 1560.25 1335.94 1559.55 1337.63ZM1656.52 1239.83C1672.1 1232.76 1688.09 1228.22 1701.28 1230.61C1708.58 1231.94 1716.27 1237.5 1723.59 1244.13C1731.26 1251.08 1739.86 1260.47 1749.03 1271.39C1767.36 1293.2 1788.67 1321.91 1810.49 1351.33L1810.61 1351.49C1836.54 1386.43 1863.22 1422.38 1887.08 1449.87C1899.02 1463.63 1910.05 1475.03 1919.75 1483.06C1929.79 1491.37 1937.15 1494.99 1941.88 1495.32C1946.09 1495.62 1952.68 1495 1961.65 1493.29C1970.48 1491.6 1981.1 1488.97 1993.12 1485.55C2017.15 1478.72 2046.38 1468.89 2077.37 1457.67C2138.7 1435.47 2206.48 1407.98 2253.55 1388.03C2289.55 1351.6 2342.23 1315.84 2392.69 1291.27C2418.2 1278.85 2443.4 1269.16 2465.82 1263.73C2487.96 1258.36 2508.51 1256.86 2524.07 1262.05C2540.41 1267.49 2560.93 1281.66 2583.78 1305.43C2606.76 1329.35 2632.55 1363.47 2659.33 1409.65C2712.88 1502.01 2770.56 1642.99 2817.42 1848.01C2864.12 2052.32 2898.38 2219.51 2903.78 2335.7C2906.47 2393.68 2902.05 2440.13 2887.58 2472.37C2880.27 2488.64 2870.27 2501.56 2857.1 2510.38C2843.9 2519.22 2828.08 2523.55 2809.76 2523.55H2377.8L2349.73 2565.66C2338.07 2583.15 2318.44 2593.65 2297.43 2593.65H2134.66C2107.08 2593.65 2088.36 2566.22 2095.22 2540.49C2095.8 2538.31 2096.37 2536.16 2096.93 2534.02L2096.96 2533.92C2098.97 2526.31 2100.94 2518.81 2103.22 2511.28C2092.63 2505.15 2083.12 2496.49 2076.28 2484.57C2068.15 2470.41 2064.14 2452.24 2065.89 2429.42C2070.39 2370.97 2104.48 2069.47 2144.49 1808.81C2097.25 1826.7 2038.07 1846.51 1983.21 1859.4C1953.28 1866.44 1924.41 1871.46 1899.35 1872.94C1874.56 1874.4 1852.36 1872.48 1836.56 1864.58C1825.21 1858.91 1812.39 1846.3 1798.93 1829.89C1785.25 1813.21 1770.19 1791.69 1754.47 1767.1C1723.01 1717.89 1688.57 1655.83 1656.87 1594.39C1625.16 1532.92 1596.12 1471.92 1575.48 1424.78C1565.16 1401.22 1556.9 1381.02 1551.45 1365.91C1548.73 1358.37 1546.65 1351.95 1545.37 1346.93C1544.73 1344.43 1544.25 1342.11 1544.01 1340.08C1543.8 1338.36 1543.6 1335.71 1544.43 1333.22C1545.85 1328.97 1548.92 1324.27 1552.54 1319.65C1556.29 1314.86 1561.14 1309.53 1566.73 1303.97C1577.93 1292.83 1592.48 1280.4 1608.1 1269C1623.71 1257.6 1640.61 1247.06 1656.52 1239.83Z" clip-rule="evenodd" class="color032068 svgShape"></path><path fill="#000000" d="M2234.6 2109.49C2223.1 2187.83 2145.93 2412.94 2108.78 2515.7 2135.14 2409.31 2190.74 2179.13 2202.25 2109.49 2213.75 2039.86 2238.19 1717.8 2248.98 1565.47 2248.98 1714.17 2246.1 2031.15 2234.6 2109.49zM2466.55 2515.7C2613.13 2220.92 2573.81 2220.92 2591.68 1814.71 2580.96 1912.97 2554.5 2131.77 2534.48 2220.92 2514.46 2310.07 2418.88 2454.58 2373.6 2515.7H2466.55zM2108.78 1756.3C2133.71 1728.26 2168.5 1644.66 2190.56 1565.47 2174.99 1678.41 2167.2 1717.35 2155.51 1795.24 2102.55 1826.39 2001.04 1849.76 1956.9 1857.55 1997.14 1835.48 2083.86 1784.34 2108.78 1756.3z" class="color032068 svgShape"></path><path fill="#000000" d="M1999.74 1845.87C1921.85 1786.67 1801.13 1756.3 1750.5 1748.51 1768.67 1780.96 1814.37 1848.98 1851.75 1861.44 1889.14 1873.91 1965.99 1856.25 1999.74 1845.87zM2124.36 1105.94C2139.94 1062.32 2177.58 1033.24 2194.46 1024.16 2222.5 1098.93 2258.07 1115.03 2272.35 1113.73 2272.35 1094.26 2295.71 1067 2322.97 1090.36 2366.59 1127.75 2328.16 1163.06 2303.5 1176.04L2404.75 1288.97 2439.8 1277.29C2470.96 1273.4 2506.01 1281.19 2572.21 1366.86 2625.17 1435.4 2643.61 1416.19 2646.2 1398.02 2669.57 1222.77 2548.84 1133.2 2486.54 1082.57 2424.23 1031.95 2404.75 890.513 2272.35 903.431 2144.61 915.893 2116.57 1034.54 2124.36 1105.94zM2475.56 2359.92C2470.06 2243.8 2496.17 2102.27 2568.32 2040.58 2561.45 2086.55 2542.21 2185.01 2533.96 2225.65 2525.72 2266.3 2490.45 2333.31 2475.56 2359.92zM2315.18 1269.5C2305.84 1272.62 2282.73 1274.69 2272.35 1277.29L2287.92 1312.34 2315.18 1269.5z" class="color032068 svgShape"></path><path fill="#ffffff" d="M1632.11 522.643C1632.11 505.842 1645.73 492.222 1662.54 492.222H2280.98C2297.79 492.222 2311.42 505.842 2311.42 522.643V795.376C2311.42 812.177 2297.79 825.797 2280.98 825.797H1662.54C1645.73 825.797 1632.11 812.177 1632.11 795.376V522.643Z" class="colorfff svgShape"></path><path fill="#000000" fill-rule="evenodd" d="M1626.02 522.643C1626.02 502.482 1642.37 486.138 1662.55 486.138H2280.98C2301.15 486.138 2317.51 502.482 2317.51 522.643V795.376C2317.51 815.537 2301.15 831.881 2280.98 831.881H1662.55C1642.37 831.881 1626.02 815.537 1626.02 795.376V522.643ZM1662.55 498.306C1649.1 498.306 1638.19 509.202 1638.19 522.643V795.376C1638.19 808.817 1649.1 819.713 1662.55 819.713H2280.98C2294.43 819.713 2305.33 808.817 2305.33 795.376V522.643C2305.33 509.202 2294.43 498.306 2280.98 498.306H1662.55Z" clip-rule="evenodd" class="color032068 svgShape"></path><path fill="#a7ff83" d="M1738.12 620.753C1738.12 603.952 1751.75 590.333 1768.56 590.333H1849.05C1865.86 590.333 1879.48 603.952 1879.48 620.753V701.191C1879.48 717.991 1865.86 731.611 1849.05 731.611H1768.56C1751.75 731.611 1738.12 717.991 1738.12 701.191V620.753Z" class="colorE7E8FF svgShape"></path><path fill="#000000" fill-rule="evenodd" d="M2201.47 619.964H1977.65V607.796H2201.47V619.964ZM2087.53 725.923H1977.65V713.755H2087.53V725.923Z" clip-rule="evenodd" class="color032068 svgShape"></path><path fill="#ffffff" d="M658.215 446.797C658.215 428.739 672.904 414.1 691.023 414.1H1256.62C1274.74 414.1 1289.43 428.739 1289.43 446.797V690.492C1289.43 708.551 1274.74 723.19 1256.62 723.19H691.023C672.904 723.19 658.215 708.551 658.215 690.492V446.797Z" class="colorfff svgShape"></path><path fill="#000000" fill-rule="evenodd" d="M651.653 446.797C651.653 425.127 669.28 407.56 691.023 407.56H1256.62C1278.37 407.56 1295.99 425.127 1295.99 446.798V690.492C1295.99 712.162 1278.37 729.73 1256.62 729.73H691.023C669.28 729.73 651.653 712.162 651.653 690.492V446.797ZM691.023 420.639C676.528 420.639 664.777 432.351 664.777 446.797V690.492C664.777 704.939 676.528 716.65 691.023 716.65H1256.62C1271.12 716.65 1282.87 704.939 1282.87 690.492V446.798C1282.87 432.351 1271.12 420.639 1256.62 420.639H691.023Z" clip-rule="evenodd" class="color032068 svgShape"></path><path fill="#a7ff83" d="M847.379 568.368C847.379 587.293 831.986 602.634 812.997 602.634 794.009 602.634 778.616 587.293 778.616 568.368 778.616 549.444 794.009 534.103 812.997 534.103 831.986 534.103 847.379 549.444 847.379 568.368zM1011.56 568.364C1011.56 587.288 996.172 602.63 977.183 602.63 958.195 602.63 942.802 587.288 942.802 568.364 942.802 549.439 958.195 534.098 977.183 534.098 996.172 534.098 1011.56 549.439 1011.56 568.364zM1179.41 568.364C1179.41 587.288 1164.01 602.63 1145.02 602.63 1126.04 602.63 1110.64 587.288 1110.64 568.364 1110.64 549.439 1126.04 534.098 1145.02 534.098 1164.01 534.098 1179.41 549.439 1179.41 568.364z" class="colorE7E8FF svgShape"></path><path fill="#ffffff" d="M879.011 2036.87C870.217 2244.29 1000.09 2471.36 1073.81 2569.28C1077.66 2574.39 1083.69 2577.29 1090.11 2577.29H1144.92C1157.35 2577.29 1166.98 2566.29 1165.35 2554.03C1116.52 2188.15 981.182 2051.45 901.931 2020.74C890.681 2016.38 879.52 2024.87 879.011 2036.87Z" class="colorfff svgShape"></path><path fill="#000000" fill-rule="evenodd" d="M899.422 2027.15C893.309 2024.78 886.263 2029.08 885.92 2037.16C881.583 2139.45 911.456 2247 951.831 2341.44C992.181 2435.83 1042.79 2516.6 1079.34 2565.15C1081.84 2568.47 1085.79 2570.41 1090.11 2570.41H1144.92C1153.15 2570.41 1159.58 2563.1 1158.49 2554.93C1109.79 2190.01 975.164 2056.5 899.422 2027.15ZM872.102 2036.58C872.777 2020.66 888.054 2007.98 904.441 2014.33C987.199 2046.4 1123.24 2186.29 1172.2 2553.12C1174.38 2569.48 1161.56 2584.17 1144.92 2584.17H1090.11C1081.6 2584.17 1073.48 2580.31 1068.27 2573.4C1031.11 2524.04 979.922 2442.31 939.104 2346.83C898.312 2251.41 867.645 2141.71 872.102 2036.58Z" clip-rule="evenodd" class="color032068 svgShape"></path><path fill="#000000" d="M1293.95 1913.19C1123.36 2064.9 1089.2 2420.42 1089.7 2560.02C1089.74 2571.16 1098.92 2579.8 1110.12 2579.8H1160.86C1168.54 2579.8 1175.68 2575.44 1179.23 2568.67C1349.97 2243.01 1332.4 2040.8 1326.22 1928.06C1325.31 1911.49 1306.38 1902.14 1293.95 1913.19Z" class="color032068 svgShape"></path><path fill="#ffffff" d="M1428.65 2230.58C1294.15 2294.53 1188.16 2452.58 1139.19 2548.59C1132.39 2561.93 1142.35 2577.29 1157.39 2577.29H1217.71C1221.71 2577.29 1225.66 2576.13 1228.99 2573.93C1375.54 2477.18 1436.25 2333.42 1453.66 2250.05C1456.75 2235.28 1442.32 2224.08 1428.65 2230.58Z" class="colorfff svgShape"></path><path fill="#000000" fill-rule="evenodd" d="M1446.89 2248.65C1448.81 2239.49 1440.17 2232.73 1431.63 2236.79C1365.64 2268.16 1306.28 2322.83 1257.18 2381.95C1208.12 2441 1169.65 2504.07 1145.36 2551.71C1141.02 2560.22 1147.23 2570.41 1157.39 2570.41H1217.71C1220.38 2570.41 1222.99 2569.63 1225.17 2568.19L1228.99 2573.93L1225.17 2568.19C1369.81 2472.71 1429.74 2330.75 1446.89 2248.65ZM1425.66 2224.37C1444.48 2215.43 1464.69 2231.08 1460.43 2251.45C1442.76 2336.09 1381.26 2481.66 1232.82 2579.66C1228.33 2582.62 1223.04 2584.17 1217.71 2584.17H1157.39C1137.47 2584.17 1123.76 2563.64 1133.03 2545.48C1157.7 2497.1 1196.71 2433.14 1246.51 2373.18C1296.27 2313.28 1357.15 2256.95 1425.66 2224.37Z" clip-rule="evenodd" class="color032068 svgShape"></path><path fill="#000000" fill-rule="evenodd" d="M951.704 2101.01C979.995 2139.21 1006.65 2191.51 1030.54 2248.1C1046.73 2286.43 1061.71 2326.88 1075.13 2366.49L1088.49 2324.06L1101.68 2328.17L1082.58 2388.87C1094.85 2426.38 1105.63 2462.65 1114.61 2495.09C1122.91 2525.06 1129.67 2551.78 1134.64 2573.23L1121.17 2576.32C1116.41 2555.83 1109.99 2530.4 1102.14 2501.87L1054.39 2480.59L1060.04 2468.03L1097.33 2484.65C1089.07 2455.5 1079.47 2423.73 1068.75 2391.05C1054.12 2346.46 1037.41 2300.23 1019.17 2256.71L954.731 2242.41L957.74 2228.98L1012.53 2241.14C990.213 2189.79 965.9 2143.37 940.57 2109.17L951.704 2101.01Z" clip-rule="evenodd" class="color032068 svgShape"></path><path fill="#ffffff" fill-rule="evenodd" d="M1240.22 2148.01C1250.22 2112.34 1259.74 2080.05 1268.3 2053.4C1278.24 2022.45 1286.73 1999.6 1293.06 1987.75L1280.84 1981.3C1273.86 1994.38 1265.03 2018.36 1255.13 2049.21C1245.16 2080.24 1233.94 2118.71 1222.22 2161.14C1214.03 2190.73 1205.6 2222.28 1197.16 2254.58L1177.18 2207.89L1164.46 2213.27L1191.48 2276.43C1181.28 2315.85 1171.15 2356.01 1161.55 2394.8C1144.92 2461.96 1129.85 2525.06 1118.64 2573.23L1132.12 2576.33C1143.15 2528.93 1157.92 2467.05 1174.24 2401.07L1242.25 2364.84L1235.72 2352.71L1178.7 2383.08C1187.36 2348.29 1196.38 2312.64 1205.45 2277.6C1215.32 2239.5 1225.25 2202.14 1234.83 2167.41L1290.55 2133.57L1283.35 2121.82L1240.22 2148.01Z" clip-rule="evenodd" class="colorfff svgShape"></path><path fill="#000000" fill-rule="evenodd" d="M1348.64 2343.99C1365.44 2326.61 1381.87 2311.19 1397.32 2298.83L1388.64 2288.11C1368.32 2304.38 1346.62 2325.53 1324.84 2349.09C1310.73 2364.35 1296.54 2380.67 1282.62 2397.4L1286.2 2374.92L1272.55 2372.76L1265.22 2418.69C1246.88 2441.5 1229.27 2464.59 1213.21 2486.41C1188.13 2520.48 1166.81 2551.49 1152.4 2573.54L1164 2581.04C1177.86 2559.82 1198.26 2530.12 1222.3 2497.35H1271.76V2483.59H1232.47C1246.53 2464.75 1261.59 2445.19 1277.16 2425.87C1295.5 2403.09 1314.52 2380.68 1333.37 2360.19L1381.38 2353.02L1379.33 2339.41L1348.64 2343.99Z" clip-rule="evenodd" class="color032068 svgShape"></path><path fill="#a7ff83" d="M2616.54 789.209L2589.32 824.389C2587.67 826.53 2584.96 827.56 2582.32 827.06L2548.68 820.698C2541.44 819.329 2537.07 828.51 2542.66 833.352L2569.1 856.27C2571.03 857.943 2571.94 860.52 2571.5 863.049L2564.86 900.839C2563.62 907.943 2572.28 912.34 2577.19 907.093L2604.35 878.052C2605.95 876.347 2608.26 875.523 2610.56 875.839L2641.99 880.159C2649.07 881.132 2653.08 872.227 2647.7 867.485L2624.32 846.899C2622.45 845.245 2621.55 842.731 2621.95 840.25L2629.32 794.855C2630.53 787.431 2621.13 783.279 2616.54 789.209zM386.699 1008.39L356.626 1007.9C354.796 1007.87 353.166 1006.83 352.401 1005.2L342.669 984.535C340.575 980.089 333.804 981.432 333.336 986.387L331.122 1009.84C330.96 1011.55 329.9 1013.08 328.334 1013.86L304.922 1025.49C300.521 1027.68 301.51 1034.11 306.329 1034.64L332.999 1037.58C334.565 1037.75 335.928 1038.66 336.66 1040.03L346.647 1058.68C348.897 1062.89 355.376 1061.46 355.868 1056.66L358.005 1035.79C358.176 1034.12 359.208 1032.62 360.732 1031.84L388.619 1017.54C393.18 1015.21 391.768 1008.48 386.699 1008.39z" class="colorE7E8FF svgShape"></path><path fill="#000000" d="M820.428 2588.86L804.851 2464.24H154.493L142.81 2588.86H820.428Z" class="color032068 svgShape"></path><path fill="#ffffff" d="M1302.28 1865.74C1267.47 1886.04 1222.5 1910.45 1204.36 1920.12L1182.6 2039.75C1195.9 2026.46 1240.63 1994.08 1313.16 1970.87C1403.82 1941.87 1483.61 1894.74 1458.22 1854.86C1437.91 1822.96 1391.74 1841.57 1371.18 1854.86C1362.72 1850.03 1337.1 1845.44 1302.28 1865.74Z" class="colorfff svgShape"></path><path fill="#000000" fill-rule="evenodd" d="M1415.88 1845.7C1400.71 1847.82 1385.11 1855.21 1375.45 1861.46L1371.44 1864.06L1367.29 1861.69C1361.88 1858.6 1339.31 1853.24 1306.24 1872.53C1273.29 1891.74 1231.32 1914.6 1211.42 1925.26L1194.18 2020.01C1216.68 2003.61 1256.08 1980.88 1310.77 1963.39C1355.73 1949.01 1397.45 1930.28 1424.59 1910.59C1438.23 1900.69 1447.5 1891.04 1452.01 1882.17C1456.27 1873.79 1456.23 1866.37 1451.59 1859.08C1443.75 1846.76 1430.91 1843.6 1415.88 1845.7ZM1413.71 1830.13C1431.98 1827.58 1452.39 1831.07 1464.85 1850.64C1472.91 1863.3 1472.41 1876.72 1466.02 1889.3C1459.87 1901.39 1448.29 1912.81 1433.82 1923.31C1404.76 1944.4 1361.26 1963.74 1315.55 1978.36C1243.96 2001.26 1200.4 2033.07 1188.16 2045.31L1170.37 2063.09L1197.31 1914.97L1200.67 1913.19C1218.76 1903.54 1263.63 1879.18 1298.32 1858.95C1330.81 1840 1357.09 1840.92 1370.61 1845.98C1381.59 1839.47 1397.5 1832.4 1413.71 1830.13Z" clip-rule="evenodd" class="color032068 svgShape"></path><path fill="#ffffff" d="M1205.77 1480.93C1200.14 1500.59 1177.59 1524.23 1167.03 1533.59C1186.99 1566.35 1229.02 1629.07 1237.47 1617.83C1248.04 1603.79 1276.21 1565.18 1339.61 1512.53C1403.01 1459.87 1374.83 1396.69 1339.61 1389.67C1304.39 1382.65 1265.65 1438.81 1258.6 1438.81C1251.56 1438.81 1255.08 1428.28 1258.6 1410.73C1262.13 1393.18 1255.08 1372.11 1226.9 1396.69C1198.73 1421.26 1212.82 1456.36 1205.77 1480.93Z" class="colorfff svgShape"></path><path fill="#000000" fill-rule="evenodd" d="M1246.25 1393.64C1243.36 1394.41 1238.71 1396.82 1232.07 1402.61C1220.24 1412.92 1217.08 1425.36 1216.26 1439.27C1215.98 1444.03 1215.98 1448.59 1215.98 1453.31C1215.98 1455.8 1215.98 1458.34 1215.94 1460.98C1215.83 1468.24 1215.39 1475.91 1213.32 1483.1C1210.06 1494.47 1202.21 1506.28 1194.37 1516.04C1188.47 1523.4 1182.21 1530.01 1177.1 1534.96C1186.91 1550.75 1200.46 1571.3 1212.8 1587.43C1219.77 1596.54 1226.07 1603.85 1230.91 1608.13C1231.9 1609.01 1232.73 1609.67 1233.41 1610.16C1245.64 1593.9 1274.52 1556.37 1334.59 1506.48C1364.55 1481.6 1371.87 1455.25 1368.83 1435.16C1365.69 1414.45 1351.78 1400.1 1338.08 1397.37C1331.58 1396.08 1324.37 1397.59 1316.56 1401.43C1308.75 1405.27 1300.99 1411.13 1293.73 1417.51C1287.66 1422.85 1282.2 1428.32 1277.48 1433.06C1276.57 1433.97 1275.68 1434.86 1274.83 1435.71C1272.26 1438.27 1269.82 1440.65 1267.73 1442.41C1266.7 1443.29 1265.54 1444.19 1264.34 1444.91C1263.41 1445.47 1261.29 1446.67 1258.6 1446.67C1256.77 1446.67 1254.63 1446.33 1252.57 1445.17C1250.44 1443.96 1248.96 1442.19 1248.05 1440.29C1246.46 1436.97 1246.58 1433.24 1246.82 1430.64C1247.17 1426.79 1248.27 1421.62 1249.47 1416.03C1249.94 1413.8 1250.44 1411.49 1250.9 1409.18C1251.63 1405.52 1251.77 1401.84 1251.33 1398.83C1250.86 1395.68 1249.9 1394.21 1249.37 1393.73C1249.36 1393.73 1249.36 1393.73 1249.35 1393.72C1249.23 1393.6 1248.64 1393.01 1246.25 1393.64ZM1235.48 1611.38C1235.48 1611.38 1235.48 1611.38 1235.46 1611.38C1235.48 1611.38 1235.48 1611.38 1235.48 1611.38ZM1266.87 1396.51C1267.63 1401.63 1267.33 1407.16 1266.31 1412.27C1265.68 1415.38 1265.1 1418.12 1264.58 1420.56C1264.27 1422.01 1263.98 1423.35 1263.72 1424.59C1263.73 1424.59 1263.73 1424.58 1263.73 1424.58C1264.53 1423.78 1265.38 1422.93 1266.26 1422.04C1270.98 1417.31 1276.85 1411.42 1283.35 1405.7C1291.07 1398.92 1300.03 1392.05 1309.62 1387.33C1319.2 1382.62 1330.04 1379.75 1341.15 1381.96C1362.67 1386.25 1380.46 1407.01 1384.37 1432.81C1388.37 1459.23 1378.08 1490.79 1344.63 1518.57C1284 1568.93 1256.03 1606.19 1244.85 1621.09C1244.47 1621.61 1244.1 1622.1 1243.75 1622.56C1242.12 1624.72 1239.8 1626.27 1236.99 1626.81C1234.4 1627.31 1232.03 1626.83 1230.22 1626.19C1226.75 1624.97 1223.42 1622.48 1220.5 1619.9C1214.46 1614.56 1207.41 1606.25 1200.32 1596.98C1186.03 1578.31 1170.37 1554.18 1160.32 1537.68L1156.9 1532.06L1161.82 1527.71C1166.8 1523.29 1174.76 1515.36 1182.12 1506.2C1189.6 1496.89 1195.84 1487.06 1198.22 1478.77C1199.68 1473.67 1200.12 1467.74 1200.23 1460.74C1200.26 1458.61 1200.26 1456.33 1200.26 1453.96C1200.26 1448.95 1200.26 1443.54 1200.57 1438.35C1201.51 1422.42 1205.39 1405.02 1221.74 1390.76C1229.19 1384.27 1235.99 1380.1 1242.23 1378.45C1248.86 1376.7 1255.16 1377.78 1259.92 1382.09C1264.23 1386 1266.13 1391.55 1266.87 1396.51ZM1256.23 1431.45C1256.09 1431.54 1256.1 1431.51 1256.26 1431.43C1256.25 1431.44 1256.24 1431.45 1256.23 1431.45Z" clip-rule="evenodd" class="color032068 svgShape"></path><path fill="#ffffff" d="M577.356 1199.92L528.352 1283.42L656.518 1401.08L709.292 1272.03L710.054 1272.12C744.115 1275.94 803.84 1282.63 844.997 1177.15C886.462 1070.87 863.845 945.622 709.292 949.418C585.649 952.454 569.817 1117.68 577.356 1199.92Z" class="colorfff svgShape"></path><path fill="#000000" fill-rule="evenodd" d="M797.718 975.326C776.01 963.288 747.077 956.35 709.485 957.273C652.257 958.678 619.447 997.206 601.535 1047.6C583.571 1098.14 581.475 1158.77 585.181 1199.2L585.412 1201.72L538.341 1281.92L653.517 1387.66L704.266 1263.56L710.929 1264.31C728.024 1266.23 749.464 1268.51 771.619 1258.46C793.528 1248.53 817.587 1225.78 837.677 1174.29C857.973 1122.27 862.099 1066.73 843.482 1025.22C834.241 1004.62 819.355 987.325 797.718 975.326ZM857.821 1018.79C878.785 1065.53 873.486 1125.75 852.317 1180C831.251 1233.99 804.869 1260.64 778.11 1272.78C754.157 1283.64 731.068 1282.26 714.321 1280.49L659.518 1414.5L518.362 1284.92L569.309 1198.11C565.787 1156.31 568.128 1094.66 586.727 1042.34C605.757 988.799 642.684 943.193 709.099 941.562C748.783 940.588 780.634 947.882 805.34 961.582C830.115 975.322 847.271 995.269 857.821 1018.79Z" clip-rule="evenodd" class="color032068 svgShape"></path><path fill="#ffffff" fill-rule="evenodd" d="M142.812 2483.71C99.9738 2479.82 76.9622 2418.32 142.812 2051.44C224.593 1595.8 407.628 1256.99 493.304 1249.2C578.98 1241.41 707.494 1401.08 719.177 1432.23C719.886 1434.12 720.809 1437.66 721.924 1442.64C722.305 1443.06 722.688 1443.49 723.07 1443.92C772.399 1519.21 877.287 1673.68 902.211 1689.26C919.905 1700.32 987.843 1639.78 1049.67 1584.69C1096.7 1542.78 1140.2 1504.02 1155.34 1502.33C1190.39 1498.44 1291.65 1595.8 1291.65 1615.27C1291.65 1626.38 1214.35 1765.46 1137.1 1890.86C1168.96 1884.59 1193.01 1882.43 1202.08 1887.87C1241.02 1911.24 1283.86 2039.75 1272.18 2078.7C1262.83 2109.85 995.677 2286.4 863.268 2370.77C862.427 2393.92 864.914 2413.93 866.962 2430.4C871.231 2464.74 873.589 2483.71 839.902 2483.71H142.812Z" clip-rule="evenodd" class="colorfff svgShape"></path><path fill="#000000" fill-rule="evenodd" d="M716.206 1410.8C721.057 1418.21 724.752 1424.72 726.535 1429.47C727.332 1431.6 728.203 1434.89 729.133 1438.91L729.319 1439.12L729.643 1439.61C754.273 1477.2 792.769 1534.56 828.198 1584.43C845.919 1609.38 862.819 1632.37 876.807 1650.07C883.805 1658.92 890.011 1666.37 895.185 1672.04C900.533 1677.9 904.265 1681.28 906.376 1682.6C906.195 1682.49 906.867 1683.01 909.61 1682.49C912.263 1681.98 915.869 1680.66 920.468 1678.33C929.631 1673.68 941.254 1665.78 954.61 1655.55C981.254 1635.12 1013.46 1606.43 1044.44 1578.82L1044.55 1578.72C1067.99 1557.84 1090.73 1537.58 1109.51 1522.32C1118.92 1514.69 1127.49 1508.18 1134.77 1503.43C1138.41 1501.06 1141.85 1499.05 1145 1497.54C1148.06 1496.09 1151.31 1494.87 1154.48 1494.52C1160.66 1493.84 1167.45 1495.41 1174.06 1497.92C1180.8 1500.49 1188.09 1504.31 1195.55 1508.91C1210.48 1518.11 1226.79 1530.83 1241.85 1544.15C1256.91 1557.49 1270.94 1571.63 1281.26 1583.77C1286.41 1589.83 1290.77 1595.53 1293.88 1600.49C1295.44 1602.96 1296.77 1605.4 1297.74 1607.7C1298.66 1609.89 1299.5 1612.53 1299.5 1615.27C1299.5 1617.48 1298.72 1619.86 1298.17 1621.43C1297.49 1623.36 1296.53 1625.7 1295.36 1628.34C1293.01 1633.64 1289.61 1640.62 1285.36 1648.95C1276.84 1665.64 1264.72 1688.08 1250.2 1714.04C1223.47 1761.86 1188.54 1821.8 1152.97 1880.02C1162.1 1878.56 1170.42 1877.55 1177.69 1877.13C1183.51 1876.8 1188.85 1876.82 1193.48 1877.36C1198 1877.88 1202.48 1878.95 1206.12 1881.14C1217.63 1888.04 1228.44 1901.92 1237.89 1918.11C1247.51 1934.58 1256.34 1954.52 1263.52 1974.82C1270.7 1995.13 1276.31 2016.03 1279.38 2034.45C1282.39 2052.51 1283.18 2069.38 1279.7 2080.96C1278.64 2084.49 1276.18 2088.02 1273.55 2091.19C1270.76 2094.57 1267.09 2098.35 1262.74 2102.45C1254.03 2110.67 1242.09 2120.62 1227.8 2131.8C1199.2 2154.19 1160.64 2181.92 1118.35 2211.24C1035.21 2268.86 937.247 2332.89 871.007 2375.16C870.599 2395.88 872.837 2413.96 874.76 2429.43L874.789 2429.67C875.833 2438.07 876.813 2445.95 877.122 2452.87C877.431 2459.79 877.124 2466.56 875.101 2472.47C872.959 2478.74 868.954 2483.86 862.569 2487.18C856.525 2490.33 848.913 2491.57 839.902 2491.57H142.456L142.101 2491.54C129.128 2490.36 117.284 2484.55 108.723 2470.13C100.574 2456.41 95.6617 2435.32 94.2049 2404.06C91.2831 2341.36 102.152 2233.49 135.078 2050.05C176.08 1821.61 242.48 1622.34 309.479 1479.05C342.966 1407.43 376.707 1349.57 407.647 1309C423.11 1288.72 438.029 1272.55 452.034 1261.13C465.902 1249.82 479.61 1242.55 492.593 1241.37C516.441 1239.21 542.277 1248.69 567.099 1263.37C592.094 1278.15 617.048 1298.8 639.451 1320.46C661.883 1342.16 681.961 1365.07 697.195 1384.56C704.812 1394.3 711.26 1403.25 716.206 1410.8ZM559.098 1276.89C535.362 1262.86 513.006 1255.3 494.016 1257.02C485.579 1257.79 474.826 1262.82 461.966 1273.31C449.243 1283.68 435.167 1298.82 420.144 1318.52C390.114 1357.91 356.92 1414.69 323.716 1485.7C257.333 1627.67 191.325 1825.63 150.546 2052.83C117.622 2236.26 107.072 2342.58 109.903 2403.33C111.323 2433.79 116.08 2451.74 122.236 2462.11C127.903 2471.65 134.887 2475.03 143.185 2475.85H839.902C847.735 2475.85 852.461 2474.72 855.316 2473.24C857.83 2471.93 859.285 2470.16 860.23 2467.39C861.296 2464.28 861.703 2459.86 861.422 2453.57C861.144 2447.34 860.243 2440.05 859.164 2431.37L859.147 2431.23C857.103 2414.79 854.551 2394.27 855.416 2370.49L855.566 2366.37L859.046 2364.15C925.199 2321.99 1025 2256.82 1109.39 2198.32C1151.61 2169.06 1189.87 2141.54 1218.12 2119.43C1232.26 2108.36 1243.76 2098.75 1251.96 2091.01C1256.07 2087.14 1259.23 2083.85 1261.44 2081.18C1262.55 2079.84 1263.35 2078.74 1263.9 2077.86C1264.17 2077.43 1264.36 2077.09 1264.48 2076.83C1264.54 2076.7 1264.59 2076.61 1264.61 2076.54C1264.64 2076.47 1264.65 2076.44 1264.65 2076.44C1267.02 2068.54 1266.83 2054.74 1263.88 2037.03C1260.99 2019.67 1255.64 1999.67 1248.7 1980.06C1241.77 1960.45 1233.32 1941.45 1224.32 1926.03C1215.15 1910.34 1206 1899.39 1198.04 1894.61C1197.15 1894.08 1195.21 1893.38 1191.68 1892.97C1188.26 1892.58 1183.89 1892.52 1178.59 1892.82C1167.99 1893.43 1154.41 1895.46 1138.62 1898.57L1120.99 1902.04L1130.41 1886.74C1168.98 1824.13 1207.56 1758.11 1236.49 1706.37C1250.95 1680.49 1262.97 1658.24 1271.36 1641.81C1275.57 1633.58 1278.81 1626.89 1280.99 1621.97C1282.08 1619.5 1282.86 1617.59 1283.35 1616.2C1283.54 1615.68 1283.65 1615.31 1283.72 1615.07C1283.65 1614.82 1283.52 1614.41 1283.26 1613.8C1282.73 1612.54 1281.85 1610.89 1280.57 1608.84C1278.01 1604.77 1274.18 1599.7 1269.29 1593.95C1259.54 1582.48 1246.06 1568.87 1231.43 1555.92C1216.79 1542.96 1201.22 1530.86 1187.31 1522.29C1180.35 1518 1173.98 1514.71 1168.47 1512.61C1162.83 1510.47 1158.79 1509.86 1156.21 1510.14C1155.59 1510.21 1154.17 1510.58 1151.77 1511.73C1149.46 1512.83 1146.65 1514.45 1143.35 1516.6C1136.74 1520.9 1128.66 1527.02 1119.42 1534.52C1100.94 1549.53 1078.46 1569.56 1054.9 1590.55L1054.73 1590.71C1023.94 1618.14 991.326 1647.2 964.171 1668.02C950.603 1678.42 938.059 1687.03 927.575 1692.34C922.351 1694.99 917.263 1697.02 912.572 1697.92C907.972 1698.8 902.65 1698.8 898.046 1695.93C893.926 1693.35 888.928 1688.5 883.577 1682.63C878.051 1676.58 871.588 1668.81 864.478 1659.82C850.247 1641.81 833.169 1618.57 815.386 1593.53C779.964 1543.67 741.535 1486.43 716.823 1448.72C716.578 1448.45 716.332 1448.17 716.087 1447.9L714.706 1446.37L714.256 1444.36C713.13 1439.33 712.31 1436.3 711.82 1434.99C710.682 1431.96 707.805 1426.66 703.057 1419.41C698.404 1412.3 692.226 1403.72 684.813 1394.24C669.987 1375.27 650.391 1352.91 628.526 1331.76C606.63 1310.59 582.661 1290.83 559.098 1276.89Z" clip-rule="evenodd" class="color032068 svgShape"></path><path fill="#000000" d="M598.45 2390.25C691.915 2427.63 813.938 2392.84 863.267 2370.77L867.161 2421.4C808.746 2449.96 671.664 2477.48 575.084 2421.4 478.504 2365.32 401.136 2024.18 372.577 1856.72 408.925 2018.98 504.985 2352.86 598.45 2390.25zM558.274 1185.1C561.257 1209.1 591.834 1225.1 606.75 1230.1 615.45 1233.85 636.581 1242.1 651.497 1245.1 670.142 1248.85 711.16 1200.1 681.328 1166.35 651.497 1132.6 688.786 1065.1 718.618 1091.35 748.449 1117.6 729.804 1185.1 744.72 1177.6 759.636 1170.1 782.009 1091.35 819.298 1076.35 856.588 1061.35 972.184 1095.1 979.642 1008.85 987.1 922.601 901.335 922.601 841.672 922.601 782.009 922.601 740.991 877.601 632.852 922.601 524.713 967.601 554.545 1155.1 558.274 1185.1z" class="color032068 svgShape"></path><path fill="#000000" d="M789.274 2398.04C683.347 2282.76 543.929 2239.67 489.408 2234.47 501.091 2279.91 555.612 2380.12 602.344 2394.14 676.337 2421.4 754.224 2405.82 789.274 2398.04zM839.9 1930.71C827.438 1915.13 793.168 1654.21 777.59 1525.7L723.069 1447.81C746.436 1615.27 799.399 1952.52 824.323 1961.87 849.247 1971.21 1039.81 1919.03 1131.98 1891.77 1039.81 1911.24 852.362 1946.29 839.9 1930.71zM668.548 1260.88C677.895 1264 701.001 1269.97 711.386 1272.57L695.809 1303.72 668.548 1260.88z" class="color032068 svgShape"></path></svg></g></svg>