<?xml version="1.0" standalone="no"?>
<!DOCTYPE svg PUBLIC "-//W3C//DTD SVG 20010904//EN"
 "http://www.w3.org/TR/2001/REC-SVG-20010904/DTD/svg10.dtd">
<svg version="1.0" xmlns="http://www.w3.org/2000/svg"
 width="1280.000000pt" height="1280.000000pt" viewBox="0 0 1280.000000 1280.000000"
 preserveAspectRatio="xMidYMid meet">
<metadata>
Created by potrace 1.15, written by Peter Selinger 2001-2017
</metadata>
<g transform="translate(0.000000,1280.000000) scale(0.100000,-0.100000)"
fill="#000000" stroke="none">
<path d="M5640 12334 c-195 -84 -336 -568 -385 -1322 l-7 -103 -66 113 c-306
530 -638 911 -845 973 -66 19 -75 19 -141 -6 -69 -27 -116 -76 -145 -154 -81
-216 -63 -706 45 -1215 13 -63 24 -119 24 -123 0 -5 -69 57 -152 136 -469 445
-821 669 -1032 655 -53 -3 -70 -9 -113 -41 -28 -20 -58 -53 -67 -72 -90 -189
19 -630 295 -1204 49 -101 88 -185 87 -187 -2 -1 -50 25 -108 58 -165 94 -471
243 -612 298 -301 117 -526 154 -646 104 -68 -28 -131 -124 -132 -200 -1 -219
264 -663 659 -1102 46 -51 82 -95 80 -97 -2 -2 -72 14 -154 36 -356 93 -623
133 -890 133 -221 1 -290 -11 -375 -62 -58 -35 -104 -122 -102 -195 4 -199
337 -545 874 -908 l162 -109 -125 0 c-641 -1 -1169 -114 -1296 -278 -42 -55
-54 -150 -28 -220 70 -182 542 -455 1107 -639 134 -44 175 -63 133 -63 -9 0
-81 -18 -161 -41 -579 -162 -1021 -387 -1113 -567 -27 -53 -28 -141 -2 -198
80 -175 559 -323 1181 -365 85 -6 172 -13 193 -17 l39 -7 -104 -59 c-278 -158
-567 -367 -737 -531 -125 -121 -192 -207 -227 -293 -29 -71 -30 -96 -2 -167
40 -106 145 -161 351 -184 240 -27 626 6 1019 87 l137 28 -142 -146 c-310
-319 -528 -613 -629 -849 -28 -67 -32 -87 -33 -166 0 -86 1 -92 34 -136 52
-72 97 -93 215 -97 114 -5 206 7 366 49 212 56 463 156 743 295 81 41 147 71
147 68 0 -3 -26 -51 -58 -107 -265 -464 -422 -871 -426 -1107 -1 -114 8 -154
51 -200 72 -81 136 -100 251 -76 240 50 595 274 1000 630 68 59 121 100 118
90 -49 -164 -124 -511 -152 -709 -26 -174 -26 -494 0 -592 25 -101 63 -155
132 -187 66 -31 124 -33 193 -7 208 79 554 446 855 905 l71 109 7 -229 c21
-667 127 -1103 293 -1199 22 -13 66 -26 97 -30 77 -10 145 22 227 105 168 171
385 599 528 1042 21 65 41 118 44 118 3 0 12 -26 18 -58 48 -213 178 -585 282
-801 84 -175 157 -287 238 -364 79 -75 116 -91 201 -83 83 8 129 39 186 124
129 193 237 669 260 1147 4 72 10 135 13 142 4 7 36 -38 75 -105 287 -488 597
-853 801 -943 65 -29 127 -28 195 3 66 30 81 46 115 120 93 204 80 689 -33
1240 l-28 136 135 -130 c432 -416 797 -660 1011 -675 77 -6 115 7 177 61 53
47 73 107 73 225 0 242 -117 609 -338 1060 -42 86 -78 159 -80 163 -2 4 57
-27 130 -68 356 -203 705 -351 943 -399 114 -23 241 -22 297 3 42 18 89 67
118 122 39 71 -4 256 -101 440 -107 202 -325 501 -538 737 -50 57 -89 103 -87
103 3 0 74 -18 158 -39 368 -95 623 -133 883 -135 243 -1 356 25 422 96 33 35
63 108 63 155 1 199 -330 547 -864 908 l-170 115 90 0 c146 0 470 19 609 36
340 41 579 114 686 211 51 46 65 74 74 145 10 79 -23 149 -109 233 -169 166
-584 376 -1026 520 -63 21 -118 41 -123 44 -4 4 57 24 135 45 182 49 450 141
604 206 294 126 481 256 544 380 31 60 21 162 -20 219 -122 168 -588 297
-1230 341 -80 5 -152 10 -160 10 -8 0 44 34 115 76 572 333 965 696 965 891 0
104 -51 183 -144 223 -208 89 -673 77 -1209 -30 -81 -17 -151 -30 -156 -30 -4
0 45 55 111 123 350 360 588 688 665 917 11 33 18 84 18 126 0 64 -3 75 -35
122 -19 28 -52 60 -73 72 -178 101 -679 -26 -1271 -322 -114 -57 -137 -66
-124 -46 49 75 202 363 263 497 141 304 204 510 212 689 7 139 -7 183 -74 242
-73 64 -129 73 -259 40 -234 -58 -633 -320 -1013 -663 -35 -32 -65 -56 -67
-54 -2 2 14 73 36 158 92 356 133 629 134 884 0 289 -40 401 -164 456 -91 41
-168 23 -310 -70 -194 -127 -533 -519 -750 -868 -25 -40 -48 -72 -51 -73 -3 0
-4 13 -1 29 2 16 -1 143 -7 284 -20 471 -77 782 -179 982 -56 110 -107 149
-210 161 -55 6 -68 3 -116 -20 -185 -91 -427 -512 -622 -1084 -28 -84 -54
-155 -56 -157 -2 -3 -22 59 -43 138 -77 288 -202 622 -302 807 -97 180 -207
312 -288 345 -44 19 -130 18 -175 -1z m128 -55 c194 -152 358 -806 454 -1811
l22 -237 -37 -223 c-62 -371 -99 -710 -125 -1123 l-7 -120 -23 90 c-91 357
-217 742 -372 1135 l-69 175 -25 230 c-46 415 -57 586 -63 930 -6 364 3 516
38 688 26 127 62 216 106 262 38 39 56 40 101 4z m144 -68 c153 -169 327 -565
460 -1043 24 -88 42 -174 42 -203 0 -29 -31 -167 -71 -325 -64 -248 -72 -270
-77 -230 -3 25 -15 135 -26 245 -80 782 -219 1354 -387 1588 -46 65 -13 47 59
-32z m-321 21 c-127 -249 -146 -895 -51 -1762 10 -96 18 -176 16 -177 -2 -2
-9 11 -16 29 -7 18 -66 142 -131 275 l-119 242 0 88 c0 127 27 412 56 599 51
336 132 587 226 707 38 47 44 47 19 -1z m1508 -34 c-173 -215 -333 -751 -468
-1567 l-47 -284 -23 134 c-12 74 -38 206 -57 294 -19 88 -34 170 -34 183 0 32
96 318 165 492 147 371 329 677 463 775 26 19 48 35 49 35 2 0 -20 -28 -48
-62z m193 35 c159 -167 153 -845 -17 -1858 l-43 -260 -72 -155 c-150 -323
-258 -592 -381 -950 l-88 -255 -1 220 c0 344 -31 813 -73 1135 -14 105 -9 152
53 535 140 857 336 1460 518 1589 47 33 72 33 104 -1z m139 -128 c98 -204 154
-558 165 -1050 l7 -270 -75 -125 c-41 -69 -110 -191 -154 -272 -43 -81 -79
-146 -80 -145 -1 1 11 81 27 177 141 848 161 1480 55 1740 -22 57 -23 60 -4
43 11 -9 37 -54 59 -98z m-3001 -199 c198 -126 478 -481 744 -945 l75 -130 3
-305 c2 -168 0 -302 -3 -298 -3 4 -21 48 -39 97 -306 838 -637 1452 -870 1618
l-25 18 25 -7 c14 -3 54 -25 90 -48z m-143 23 c24 -12 72 -49 106 -84 197
-199 425 -626 682 -1275 179 -453 186 -474 201 -655 30 -345 95 -779 168
-1127 18 -87 32 -158 30 -158 -1 0 -28 46 -60 103 -160 285 -405 659 -619 947
-120 161 -125 169 -193 340 -297 745 -463 1339 -464 1670 -1 121 9 174 42 228
23 38 46 41 107 11z m-176 -90 c-24 -103 -8 -318 40 -549 52 -253 206 -743
349 -1110 40 -102 75 -194 78 -205 3 -10 -51 48 -120 130 -69 83 -162 189
-205 236 l-79 85 -33 157 c-73 349 -101 590 -101 854 1 201 13 298 50 396 25
67 35 70 21 6z m4495 -12 c-142 -90 -326 -324 -516 -657 -99 -174 -299 -577
-405 -817 -49 -111 -90 -201 -91 -200 -1 1 4 70 11 152 8 83 17 220 21 305 l6
155 105 160 c302 459 608 794 813 889 57 27 89 34 56 13z m159 -47 c31 -54 34
-231 6 -381 -60 -316 -220 -774 -454 -1294 -156 -348 -158 -351 -267 -480
-219 -259 -457 -578 -652 -875 -113 -171 -126 -188 -114 -155 19 50 99 365
136 532 55 250 94 460 129 693 l29 195 87 200 c327 748 613 1250 841 1479 128
128 217 157 259 86z m87 -102 c21 -66 23 -91 22 -278 0 -159 -5 -237 -23 -350
-28 -183 -79 -423 -130 -610 l-40 -145 -88 -85 c-49 -47 -147 -146 -218 -220
-71 -74 -126 -128 -123 -120 4 8 49 110 101 225 228 508 379 932 448 1260 18
85 23 143 24 252 0 79 1 143 2 143 1 0 13 -33 25 -72z m-5840 -429 c232 -50
616 -325 999 -716 l135 -138 29 -115 c16 -63 52 -194 81 -290 29 -96 51 -176
50 -177 -1 -2 -26 32 -56 75 -89 129 -362 489 -474 626 -314 383 -567 619
-761 712 -78 37 -78 39 -3 23z m1 -63 c227 -108 601 -500 1028 -1076 288 -387
308 -419 360 -566 116 -323 246 -627 412 -964 61 -124 113 -229 115 -235 2 -5
-72 65 -164 156 -270 265 -531 495 -817 719 -97 75 -121 102 -216 230 -507
686 -807 1196 -887 1509 -28 108 -30 176 -9 228 15 35 15 35 68 31 28 -3 78
-17 110 -32z m-173 -341 c110 -309 407 -804 807 -1342 45 -62 81 -113 78 -113
-2 0 -46 30 -97 67 -110 79 -389 263 -400 263 -10 0 -107 184 -182 346 -210
458 -312 832 -279 1029 6 36 8 31 24 -60 9 -55 31 -140 49 -190z m7075 201
c-275 -86 -796 -589 -1377 -1326 l-28 -35 27 70 c14 39 61 173 103 299 l77
228 89 80 c300 272 594 487 823 602 97 49 237 96 286 95 l40 0 -40 -13z m145
-45 c5 -11 10 -49 10 -85 0 -245 -319 -780 -864 -1450 -236 -291 -248 -302
-379 -393 -277 -193 -643 -482 -882 -697 -50 -44 -101 -90 -115 -101 l-24 -20
18 28 c156 248 464 859 598 1187 34 84 79 147 282 395 513 628 931 1027 1184
1131 74 30 157 33 172 5z m56 -277 c-42 -255 -215 -668 -443 -1053 l-68 -114
-150 -87 c-82 -47 -197 -115 -255 -151 -58 -36 -112 -69 -120 -74 -8 -5 6 16
31 46 265 314 541 684 711 954 162 255 285 535 289 654 2 33 3 31 12 -17 8
-42 6 -77 -7 -158z m-3637 -9 c17 -82 44 -231 59 -330 28 -172 29 -184 16
-275 -59 -425 -137 -1269 -177 -1925 l-12 -200 -13 625 c-7 344 -15 663 -18
710 -2 47 -11 218 -20 380 -8 162 -19 344 -24 404 -9 105 -8 116 26 270 31
143 106 448 119 485 3 8 7 12 9 10 3 -2 18 -71 35 -154z m-1092 -155 c162
-333 189 -402 207 -540 60 -448 170 -1094 286 -1684 69 -347 84 -444 45 -293
-94 370 -361 1257 -516 1712 -117 346 -115 333 -124 730 -7 317 -14 312 102
75z m2199 -7 c-4 -76 -16 -227 -27 -336 l-20 -199 -94 -231 c-175 -432 -359
-933 -566 -1537 -59 -173 -108 -312 -108 -308 -1 4 26 112 60 240 140 537 260
1051 364 1559 l72 356 90 174 c90 176 225 418 232 419 2 0 1 -62 -3 -137z
m-3149 -480 c195 -231 192 -227 306 -494 190 -446 392 -883 671 -1453 86 -176
154 -318 151 -315 -3 3 -77 128 -165 277 -287 488 -590 972 -863 1382 -144
215 -153 231 -189 345 -43 133 -132 441 -143 495 -7 35 -7 35 51 -29 33 -36
114 -129 181 -208z m-2307 123 c231 -60 516 -183 830 -358 227 -128 217 -118
302 -269 42 -74 113 -192 157 -263 45 -71 81 -130 81 -133 0 -2 -39 30 -87 70
-374 313 -792 615 -1078 778 -196 112 -395 189 -490 189 -31 0 -37 3 -25 11
24 17 204 2 310 -25z m6495 -78 c-39 -119 -175 -488 -191 -521 -8 -15 -106
-150 -218 -300 -300 -403 -556 -767 -881 -1252 -187 -280 -219 -325 -176 -250
302 526 571 1024 824 1525 204 404 211 417 290 505 108 121 370 386 375 380 2
-2 -8 -41 -23 -87z m-6630 21 c299 -99 788 -424 1405 -934 166 -137 185 -156
252 -254 185 -270 505 -675 726 -918 56 -62 102 -115 102 -117 0 -3 -28 11
-62 32 -279 170 -738 402 -1099 556 -114 49 -154 72 -241 140 -347 272 -634
521 -869 755 -336 336 -495 566 -487 705 3 48 5 52 38 63 48 17 126 8 235 -28z
m-244 -247 c139 -251 603 -717 1146 -1152 79 -62 141 -115 139 -117 -2 -2 -43
12 -92 30 -49 19 -179 64 -289 101 l-200 67 -117 132 c-237 267 -437 541 -547
747 -58 111 -111 262 -111 316 l1 39 19 -53 c11 -30 33 -79 51 -110z m4528
-207 c27 -497 32 -726 38 -1525 3 -465 3 -843 0 -840 -3 3 -10 61 -17 130 -28
304 -81 651 -152 990 l-40 195 11 220 c22 417 73 881 132 1193 4 17 18 -169
28 -363z m335 105 c27 -298 36 -503 36 -848 l0 -332 -50 -188 c-83 -307 -154
-641 -204 -957 -29 -182 -30 -172 -11 197 44 843 106 1624 175 2195 11 89 20
167 21 175 3 32 18 -82 33 -242z m-886 -30 c119 -319 225 -662 311 -1007 29
-115 31 -133 31 -315 0 -317 29 -811 65 -1099 9 -79 -4 -27 -60 236 -171 794
-321 1604 -409 2206 -26 176 -29 206 -22 198 2 -2 40 -101 84 -219z m5267 211
c24 -5 15 -9 -50 -18 -292 -42 -795 -317 -1460 -798 -103 -74 -189 -135 -191
-135 -3 0 15 28 40 63 25 34 103 149 173 255 l128 194 210 103 c508 250 953
380 1150 336z m-3836 -226 c-72 -352 -170 -777 -283 -1230 -115 -458 -318
-1217 -324 -1211 -2 2 8 73 22 157 55 335 84 616 110 1084 7 125 237 785 411
1180 31 72 66 150 76 174 11 24 21 42 23 40 2 -2 -14 -89 -35 -194z m3920 164
c53 -19 54 -76 2 -184 -125 -264 -624 -716 -1366 -1240 -125 -88 -154 -104
-270 -146 -323 -115 -624 -244 -964 -410 l-245 -119 160 162 c266 272 471 504
698 790 103 132 116 143 275 261 855 636 1488 963 1710 886z m-5686 -214 c164
-500 319 -1015 466 -1550 92 -335 221 -827 221 -841 -1 -5 -29 65 -64 156
-102 266 -190 467 -333 760 -119 243 -138 289 -163 395 -72 301 -151 770 -185
1090 -8 83 -17 163 -20 180 -12 68 16 -1 78 -190z m2097 -13 c-35 -219 -97
-518 -160 -772 -99 -392 -119 -453 -198 -586 -150 -257 -354 -654 -463 -902
-29 -68 -55 -119 -57 -114 -4 13 367 1125 486 1457 177 492 404 1082 410 1065
2 -6 -6 -72 -18 -148z m3657 53 c-28 -204 -326 -624 -719 -1012 l-123 -122
-205 -57 c-113 -30 -245 -69 -295 -84 -49 -16 -90 -28 -92 -26 -2 1 32 27 75
56 125 88 427 316 562 424 429 345 716 650 781 830 18 49 23 45 16 -9z m-6200
-330 c167 -240 354 -542 497 -802 58 -106 73 -144 112 -290 97 -362 247 -814
343 -1037 12 -27 20 -51 17 -53 -5 -5 -609 1201 -726 1452 -189 405 -450 992
-450 1012 0 8 92 -117 207 -282z m-1377 46 c227 -159 239 -170 370 -338 323
-413 675 -836 1090 -1307 96 -110 191 -218 210 -240 19 -23 -81 72 -221 209
-481 472 -945 903 -1324 1229 -55 48 -100 99 -144 164 -72 108 -291 471 -291
484 0 9 130 -75 310 -201z m4451 23 c-249 -505 -664 -1266 -1071 -1964 -167
-286 -220 -370 -166 -263 100 200 288 677 391 993 32 96 69 195 83 220 77 135
302 470 465 690 114 154 350 451 354 446 2 -2 -23 -57 -56 -122z m-3348 -279
c366 -564 783 -1259 1179 -1965 l19 -35 -20 25 c-11 14 -66 88 -122 165 -178
245 -394 509 -597 732 -81 89 -103 123 -178 265 -164 314 -317 650 -449 990
-30 78 -55 147 -55 153 0 12 47 -58 223 -330z m4785 133 c-53 -79 -138 -201
-189 -272 -91 -125 -99 -133 -274 -269 -403 -315 -865 -700 -1309 -1092 -88
-77 -180 -158 -205 -180 -25 -22 89 100 255 270 491 506 776 813 1083 1165
159 181 164 186 294 269 171 110 429 262 435 256 3 -2 -38 -69 -90 -147z
m-1198 -134 c-213 -461 -513 -1000 -607 -1087 -155 -144 -554 -583 -737 -812
-98 -122 -119 -145 -91 -100 150 241 590 906 810 1225 278 405 713 1005 722
996 2 -2 -42 -102 -97 -222z m-3990 -287 c184 -158 441 -400 596 -560 119
-124 152 -165 200 -250 154 -273 375 -616 557 -865 53 -73 95 -132 93 -132
-10 0 -555 608 -847 945 -310 358 -919 1100 -919 1120 0 8 168 -128 320 -258z
m4499 41 c-271 -304 -520 -576 -708 -773 -284 -297 -847 -868 -971 -985 l-143
-135 102 125 c166 202 362 468 529 718 155 233 156 234 301 367 255 232 491
427 746 615 77 57 154 114 170 126 56 43 47 24 -26 -58z m-7057 3 c177 -29
431 -84 592 -130 l137 -38 197 -193 c108 -107 208 -204 222 -217 23 -22 20
-22 -45 7 -257 116 -366 163 -570 245 -283 114 -518 194 -718 244 -193 49
-306 64 -442 59 -100 -3 -105 -3 -74 10 85 35 151 42 364 38 146 -3 248 -11
337 -25z m2287 -265 c216 -193 542 -498 756 -705 281 -272 915 -905 915 -913
0 -4 -51 34 -112 85 -242 198 -492 381 -778 570 -147 96 -188 129 -256 203
-225 247 -385 436 -550 649 -119 154 -264 352 -264 361 0 7 73 -56 289 -250z
m-2738 199 c291 -38 737 -186 1289 -428 385 -168 440 -197 547 -290 235 -201
537 -429 838 -629 116 -77 214 -143 218 -147 4 -4 -70 14 -165 40 -326 89
-725 170 -1090 223 -163 24 -170 26 -340 99 -554 239 -1031 489 -1308 685
-112 79 -279 240 -308 297 -18 36 -26 72 -23 100 2 18 59 46 109 55 71 12 117
11 233 -5z m7718 -207 c-226 -278 -568 -650 -775 -842 -118 -108 -149 -131
-299 -216 -215 -122 -477 -291 -706 -455 -100 -71 -191 -137 -203 -145 -86
-59 805 733 1204 1070 347 294 851 702 859 695 1 -2 -34 -50 -80 -107z m-6144
-25 c320 -116 306 -108 543 -286 405 -304 778 -568 1282 -905 184 -123 337
-227 340 -230 3 -3 -13 5 -35 18 -469 271 -1060 591 -1549 836 l-409 206 -101
91 c-55 50 -166 155 -246 234 l-145 142 70 -20 c39 -12 151 -50 250 -86z
m-1822 -65 c175 -176 505 -383 972 -612 180 -89 528 -248 589 -270 36 -13 10
-13 -120 0 -73 7 -210 17 -306 21 l-174 9 -107 68 c-265 169 -494 346 -675
520 -143 140 -215 227 -262 320 -38 76 -39 104 -1 44 16 -25 54 -70 84 -100z
m10581 97 c86 -15 162 -39 181 -58 7 -7 3 -7 -10 -2 -11 4 -72 10 -135 13
-307 12 -832 -123 -1568 -404 -106 -41 -195 -74 -198 -74 -3 0 39 37 93 82 54
45 159 136 234 203 l135 121 155 32 c360 75 564 99 835 101 130 1 219 -4 278
-14z m198 -113 c26 -13 50 -32 53 -42 18 -56 -94 -194 -241 -301 -282 -203
-879 -483 -1509 -706 -131 -47 -150 -51 -295 -62 -197 -15 -494 -53 -725 -92
-179 -30 -507 -94 -535 -105 -34 -12 12 17 165 106 310 180 666 416 924 613
118 89 115 88 411 202 537 207 941 331 1270 390 110 20 163 24 285 22 134 -2
155 -4 197 -25z m-1605 -80 c-73 -69 -255 -224 -367 -314 -89 -71 -111 -83
-330 -176 -466 -199 -896 -397 -1467 -677 -183 -90 -333 -162 -333 -160 0 2
30 20 68 41 347 193 1242 748 1672 1038 l166 112 184 57 c193 59 426 125 447
126 6 1 -12 -21 -40 -47z m-6702 -102 c320 -145 671 -328 968 -506 135 -82
151 -95 337 -278 227 -224 347 -334 556 -506 82 -69 168 -140 190 -158 91 -75
-837 533 -1272 834 -303 209 -896 636 -938 675 -20 18 9 7 159 -61z m2710
-405 c64 -414 94 -740 100 -1110 l5 -270 -20 85 c-87 384 -156 1005 -165 1485
l-4 250 29 -140 c16 -77 41 -212 55 -300z m5636 368 c-110 -206 -483 -509
-966 -784 l-129 -74 -311 -5 c-170 -3 -311 -4 -313 -4 -1 1 26 12 60 24 130
48 537 210 649 258 506 222 875 445 995 602 21 27 40 48 42 45 2 -2 -10 -30
-27 -62z m-5201 -94 c-39 -518 -110 -972 -231 -1474 -44 -180 -61 -223 -53
-134 39 481 55 621 104 911 50 294 174 857 187 845 2 -3 -1 -69 -7 -148z
m-830 -374 c156 -351 293 -725 396 -1080 30 -104 57 -196 59 -202 3 -7 2 -13
-1 -13 -20 0 -274 574 -384 865 -98 260 -273 807 -269 842 1 12 119 -231 199
-412z m3615 396 c-40 -36 -603 -397 -960 -616 -383 -234 -1344 -795 -1362
-795 -3 0 55 43 128 96 274 197 491 371 757 608 125 112 160 137 284 203 259
139 633 310 973 444 171 68 197 77 180 60z m-2331 -197 c-134 -378 -269 -695
-450 -1054 -115 -228 -233 -444 -239 -438 -6 6 119 357 190 533 37 94 104 249
147 345 119 263 398 800 406 781 1 -4 -23 -79 -54 -167z m-3721 -10 c530 -265
1136 -597 1842 -1007 171 -99 315 -184 320 -189 12 -11 -16 0 -185 77 -210 95
-512 212 -780 302 -245 83 -260 89 -390 171 -195 123 -420 277 -620 427 -179
135 -417 325 -406 325 3 0 102 -48 219 -106z m1898 -159 c351 -410 727 -938
933 -1310 l27 -50 -41 45 c-296 325 -692 861 -941 1277 -45 76 -89 149 -98
163 l-14 25 20 -20 c11 -11 63 -69 114 -130z m4319 81 c0 -8 -239 -178 -410
-293 -193 -128 -435 -276 -642 -392 -136 -76 -161 -85 -314 -126 -315 -84
-671 -199 -938 -304 -72 -28 -131 -49 -133 -48 -5 6 708 368 1044 530 480 233
945 447 1328 611 68 28 65 28 65 22z m-2086 -158 c-201 -295 -434 -596 -667
-861 -142 -162 -403 -432 -388 -402 41 86 389 558 586 795 195 234 535 605
558 609 5 0 -35 -63 -89 -141z m-5391 -221 c78 -46 199 -114 270 -151 70 -37
127 -69 127 -70 0 -2 -48 5 -107 16 -892 154 -1596 177 -1835 59 -53 -26 -47
-12 10 25 133 87 401 154 732 184 179 16 191 16 433 18 l227 2 143 -83z m137
68 c68 -4 203 -15 300 -24 l176 -19 290 -115 c476 -190 851 -328 1449 -533
198 -68 356 -123 352 -123 -4 -1 -128 30 -275 69 -530 138 -1148 282 -1642
380 l-255 51 -150 78 c-168 87 -389 211 -420 236 -19 15 -18 15 15 11 19 -3
91 -8 160 -11z m2718 -128 c408 -283 784 -591 1087 -890 l140 -139 -160 107
c-389 262 -800 596 -1132 921 -151 148 -147 149 65 1z m-1803 18 c324 -55 667
-134 990 -226 128 -37 156 -50 335 -152 237 -135 619 -329 832 -422 87 -38
156 -70 155 -72 -4 -3 -651 208 -1017 332 -375 127 -908 321 -1253 456 -286
111 -337 134 -282 125 17 -3 125 -21 240 -41z m4773 2 c-15 -12 -93 -79 -175
-148 -401 -340 -790 -614 -1285 -906 -55 -32 224 210 417 362 272 214 577 426
885 614 161 98 212 123 158 78z m-6348 -92 c327 -32 981 -131 1060 -160 19 -7
105 -45 190 -85 301 -140 594 -256 950 -375 l214 -72 -364 -6 c-372 -6 -599
-20 -910 -58 -198 -24 -201 -24 -520 27 -748 118 -1296 266 -1558 422 -83 49
-162 131 -162 167 0 68 139 128 360 155 107 13 545 4 740 -15z m9070 -30 c0
-8 -311 -161 -465 -230 l-140 -62 -265 -37 c-478 -67 -1147 -184 -1715 -300
-121 -25 -221 -44 -222 -42 -2 1 59 20 134 40 545 148 1103 316 1620 487 l391
130 189 8 c229 10 473 13 473 6z m381 -16 c516 -40 916 -137 1089 -264 56 -41
62 -57 9 -26 -52 30 -198 69 -333 88 -97 14 -191 18 -476 17 -360 0 -538 -10
-945 -54 -99 -10 -181 -18 -182 -16 -1 1 73 37 165 79 92 43 212 102 267 132
99 54 101 54 186 55 47 0 146 -5 220 -11z m-1466 -100 c-392 -131 -863 -274
-1375 -418 -311 -87 -973 -262 -982 -259 -5 2 52 25 124 52 223 82 519 212
798 348 295 144 306 148 710 227 313 61 791 128 915 129 44 1 19 -9 -190 -79z
m-6472 -98 c387 -82 740 -164 1210 -282 418 -105 1128 -296 1137 -306 3 -3 -8
-3 -25 1 -244 49 -734 106 -1096 126 l-186 10 -204 65 c-332 104 -694 242
-998 379 -118 53 -143 66 -127 66 3 0 133 -27 289 -59z m-2368 -147 c282 -136
792 -267 1434 -370 118 -18 215 -35 217 -37 2 -2 -56 -13 -129 -26 -73 -12
-208 -38 -301 -58 l-169 -36 -203 67 c-520 175 -942 401 -1062 569 l-33 47 68
-52 c37 -28 118 -75 178 -104z m4309 -51 c247 -99 520 -223 726 -330 193 -100
401 -215 396 -220 -11 -12 -568 200 -821 312 -262 116 -811 397 -848 434 -14
14 341 -113 547 -196z m6791 153 c222 -36 375 -106 375 -173 0 -13 -17 -42
-39 -66 -171 -185 -760 -333 -1721 -433 -256 -27 -355 -24 -570 13 -320 56
-715 100 -1075 119 -85 5 -121 10 -105 15 14 4 93 26 177 48 333 90 745 228
1053 353 l135 55 235 26 c210 24 507 50 675 61 33 2 218 2 410 1 264 -2 375
-7 450 -19z m-3639 -68 c-11 -6 -103 -50 -205 -98 -327 -153 -616 -270 -940
-381 -152 -52 -553 -171 -558 -165 -5 5 339 168 497 236 313 135 722 281 1060
379 141 41 179 49 146 29z m1600 -68 c-296 -118 -713 -251 -1063 -341 l-193
-49 -182 0 c-317 0 -826 -29 -1062 -61 -43 -6 -80 -9 -82 -6 -4 4 545 122 921
197 574 116 1624 296 1735 298 14 1 -19 -17 -74 -38z m2384 -169 c-120 -170
-621 -400 -1184 -544 l-129 -33 -121 34 c-67 19 -202 54 -301 77 -99 24 -174
44 -167 44 55 3 523 57 667 77 597 84 1043 211 1209 343 48 39 53 39 26 2z
m-7955 -161 c132 -39 470 -121 665 -160 177 -36 494 -90 529 -90 8 0 12 -2 9
-5 -11 -11 -996 47 -1538 91 -459 36 -1186 112 -1176 122 8 8 359 40 556 51
280 16 335 18 625 15 229 -3 268 -6 330 -24z m525 -21 c409 -41 829 -113 1205
-207 223 -55 213 -61 -69 -37 -475 40 -1008 130 -1421 240 l-130 35 110 -6
c61 -3 198 -14 305 -25z m-1982 -68 c456 -57 1045 -111 1572 -146 135 -9 290
-19 345 -23 69 -5 -57 -10 -405 -15 -629 -9 -1275 -34 -1650 -66 -89 -7 -106
-5 -265 30 -173 38 -336 78 -435 106 -48 14 -52 17 -32 24 30 11 356 74 507
98 66 10 121 19 123 20 1 1 109 -12 240 -28z m5477 -32 c-457 -98 -1128 -170
-1560 -168 l-170 1 85 19 c432 94 1099 165 1570 167 l165 0 -90 -19z m775 -5
c286 -20 655 -65 880 -106 l65 -12 -80 -7 c-98 -9 -420 -26 -735 -40 -129 -5
-615 -12 -1080 -14 -750 -3 -832 -2 -730 10 63 7 178 21 255 30 261 31 887
143 905 162 7 7 261 -4 520 -23z m-7200 -85 c19 -6 157 -41 305 -79 149 -38
260 -69 248 -69 -41 -2 -408 -41 -563 -62 -648 -84 -1121 -212 -1303 -352 -26
-20 -47 -33 -47 -29 0 16 126 130 189 170 209 136 584 284 986 391 83 22 150
40 150 40 0 1 16 -4 35 -10z m8458 -95 c182 -39 468 -111 490 -123 16 -9 -170
-49 -444 -95 l-201 -34 -224 28 c-463 59 -1150 121 -1744 158 l-280 18 460 7
c722 12 1468 44 1763 76 8 0 89 -15 180 -35z m-4878 -11 c-445 -44 -798 -97
-1144 -173 l-133 -29 -204 9 c-371 18 -689 50 -1049 106 -91 14 -166 27 -168
28 -9 10 574 41 1003 55 240 8 1767 11 1695 4z m747 -9 c-25 -25 -636 -121
-972 -153 -272 -26 -868 -52 -854 -38 3 4 92 22 198 42 432 79 879 130 1273
144 299 11 362 12 355 5z m648 -30 c452 -37 981 -128 1420 -243 125 -33 119
-35 -61 -21 -356 28 -713 75 -1028 136 -201 39 -596 132 -609 144 -9 8 -2 7
278 -16z m1040 -35 c740 -40 1525 -107 2065 -176 l55 -7 -40 -7 c-59 -10 -365
-37 -555 -49 -91 -5 -318 -10 -506 -10 l-341 0 -179 49 c-293 80 -604 145
-1024 216 l-85 14 125 -5 c69 -3 287 -14 485 -25z m-1838 -64 c-292 -145 -672
-300 -1022 -416 -191 -64 -517 -161 -522 -155 -5 4 181 95 376 183 353 159
773 314 1146 422 94 27 175 49 180 49 6 0 -66 -37 -158 -83z m-3292 40 c277
-49 643 -94 925 -114 80 -6 190 -13 245 -17 l100 -7 -50 -14 c-534 -148 -939
-281 -1239 -410 -88 -37 -146 -47 -496 -82 -374 -38 -517 -45 -860 -46 -369 0
-483 9 -645 50 -107 27 -178 61 -220 104 l-29 32 19 36 c114 211 806 384 1970
492 101 9 89 10 280 -24z m3957 -21 c190 -66 513 -195 713 -285 244 -109 793
-394 782 -405 -5 -5 -198 61 -387 133 -325 123 -697 291 -978 442 -182 97
-311 171 -300 171 4 0 80 -25 170 -56z m-499 -1 c-404 -355 -855 -688 -1278
-945 -182 -110 -201 -119 -145 -68 211 194 624 514 915 710 179 120 513 328
530 329 5 1 -5 -11 -22 -26z m772 -308 c184 -137 343 -267 540 -440 147 -130
432 -402 407 -390 -36 18 -329 224 -477 335 -310 233 -643 519 -845 726 l-95
97 160 -108 c88 -59 228 -158 310 -220z m-806 163 c-174 -259 -385 -537 -597
-783 -112 -131 -371 -412 -438 -475 -43 -41 -37 -29 61 114 185 275 389 541
608 796 112 130 440 480 446 475 1 -2 -34 -59 -80 -127z m434 -14 c338 -396
727 -943 916 -1289 l33 -60 -37 40 c-332 365 -801 1013 -1015 1400 -39 72 -29
63 103 -91z m4478 85 c522 -172 935 -389 1081 -565 47 -57 49 -72 4 -30 -191
174 -759 349 -1561 480 -121 20 -240 40 -265 44 -40 6 -28 10 140 40 102 19
230 44 285 57 55 12 114 23 131 24 17 0 101 -22 185 -50z m-4836 -117 c-112
-330 -262 -686 -438 -1037 -97 -195 -240 -460 -259 -480 -11 -12 78 242 151
435 85 221 177 431 292 668 98 202 295 572 304 572 2 0 -20 -71 -50 -158z
m295 -61 c155 -330 281 -643 389 -968 63 -186 163 -525 157 -530 -5 -6 -174
352 -252 534 -141 331 -288 748 -369 1048 -15 55 -30 106 -33 115 -3 10 -2 12
6 5 6 -5 52 -97 102 -204z m-1065 194 c-21 -9 -643 -139 -975 -205 -566 -113
-1013 -190 -1655 -286 -54 -8 -44 -2 50 36 293 117 719 253 1084 346 190 49
221 54 280 49 138 -13 861 22 1101 54 69 9 132 12 115 6z m855 -189 c-33 -460
-116 -967 -230 -1419 -54 -217 -58 -210 -35 63 42 478 111 902 223 1359 26
107 49 186 51 176 2 -10 -2 -91 -9 -179z m82 92 c53 -261 106 -628 133 -938
25 -285 44 -792 29 -778 -19 19 -113 617 -143 908 -32 309 -63 925 -46 908 4
-4 16 -49 27 -100z m1000 27 c308 -50 642 -85 978 -104 162 -9 168 -10 345
-66 248 -78 454 -152 695 -250 215 -86 463 -195 458 -201 -9 -8 -704 144
-1151 251 -431 104 -1472 378 -1486 391 -7 6 0 5 161 -21z m-1962 0 c-19 -7
-107 -42 -195 -76 -240 -93 -453 -188 -721 -320 -200 -99 -259 -123 -345 -143
-173 -41 -385 -83 -575 -115 -271 -46 -738 -103 -724 -88 9 9 489 166 790 258
490 150 885 261 1645 463 137 36 184 44 125 21z m2115 -135 c516 -165 1114
-373 1615 -560 229 -85 622 -241 618 -245 -2 -2 -104 14 -228 35 -358 61 -662
130 -1005 227 -153 43 -169 50 -355 156 -246 140 -545 293 -770 394 -197 89
-232 105 -210 100 8 -2 159 -50 335 -107z m2930 56 c871 -140 1465 -318 1646
-495 32 -31 61 -69 65 -85 6 -26 2 -34 -31 -63 -184 -159 -907 -145 -1951 37
-162 28 -177 33 -305 94 -307 147 -679 294 -1047 416 l-173 57 343 6 c189 3
431 13 538 22 208 16 469 43 485 50 27 12 223 -6 430 -39z m-5945 -112 c-478
-132 -1009 -294 -1449 -440 l-404 -134 -296 -9 c-163 -6 -311 -7 -330 -3 -32
7 -24 12 175 108 379 184 363 178 654 219 485 68 1272 206 1730 304 102 21
194 39 205 39 11 1 -117 -37 -285 -84z m1004 36 c-17 -17 -1131 -572 -1424
-710 -423 -198 -1020 -464 -1027 -456 -5 4 243 180 427 303 201 134 403 257
615 376 150 84 170 92 325 134 322 86 711 212 960 312 138 55 138 55 124 41z
m2453 -69 c509 -138 1274 -316 1800 -421 l242 -48 167 -87 c166 -86 360 -194
399 -223 18 -12 4 -13 -120 -8 -77 4 -227 16 -334 26 l-193 20 -272 109 c-467
188 -1054 402 -1616 591 -118 39 -217 74 -220 77 -3 3 4 3 15 0 11 -4 70 -20
132 -36z m-2437 11 c-256 -175 -659 -498 -924 -740 -85 -78 -100 -87 -390
-231 -165 -83 -381 -185 -479 -227 -207 -88 -509 -206 -514 -200 -2 2 112 79
254 171 511 333 1079 678 1713 1041 328 188 405 230 340 186z m1648 -6 c187
-95 626 -268 956 -378 196 -65 216 -74 345 -155 184 -116 414 -273 585 -401
161 -120 422 -327 431 -343 14 -22 -611 300 -1083 558 -380 207 -1257 708
-1286 735 -18 15 4 8 52 -16z m585 -463 c394 -260 733 -492 977 -666 244 -175
590 -431 586 -434 -13 -13 -587 267 -857 417 -384 215 -392 220 -624 449 -223
220 -380 361 -589 531 -71 58 -141 115 -155 128 -39 35 219 -131 662 -425z
m-2148 300 c-605 -558 -1631 -1435 -2000 -1708 l-40 -30 35 45 c168 219 412
492 692 775 193 196 240 238 310 279 388 226 690 421 923 595 66 49 122 89
125 90 3 0 -17 -21 -45 -46z m68 -16 c-10 -13 -79 -100 -154 -193 -169 -210
-324 -423 -487 -669 -132 -199 -145 -214 -377 -421 -217 -194 -625 -519 -810
-644 l-50 -34 23 29 c49 62 428 480 658 725 213 227 1201 1230 1211 1230 3 0
-4 -11 -14 -23z m1484 -139 c219 -176 395 -305 663 -483 207 -138 219 -148
331 -272 252 -277 481 -556 665 -809 55 -77 104 -146 109 -154 18 -29 -391
336 -697 623 -389 365 -1323 1288 -1262 1246 12 -8 98 -76 191 -151z m-55 -80
c379 -417 692 -776 1022 -1171 206 -247 566 -694 566 -703 0 -11 -281 223
-470 391 -208 185 -583 562 -615 620 -168 300 -431 710 -604 943 -50 67 -89
122 -87 122 2 0 87 -91 188 -202z m-6599 148 c38 -25 167 -63 267 -80 313 -52
864 -43 1474 24 99 11 186 20 195 20 9 0 -22 -18 -69 -39 -47 -21 -173 -82
-280 -136 l-195 -98 -140 7 c-589 29 -1082 141 -1255 286 -37 31 -35 40 3 16z
m4447 -17 c-8 -5 -134 -80 -280 -166 -515 -303 -968 -586 -1415 -883 l-220
-146 -185 -57 c-216 -66 -442 -129 -447 -123 -5 5 252 229 398 346 108 87 129
100 261 154 392 161 1055 467 1578 728 294 146 348 171 310 147z m837 -71
c-19 -29 -71 -111 -117 -183 -138 -215 -518 -787 -665 -1000 -268 -389 -725
-1020 -725 -1001 0 15 103 241 201 441 113 231 210 411 351 650 99 168 102
172 278 350 253 257 498 532 669 753 45 58 49 53 8 -10z m47 -55 c-127 -272
-271 -641 -375 -958 -39 -117 -74 -203 -102 -250 -87 -146 -319 -487 -452
-665 -133 -178 -333 -430 -341 -430 -13 0 338 682 559 1085 214 393 742 1315
753 1315 1 0 -18 -44 -42 -97z m987 25 c160 -232 453 -598 675 -844 108 -120
111 -125 231 -360 67 -132 155 -314 197 -406 71 -157 244 -582 260 -638 9 -29
-130 176 -312 459 -279 436 -601 972 -932 1551 -89 157 -164 288 -167 293 -2
4 -2 7 0 7 2 0 24 -28 48 -62z m283 -708 c216 -434 358 -730 521 -1090 128
-280 276 -622 272 -627 -4 -4 -211 288 -314 442 -226 340 -451 736 -477 840
-67 274 -232 789 -336 1050 -27 70 -50 130 -50 134 1 10 172 -324 384 -749z
m726 633 c502 -287 925 -514 1423 -764 l379 -190 101 -92 c147 -134 378 -359
373 -365 -7 -6 -229 69 -443 149 l-183 69 -217 163 c-405 303 -775 565 -1283
905 -184 124 -337 227 -340 230 -7 7 -9 8 190 -105z m-3770 45 c-387 -222
-772 -474 -1087 -714 -69 -53 -110 -73 -265 -134 -646 -255 -1156 -408 -1501
-450 -54 -7 -147 -11 -206 -8 -91 4 -117 9 -158 29 -26 14 -50 33 -51 43 -8
40 32 111 102 181 223 223 732 482 1541 786 l220 82 195 19 c386 36 773 94
1090 162 85 19 160 34 165 35 6 0 -15 -14 -45 -31z m1871 -314 c-256 -791
-490 -1449 -727 -2048 -42 -108 -79 -194 -81 -192 -5 5 60 384 97 561 44 210
100 441 161 656 46 166 58 195 119 299 160 271 366 674 475 927 27 62 50 111
52 109 2 -2 -41 -143 -96 -312z m140 195 c-48 -269 -91 -660 -111 -1008 -12
-205 -19 -234 -156 -631 -94 -276 -348 -899 -361 -886 -9 9 138 685 253 1161
110 459 383 1490 391 1481 2 -2 -5 -55 -16 -117z m184 -200 c-41 -804 -102
-1585 -170 -2176 -14 -117 -25 -221 -26 -230 0 -16 -2 -15 -9 2 -9 22 -33 269
-51 535 -6 91 -12 325 -13 520 l-1 355 47 170 c93 336 186 783 223 1073 14
109 14 38 0 -249z m315 1 c74 -346 186 -905 235 -1170 81 -441 201 -1188 192
-1197 -6 -6 -118 291 -186 496 -70 206 -153 491 -206 702 l-37 144 -3 290 c-5
326 -17 550 -46 832 -10 106 -19 196 -18 200 1 17 11 -22 69 -297z m50 156
c103 -275 282 -679 410 -921 50 -95 63 -131 94 -265 85 -371 169 -901 191
-1190 l5 -75 -75 220 c-162 473 -389 1240 -585 1979 -123 469 -125 479 -40
252z m-260 -211 c29 -238 72 -494 123 -745 l44 -215 -8 -195 c-11 -250 -34
-524 -64 -765 -26 -206 -67 -467 -72 -461 -5 5 -32 459 -38 661 -4 105 -9 204
-11 220 -3 17 -7 440 -9 940 -2 574 0 877 5 820 5 -49 19 -166 30 -260z m2614
156 c225 -52 493 -103 741 -140 l200 -29 210 -92 c116 -50 359 -165 540 -255
463 -230 729 -395 901 -558 101 -95 147 -164 148 -220 1 -36 -3 -43 -34 -61
-44 -26 -210 -34 -333 -16 -319 46 -909 257 -1532 547 -166 78 -173 82 -335
217 -225 188 -512 403 -770 575 -118 79 -219 147 -223 150 -4 4 65 -12 153
-35 89 -24 239 -61 334 -83z m1331 89 c857 -142 1492 -162 1758 -55 69 28 60
9 -19 -35 -99 -57 -265 -106 -475 -139 -189 -30 -329 -41 -619 -48 l-265 -6
-150 88 c-83 48 -205 117 -272 152 -68 36 -123 67 -123 69 0 2 10 2 23 -1 12
-2 76 -14 142 -25z m-7786 -64 c-2 -3 -103 -42 -224 -89 -785 -301 -1334 -600
-1487 -811 -40 -56 -35 -22 10 54 23 42 82 110 162 190 182 184 434 367 770
561 l145 84 280 5 c154 3 295 7 314 8 19 1 32 0 30 -2z m2395 -288 c-392 -397
-755 -787 -1091 -1170 -161 -183 -166 -188 -301 -276 -151 -98 -432 -265 -438
-260 -5 5 215 332 306 454 65 89 95 117 220 215 317 247 605 482 940 768 259
221 597 517 605 531 3 5 11 10 17 10 6 0 -110 -123 -258 -272z m3156 -438
c262 -249 551 -512 769 -702 182 -158 190 -167 269 -288 84 -131 259 -421 269
-448 7 -17 -368 234 -486 325 -56 43 -107 99 -200 219 -298 383 -673 833
-1059 1273 -289 328 -289 329 -6 51 142 -140 342 -334 444 -430z m2171 500
c64 -6 185 -13 268 -17 l153 -6 116 -75 c455 -290 821 -620 931 -837 39 -76
40 -103 2 -44 -144 225 -697 567 -1471 909 -102 45 -187 84 -190 86 -2 3 14 2
35 -1 22 -3 92 -10 156 -15z m-4744 -53 c-26 -40 -221 -386 -365 -647 -214
-389 -348 -644 -523 -996 -180 -361 -154 -324 -451 -636 -88 -93 -164 -168
-168 -168 -10 0 93 306 168 502 48 125 51 130 264 415 311 417 593 820 933
1331 82 122 150 222 153 222 2 0 -2 -10 -11 -23z m1748 -337 c285 -484 587
-967 862 -1378 135 -202 145 -220 182 -336 39 -118 132 -440 145 -501 l6 -30
-32 36 c-87 96 -281 324 -344 404 -58 74 -81 115 -127 225 -186 449 -478 1082
-748 1622 -71 142 -129 261 -129 265 0 5 6 -1 12 -12 6 -11 84 -144 173 -295z
m-3018 113 c-263 -266 -481 -514 -710 -806 -90 -115 -79 -106 -327 -287 -420
-306 -781 -535 -1065 -675 -268 -133 -457 -185 -555 -154 -42 13 -45 17 -48
52 -13 157 239 461 703 847 124 103 551 425 725 547 99 69 135 87 260 133 344
124 683 271 1005 433 105 53 192 96 194 96 2 1 -80 -83 -182 -186z m4010 31
c267 -159 683 -372 973 -498 96 -42 194 -85 217 -96 79 -36 577 -446 859 -708
387 -358 633 -683 634 -837 0 -61 -10 -69 -88 -73 -234 -13 -704 255 -1362
777 -292 231 -417 341 -456 399 -177 268 -513 696 -763 970 -56 61 -100 112
-97 112 2 0 40 -21 83 -46z m-2406 -130 c-141 -526 -316 -1274 -421 -1809
l-41 -210 -101 -190 c-95 -181 -216 -395 -223 -395 -6 0 22 395 40 551 14 122
18 134 111 365 181 450 389 1017 580 1581 49 144 90 260 92 258 2 -1 -15 -70
-37 -151z m1014 -429 c145 -509 226 -772 376 -1220 l121 -360 4 -330 4 -330
-83 166 c-46 91 -111 229 -145 305 l-61 139 -41 285 c-70 492 -196 1210 -301
1715 -21 105 -39 195 -38 200 0 6 12 -30 26 -80 13 -49 76 -270 138 -490z
m-555 -325 c11 -461 18 -615 46 -1105 l17 -290 -46 -200 c-67 -299 -109 -443
-118 -416 -13 33 -75 358 -98 513 -20 129 -20 143 -6 245 62 453 130 1205 182
2013 8 124 8 122 10 -95 1 -121 7 -420 13 -665z m-3510 686 c0 -2 -47 -43
-106 -91 -58 -48 -157 -134 -220 -192 -64 -57 -126 -110 -137 -118 -25 -16
-309 -74 -507 -104 -405 -61 -793 -51 -925 22 l-30 17 45 -8 c25 -4 106 -6
180 -5 259 3 642 96 1177 284 131 46 451 168 521 198 1 1 2 -1 2 -3z m2030
-133 c-177 -296 -428 -788 -561 -1101 l-74 -172 -155 -194 c-650 -814 -1161
-1279 -1388 -1264 -45 3 -48 5 -61 43 -22 67 3 182 76 350 129 295 470 788
921 1328 107 127 126 145 256 236 290 203 613 460 861 683 77 69 142 127 143
127 2 1 -6 -16 -18 -36z m3450 -574 c85 -75 241 -205 345 -288 210 -168 209
-167 462 -521 258 -360 456 -677 583 -931 152 -307 201 -510 145 -596 -16 -23
-21 -25 -65 -20 -218 26 -635 433 -1142 1117 -202 273 -304 425 -328 492 -161
442 -350 880 -513 1187 l-51 96 205 -200 c112 -110 274 -261 359 -336z m1820
369 c272 -120 494 -207 725 -284 344 -114 559 -159 738 -152 59 3 107 3 107 2
0 -2 -30 -13 -67 -25 -146 -46 -462 -35 -801 27 -137 25 -552 127 -577 141 -7
5 -110 104 -230 221 -215 211 -217 213 -159 186 33 -14 151 -67 264 -116z
m-7297 -44 c-698 -502 -1133 -907 -1265 -1179 -38 -77 -39 -78 -32 -35 29 198
243 521 596 900 206 221 246 256 310 270 67 14 420 114 473 134 77 28 65 15
-82 -90z m2548 -131 c-86 -292 -190 -787 -245 -1168 -24 -170 -25 -171 -104
-355 -389 -900 -756 -1498 -988 -1611 -84 -40 -127 -11 -145 101 -45 273 154
913 551 1774 82 177 84 180 217 340 220 262 535 692 678 923 28 45 51 77 53
73 2 -5 -6 -39 -17 -77z m4662 -89 l179 -58 76 -81 c170 -180 387 -456 503
-640 122 -194 210 -404 209 -502 0 -20 -7 -8 -24 40 -94 266 -559 752 -1229
1285 -64 52 -117 95 -117 97 0 2 51 -16 113 -40 61 -23 192 -69 290 -101z
m-2733 -37 c171 -298 406 -652 620 -937 82 -109 91 -125 167 -320 353 -896
510 -1542 437 -1801 -32 -112 -77 -123 -184 -43 -196 148 -449 599 -728 1299
-155 390 -199 520 -207 620 -13 173 -46 462 -76 660 -27 176 -109 616 -125
670 -11 35 4 12 96 -148z m-1291 -812 c14 -159 35 -375 52 -515 11 -89 10
-109 -20 -310 -144 -957 -338 -1609 -531 -1784 -60 -54 -86 -57 -125 -14 -40
43 -70 122 -93 241 -13 73 -17 147 -17 367 1 365 29 650 121 1215 l46 280 95
210 c132 287 276 653 370 933 l78 234 6 -359 c4 -197 12 -421 18 -498z m687
496 c73 -254 186 -587 286 -839 87 -222 86 -214 122 -569 44 -424 51 -549 51
-913 0 -290 -4 -376 -18 -470 -33 -212 -77 -333 -140 -386 l-29 -24 -40 22
c-126 71 -250 387 -347 888 -53 272 -90 566 -144 1130 -3 25 6 106 19 180 61
338 113 777 134 1127 5 95 10 178 11 185 0 7 10 -21 20 -62 11 -41 45 -162 75
-269z m-3317 79 c-85 -121 -242 -352 -283 -415 l-51 -80 -190 -95 c-325 -164
-636 -282 -865 -330 -116 -25 -311 -33 -330 -14 -8 8 3 12 42 13 195 4 581
187 1068 506 139 91 472 325 575 404 47 36 52 38 34 11z m6121 -402 c589 -467
1066 -749 1312 -775 57 -6 60 -7 33 -15 -47 -14 -189 1 -311 32 -229 59 -569
211 -895 399 l-145 84 -71 126 c-40 69 -110 188 -157 265 -47 76 -86 140 -86
143 0 2 39 -30 88 -70 48 -41 152 -125 232 -189z m-5911 173 c-8 -10 -86 -108
-174 -217 -518 -642 -817 -1137 -842 -1392 -8 -81 -23 -61 -23 31 0 237 173
687 445 1153 l76 130 152 87 c84 47 202 117 262 156 61 38 112 70 114 70 2 1
-3 -7 -10 -18z m5463 -198 c112 -81 389 -263 400 -263 11 0 178 -336 249 -503
77 -179 161 -431 189 -567 25 -121 32 -312 12 -332 -9 -9 -12 0 -12 43 0 249
-289 789 -796 1492 -79 108 -141 197 -139 197 2 0 46 -30 97 -67z m-4923 -329
c-17 -43 -62 -171 -99 -284 l-68 -205 -113 -104 c-418 -381 -856 -656 -1079
-676 l-55 -5 40 13 c287 98 746 533 1319 1250 44 54 80 96 82 94 2 -2 -10 -39
-27 -83z m4503 -382 c274 -367 537 -670 733 -845 113 -100 254 -199 312 -217
58 -19 60 -28 5 -19 -221 34 -611 309 -1016 713 l-131 131 -29 115 c-16 63
-51 189 -78 280 -27 91 -51 174 -55 185 -3 11 32 -32 77 -95 46 -63 128 -175
182 -248z m-4302 90 c-200 -447 -354 -865 -424 -1149 -47 -191 -59 -282 -54
-412 2 -61 0 -107 -3 -103 -41 43 -62 355 -39 566 24 218 71 455 147 736 l36
135 216 222 c119 123 217 223 217 223 1 0 -42 -98 -96 -218z m3892 -29 c69
-82 159 -185 202 -230 l77 -82 34 -158 c112 -521 136 -985 65 -1216 -11 -34
-26 -71 -35 -82 -14 -19 -14 -18 -3 10 8 20 12 83 11 185 -1 166 -22 309 -83
550 -66 263 -227 743 -355 1063 -24 59 -42 107 -40 107 1 0 59 -66 127 -147z
m-3136 -60 c-7 -26 -25 -253 -35 -439 l-8 -162 -98 -148 c-295 -449 -599 -785
-805 -889 -77 -39 -99 -40 -45 -2 122 84 272 273 441 554 101 168 339 636 441
868 34 77 72 161 83 188 21 46 36 64 26 30z m2522 -519 c259 -640 528 -1110
708 -1237 24 -17 42 -33 40 -35 -3 -2 -32 11 -66 29 -204 108 -482 447 -764
929 l-96 165 0 245 c0 135 -3 277 -6 315 l-5 70 64 -166 c35 -91 91 -232 125
-315z m-2240 344 c-29 -163 -86 -569 -102 -733 -55 -545 -40 -934 44 -1106 18
-40 19 -41 1 -24 -11 9 -35 47 -54 83 -112 214 -177 635 -177 1141 l0 204 74
126 c40 69 108 190 151 269 42 78 78 142 79 142 1 0 -6 -46 -16 -102z m1937
-328 l88 -175 -12 -200 c-27 -455 -100 -836 -201 -1052 -36 -77 -99 -177 -107
-170 -2 2 10 33 25 68 65 144 92 339 97 689 4 324 -16 679 -60 1060 -8 69 -15
134 -15 145 0 11 22 -27 49 -85 26 -58 88 -184 136 -280z m-1129 -118 l37
-173 -55 -167 c-114 -344 -265 -683 -389 -872 -61 -93 -205 -250 -229 -250 -6
0 9 24 35 53 166 189 345 781 470 1562 19 121 38 236 42 255 5 29 10 10 29
-100 13 -74 40 -213 60 -308z m243 303 c84 -886 233 -1532 406 -1759 47 -61
18 -47 -48 23 -168 180 -354 605 -487 1112 l-39 153 29 100 c32 112 79 299
105 419 10 43 18 77 20 75 2 -2 8 -57 14 -123z"/>
</g>
</svg>
