<?xml version="1.0" standalone="no"?>
<!DOCTYPE svg PUBLIC "-//W3C//DTD SVG 20010904//EN"
 "http://www.w3.org/TR/2001/REC-SVG-20010904/DTD/svg10.dtd">
<svg version="1.0" xmlns="http://www.w3.org/2000/svg"
 width="1280.000000pt" height="1280.000000pt" viewBox="0 0 1280.000000 1280.000000"
 preserveAspectRatio="xMidYMid meet">
<metadata>
Created by potrace 1.15, written by Peter Selinger 2001-2017
</metadata>
<g transform="translate(0.000000,1280.000000) scale(0.100000,-0.100000)"
fill="#000000" stroke="none">
<path d="M6270 12648 c-69 -83 -178 -219 -243 -302 -66 -83 -122 -155 -127
-159 -4 -5 -56 36 -116 91 -140 126 -485 422 -493 422 -10 0 -234 -394 -336
-593 -27 -53 -54 -97 -59 -97 -4 0 -76 42 -160 94 -138 85 -349 212 -469 281
-28 16 -52 24 -57 19 -11 -11 -108 -281 -194 -541 -37 -112 -69 -203 -72 -203
-2 0 -104 40 -226 89 -332 132 -508 195 -517 185 -9 -9 -76 -408 -106 -624 -8
-63 -18 -124 -20 -136 -4 -20 -10 -19 -287 37 -325 65 -496 95 -504 86 -4 -3
-2 -183 4 -399 5 -216 9 -394 8 -394 0 -1 -178 3 -394 8 -216 6 -396 8 -399 4
-9 -8 21 -179 86 -504 56 -277 57 -283 37 -287 -12 -2 -73 -12 -136 -20 -216
-30 -615 -97 -624 -106 -10 -9 53 -185 186 -518 49 -123 87 -225 85 -227 -2
-2 -136 -48 -298 -103 -399 -136 -444 -154 -443 -173 2 -18 113 -209 286 -489
59 -97 108 -181 108 -185 0 -5 -75 -48 -166 -96 -207 -109 -524 -290 -524
-298 0 -9 294 -352 422 -494 80 -88 97 -111 86 -121 -7 -6 -75 -61 -152 -120
-192 -151 -451 -365 -451 -375 0 -10 259 -224 451 -375 77 -59 145 -114 152
-120 11 -10 -6 -33 -86 -121 -128 -142 -422 -485 -422 -494 0 -8 317 -189 524
-298 91 -48 166 -91 166 -96 0 -5 -42 -77 -94 -160 -151 -243 -298 -496 -300
-513 -1 -20 43 -38 443 -174 162 -55 296 -101 298 -103 2 -2 -36 -104 -85
-227 -133 -333 -196 -509 -186 -518 9 -9 408 -76 624 -106 63 -8 124 -18 136
-20 20 -4 19 -10 -37 -287 -65 -325 -95 -496 -86 -504 3 -4 183 -2 399 4 216
5 394 9 394 8 1 0 -3 -178 -8 -394 -6 -216 -8 -396 -4 -399 8 -9 179 21 504
86 277 56 283 57 287 37 2 -12 12 -73 20 -136 30 -216 97 -615 106 -624 9 -10
185 53 517 185 122 49 224 89 226 89 3 0 35 -91 72 -202 86 -261 183 -531 194
-542 5 -5 29 3 57 19 120 69 331 196 469 281 84 52 156 94 160 94 5 0 32 -44
59 -97 102 -199 326 -593 336 -593 8 0 353 296 493 422 88 80 111 97 121 86 6
-7 61 -75 120 -152 151 -192 365 -451 375 -451 10 0 224 259 375 451 59 77
114 145 120 152 10 11 33 -6 121 -86 140 -126 485 -422 493 -422 10 0 234 394
336 593 28 53 54 97 59 97 4 0 76 -42 160 -94 138 -85 349 -212 469 -281 28
-16 52 -24 57 -19 11 11 108 281 194 541 37 112 69 203 72 203 2 0 104 -40
226 -89 332 -132 508 -195 517 -185 9 9 76 408 106 624 8 63 18 124 20 136 4
20 10 19 287 -37 325 -65 496 -95 504 -86 4 3 2 183 -4 399 -5 216 -9 394 -8
394 0 1 178 -3 394 -8 216 -6 396 -8 399 -4 9 8 -21 179 -86 504 -56 277 -57
283 -37 287 12 2 73 12 136 20 216 30 615 97 624 106 10 9 -53 185 -186 518
-49 123 -87 225 -85 227 2 2 136 48 298 103 399 136 444 154 443 173 -2 18
-113 209 -286 489 -59 97 -108 181 -108 185 0 5 75 48 166 96 207 109 524 290
524 298 0 9 -294 352 -422 494 -80 88 -97 111 -86 121 7 6 75 61 152 120 192
151 451 365 451 375 0 10 -259 224 -451 375 -77 59 -145 114 -152 120 -11 10
6 33 86 121 128 142 422 485 422 494 0 8 -317 189 -524 298 -91 48 -166 91
-166 96 0 4 49 88 108 185 173 280 284 471 286 489 1 19 -44 37 -443 173 -162
55 -296 101 -298 103 -2 2 36 104 85 227 133 333 196 509 186 518 -9 9 -408
76 -624 106 -63 8 -124 18 -136 20 -20 4 -19 10 37 287 65 325 95 496 86 504
-3 4 -183 2 -399 -4 -216 -5 -394 -9 -394 -8 -1 0 3 178 8 394 6 216 8 396 4
399 -8 9 -179 -21 -504 -86 -277 -56 -283 -57 -287 -37 -2 12 -12 73 -20 136
-30 216 -97 615 -106 624 -9 10 -185 -53 -517 -185 -122 -49 -224 -89 -226
-89 -3 0 -35 91 -72 203 -86 260 -183 530 -194 541 -5 5 -29 -3 -57 -19 -120
-69 -331 -196 -469 -281 -84 -52 -156 -94 -160 -94 -5 0 -31 44 -59 97 -102
199 -326 593 -336 593 -8 0 -353 -296 -493 -422 -88 -80 -111 -97 -121 -86 -6
7 -61 75 -120 152 -127 162 -364 450 -373 453 -4 2 -63 -65 -132 -149z m200
55 c174 -208 420 -519 420 -531 0 -4 -44 -48 -97 -97 -54 -50 -164 -155 -245
-234 l-148 -144 -147 144 c-82 79 -192 184 -245 234 -54 49 -98 93 -98 97 0
18 476 608 490 608 3 0 35 -35 70 -77z m-865 -282 c196 -172 275 -244 275
-254 0 -4 -42 -63 -93 -130 -69 -91 -247 -334 -303 -415 -1 -2 -124 77 -272
176 -149 99 -278 185 -287 190 -15 8 -3 35 90 208 59 109 146 265 192 347 l85
147 96 -82 c54 -45 151 -130 217 -187z m1988 122 c46 -82 133 -238 192 -347
93 -173 105 -200 90 -208 -9 -5 -138 -91 -287 -190 -148 -99 -271 -178 -272
-176 -56 81 -234 324 -303 415 -51 67 -93 126 -93 131 0 11 569 517 587 522 1
0 39 -66 86 -147z m-3205 -242 c139 -82 489 -296 500 -306 2 -2 -294 -605
-302 -612 -1 -1 -63 25 -137 58 -74 34 -213 95 -309 136 -96 41 -176 76 -177
77 -5 5 247 746 254 746 0 0 77 -45 171 -99z m4236 -9 c56 -156 216 -635 213
-638 -1 -1 -81 -36 -177 -77 -96 -41 -235 -102 -309 -136 -74 -33 -136 -59
-137 -58 -2 1 -71 139 -154 306 -115 231 -148 306 -138 313 112 73 645 395
658 397 3 1 22 -47 44 -107z m-2425 -419 l191 -185 -147 -152 c-82 -83 -175
-182 -207 -218 l-59 -66 -156 117 c-86 65 -195 145 -243 180 l-88 62 82 112
c44 62 135 185 201 274 l121 162 57 -50 c32 -27 144 -133 248 -236z m808 152
c49 -66 137 -186 196 -267 l106 -147 -87 -62 c-48 -35 -157 -115 -243 -180
l-156 -117 -59 66 c-32 36 -125 134 -206 217 l-147 151 142 141 c198 196 350
334 358 325 3 -4 46 -61 96 -127z m-1969 -127 c244 -158 432 -290 426 -299 -3
-5 -75 -113 -159 -240 -85 -126 -155 -235 -158 -242 -2 -7 -107 40 -275 124
l-272 135 150 302 c82 166 152 302 155 302 4 0 64 -37 133 -82z m3012 -220
l150 -302 -272 -135 c-168 -84 -273 -131 -275 -124 -3 7 -73 116 -158 242 -84
127 -156 235 -160 240 -3 6 49 47 117 93 199 135 432 287 441 288 4 0 75 -136
157 -302z m-4665 188 c190 -70 555 -218 555 -226 0 -4 -14 -52 -31 -106 -17
-55 -59 -197 -94 -317 -35 -120 -65 -220 -67 -223 -3 -2 -92 18 -199 45 -107
27 -249 62 -317 77 -67 16 -128 32 -135 36 -8 5 -6 47 12 170 25 175 89 575
96 595 3 10 13 9 42 -1 21 -8 83 -30 138 -50z m6248 -171 c64 -388 83 -535 70
-543 -7 -4 -68 -20 -135 -36 -68 -15 -210 -50 -317 -77 -107 -27 -196 -47
-199 -45 -2 3 -32 103 -67 223 -35 120 -77 262 -94 317 -17 54 -31 102 -31
106 0 17 720 294 731 282 4 -4 23 -106 42 -227z m-3033 -222 c105 -109 196
-205 201 -215 7 -13 -11 -32 -94 -99 -56 -46 -148 -123 -204 -172 l-103 -89
-102 89 c-57 49 -149 126 -205 172 -83 67 -101 86 -94 99 13 24 391 412 401
412 5 0 95 -89 200 -197z m-2469 93 c169 -72 439 -193 446 -200 2 -2 -23 -61
-55 -132 -33 -71 -85 -192 -117 -269 -32 -77 -60 -142 -62 -144 -1 -2 -87 21
-190 52 -104 31 -232 68 -285 83 -65 18 -98 32 -98 42 0 18 181 642 186 642 1
0 80 -33 175 -74z m4742 -19 c63 -206 157 -536 157 -549 0 -10 -33 -24 -97
-42 -54 -15 -182 -52 -286 -83 -103 -31 -189 -54 -190 -52 -2 2 -30 67 -62
144 -32 77 -84 198 -117 269 -32 71 -57 130 -55 132 9 10 600 271 617 273 3 1
18 -41 33 -92z m-3238 -57 c172 -124 325 -241 325 -249 0 -3 -30 -40 -66 -81
-37 -41 -113 -133 -171 -203 -100 -122 -106 -127 -127 -114 -48 31 -267 159
-349 204 -48 26 -89 51 -90 55 -1 4 72 118 161 253 114 171 167 243 175 237 7
-5 71 -51 142 -102z m1854 -145 c145 -217 158 -241 143 -253 -9 -7 -59 -36
-111 -63 -51 -28 -146 -83 -210 -121 -64 -39 -119 -72 -123 -74 -3 -2 -54 53
-111 123 -58 71 -134 162 -171 203 -36 41 -66 78 -66 82 0 7 209 165 390 296
47 33 88 58 92 54 4 -4 79 -115 167 -247z m-2623 -116 c145 -73 264 -133 264
-134 0 -2 -40 -70 -88 -152 -49 -81 -108 -185 -133 -230 -24 -46 -47 -83 -51
-83 -4 0 -60 21 -125 46 -65 25 -172 64 -238 86 -66 23 -124 44 -129 49 -5 4
6 42 24 86 64 155 202 463 207 463 3 0 124 -59 269 -131z m3427 -61 c125 -285
150 -349 141 -357 -5 -5 -63 -26 -129 -49 -66 -22 -173 -61 -238 -86 -65 -25
-121 -46 -125 -46 -4 0 -27 37 -51 83 -25 45 -84 149 -133 231 -49 82 -87 151
-85 153 7 6 522 263 528 263 4 0 45 -87 92 -192z m-5738 76 c218 -40 505 -100
511 -107 3 -2 -3 -60 -12 -128 -9 -68 -26 -218 -38 -334 l-21 -210 -80 3 c-44
1 -136 7 -205 12 -69 5 -186 12 -261 16 l-136 6 -7 121 c-3 66 -6 243 -6 394
l0 274 38 -7 c20 -3 118 -21 217 -40z m7945 -227 c0 -151 -3 -328 -6 -394 l-7
-121 -136 -6 c-75 -4 -192 -11 -261 -16 -69 -5 -161 -11 -205 -12 l-80 -3 -21
210 c-12 116 -29 266 -38 334 -9 68 -14 126 -12 128 9 9 702 149 754 152 9 1
12 -60 12 -272z m-4421 136 c53 -42 144 -118 202 -169 l105 -92 -175 -179
-176 -178 -105 80 c-59 44 -150 109 -203 144 -86 57 -96 66 -84 80 8 9 45 54
83 101 90 111 245 290 252 290 2 0 48 -35 101 -77z m838 -25 c49 -57 119 -141
157 -188 38 -47 75 -92 83 -101 12 -14 2 -23 -84 -80 -53 -35 -144 -100 -203
-144 l-105 -80 -176 178 -175 179 100 88 c115 100 298 249 307 250 4 0 47 -46
96 -102z m-3712 -19 c163 -38 529 -130 537 -135 5 -3 6 -9 4 -13 -6 -9 -85
-328 -117 -466 -12 -55 -23 -101 -24 -102 -1 -2 -68 6 -151 16 -82 11 -205 25
-274 31 -188 18 -174 11 -167 78 4 31 13 125 22 207 9 83 22 201 30 263 8 62
15 120 15 128 0 19 19 18 125 -7z m6515 7 c0 -8 7 -66 15 -128 8 -62 21 -180
30 -263 9 -82 18 -176 22 -207 7 -67 21 -60 -167 -78 -69 -6 -192 -20 -274
-31 -83 -10 -150 -18 -151 -16 -1 1 -12 47 -24 102 -32 138 -111 457 -117 466
-7 12 3 16 232 73 431 107 434 108 434 82z m-4435 -106 c184 -102 325 -192
317 -203 -42 -51 -186 -257 -225 -320 -27 -42 -50 -77 -52 -77 -1 0 -54 26
-116 58 -63 32 -159 77 -214 101 -55 24 -104 47 -109 52 -10 9 23 69 162 306
l96 163 41 -24 c22 -12 67 -38 100 -56z m2442 -40 c120 -199 196 -341 187
-349 -5 -5 -54 -28 -109 -52 -55 -24 -151 -69 -214 -101 -62 -32 -115 -58
-116 -58 -2 0 -25 35 -52 77 -39 63 -183 268 -225 320 -6 8 24 31 102 78 116
70 354 205 356 202 1 -1 33 -54 71 -117z m-3764 -56 c106 -30 221 -65 257 -76
36 -11 75 -22 88 -25 12 -3 22 -10 22 -17 0 -6 -20 -60 -43 -121 -24 -60 -63
-168 -87 -238 -24 -71 -49 -131 -56 -134 -7 -2 -70 7 -141 20 -70 14 -162 31
-203 37 -164 26 -181 31 -176 48 2 9 14 62 26 117 21 93 93 388 106 428 3 9 7
17 10 17 3 0 91 -25 197 -56z m5081 39 c13 -40 85 -335 106 -428 12 -55 24
-108 26 -117 5 -17 -12 -22 -176 -48 -41 -6 -133 -23 -203 -37 -71 -13 -134
-22 -141 -20 -7 3 -32 63 -56 134 -24 70 -63 178 -87 238 -23 61 -43 115 -43
120 0 6 17 15 38 22 20 6 75 23 122 37 145 45 384 114 397 115 6 1 14 -7 17
-16z m-2465 -248 l172 -175 -139 -137 c-77 -76 -153 -159 -171 -185 -18 -27
-36 -48 -41 -48 -5 0 -23 21 -41 48 -18 26 -94 109 -171 185 l-139 137 172
175 c95 96 175 175 179 175 4 0 84 -79 179 -175z m-829 22 c58 -39 143 -99
190 -135 47 -36 87 -67 88 -68 2 -1 -20 -31 -49 -66 -63 -76 -160 -221 -200
-301 l-30 -58 -50 43 c-97 84 -185 150 -267 201 -46 28 -85 54 -87 57 -6 9
116 196 206 317 45 61 74 91 82 87 7 -4 59 -39 117 -77z m1499 -11 c90 -120
212 -307 206 -316 -2 -3 -41 -29 -87 -57 -82 -51 -170 -117 -267 -201 l-50
-43 -30 58 c-40 80 -137 225 -200 301 -29 35 -51 64 -49 66 1 1 34 26 72 56
60 47 325 230 333 230 2 0 34 -42 72 -94z m-2540 -45 c74 -28 137 -53 139 -56
3 -3 -21 -58 -53 -122 -32 -65 -78 -165 -102 -223 -24 -57 -45 -105 -46 -107
-2 -1 -44 11 -94 27 -50 16 -155 46 -234 66 -79 20 -146 37 -148 39 -5 5 55
182 111 330 28 72 54 140 59 152 l8 22 113 -39 c62 -21 173 -61 247 -89z
m3803 -31 c62 -163 122 -340 117 -345 -2 -2 -69 -19 -148 -39 -79 -20 -184
-50 -234 -66 -50 -16 -92 -28 -94 -27 -1 2 -22 50 -46 107 -24 58 -70 158
-102 223 -32 64 -56 119 -53 122 17 18 491 185 499 176 3 -3 31 -71 61 -151z
m-3502 -91 c14 -6 89 -42 166 -80 l142 -71 -67 -131 c-36 -73 -82 -178 -100
-234 -19 -57 -36 -103 -37 -103 -2 0 -32 18 -66 41 -67 43 -223 120 -323 159
-33 13 -61 24 -62 25 -8 5 132 321 179 402 l29 52 57 -25 c31 -14 68 -30 82
-35z m2996 -87 c56 -117 136 -304 132 -307 -2 -1 -30 -12 -63 -25 -100 -39
-256 -116 -323 -159 -34 -23 -64 -41 -66 -41 -1 0 -18 46 -37 103 -18 56 -64
161 -100 234 l-67 131 132 66 c72 36 172 83 221 105 107 47 93 55 171 -107z
m-1842 -62 c63 -61 140 -144 171 -184 l56 -74 -34 -69 c-43 -85 -90 -218 -116
-326 -34 -140 -48 -239 -78 -537 l-5 -55 -29 112 c-77 299 -203 595 -314 742
l-56 74 35 71 c52 105 226 355 248 356 4 0 58 -50 122 -110z m656 39 c80 -103
146 -204 186 -285 l35 -71 -56 -74 c-111 -147 -237 -443 -314 -742 l-29 -112
-5 55 c-30 298 -44 397 -78 537 -26 108 -73 241 -116 326 l-34 69 56 74 c53
68 278 294 293 294 4 0 32 -32 62 -71z m-4643 55 l121 -7 6 -136 c4 -75 11
-192 16 -261 5 -69 11 -161 12 -205 l3 -80 -210 -21 c-115 -12 -266 -29 -334
-38 -68 -9 -126 -15 -128 -12 -9 9 -105 484 -147 729 l-7 37 274 0 c151 0 328
-3 394 -6z m9107 -31 c-42 -245 -138 -720 -147 -729 -2 -3 -60 3 -128 12 -68
9 -218 26 -334 38 l-210 21 3 80 c1 44 7 136 12 205 5 69 12 187 16 262 l6
137 82 4 c44 1 222 4 394 5 l313 2 -7 -37z m-8729 12 c127 -8 277 -18 334 -21
l103 -7 -5 -71 c-3 -39 -11 -173 -18 -299 -12 -217 -14 -228 -33 -232 -12 -2
-113 -9 -226 -15 -113 -6 -239 -14 -281 -17 l-76 -5 -7 103 c-9 134 -36 562
-36 572 0 4 3 7 8 7 4 0 111 -7 237 -15z m7935 8 c0 -10 -27 -438 -36 -572
l-7 -103 -76 5 c-42 3 -168 11 -281 17 -113 6 -214 13 -226 15 -19 4 -21 15
-33 232 -7 126 -15 260 -18 299 l-5 71 113 8 c519 35 569 37 569 28z m-7335
-53 c142 -13 438 -50 443 -55 2 -2 -7 -61 -21 -132 -14 -70 -30 -158 -36 -195
-6 -38 -16 -97 -22 -133 l-11 -65 -269 0 -269 0 0 33 c0 58 30 501 36 530 6
31 1 31 149 17z m6639 -17 c6 -29 36 -472 36 -530 l0 -33 -269 0 -269 0 -11
65 c-6 36 -16 95 -22 133 -6 37 -22 125 -36 195 -14 71 -23 130 -21 132 8 8
459 60 550 64 32 1 37 -2 42 -26z m-4229 -177 c39 -29 94 -75 124 -102 l54
-50 -17 -52 c-42 -126 -57 -234 -63 -442 -5 -185 8 -458 23 -507 3 -10 -34 63
-83 162 -141 284 -264 469 -400 602 l-74 73 21 71 c26 87 85 223 141 324 l40
74 82 -50 c45 -28 114 -74 152 -103z m1978 12 c36 -73 80 -177 98 -230 l31
-97 -75 -73 c-136 -134 -259 -318 -400 -603 -49 -99 -86 -172 -83 -162 15 49
28 322 23 507 -6 207 -21 316 -62 441 l-17 51 28 30 c70 72 367 283 385 272 3
-2 36 -63 72 -136z m-3811 110 c245 -39 413 -76 409 -89 -2 -8 -16 -59 -32
-114 -38 -128 -79 -299 -79 -324 0 -11 -4 -23 -10 -26 -5 -3 -61 1 -122 9 -62
9 -167 18 -233 22 -66 4 -125 9 -131 13 -12 7 -3 74 49 349 36 197 22 181 149
160z m5485 -160 c52 -275 61 -342 49 -349 -6 -4 -65 -9 -131 -13 -66 -4 -171
-13 -233 -22 -61 -8 -117 -12 -122 -9 -6 3 -10 15 -10 26 0 25 -41 196 -79
324 -16 55 -30 106 -32 114 -3 10 37 21 166 46 221 42 282 52 325 54 l35 1 32
-172z m-4870 36 c111 -29 282 -80 290 -88 2 -2 -12 -50 -31 -107 -41 -126 -76
-287 -76 -346 0 -24 -2 -43 -4 -43 -2 0 -26 9 -53 21 -108 48 -277 97 -391
115 l-44 7 7 46 c8 53 64 274 95 374 20 65 22 67 48 61 15 -4 86 -22 159 -40z
m4313 -21 c31 -100 87 -321 95 -374 l7 -46 -44 -7 c-114 -18 -283 -67 -391
-115 -27 -12 -51 -21 -53 -21 -2 0 -4 19 -4 43 0 59 -35 220 -76 346 -19 57
-33 105 -31 107 13 12 428 130 469 133 4 1 17 -29 28 -66z m-3897 -114 c122
-48 274 -130 346 -185 1 -1 -3 -49 -10 -107 -22 -185 17 -486 102 -783 16 -56
29 -105 29 -109 0 -4 -34 41 -76 101 -195 280 -373 467 -557 589 l-59 39 7 60
c12 114 39 228 91 384 10 28 19 52 21 52 2 0 49 -18 106 -41z m3401 -11 c52
-156 79 -270 91 -384 l7 -60 -59 -39 c-184 -122 -362 -309 -557 -589 -42 -60
-76 -105 -76 -101 0 4 13 53 29 109 85 297 124 598 102 783 -7 58 -11 106 -10
107 24 18 108 71 163 101 57 32 268 124 287 125 3 0 13 -24 23 -52z m-1716
-55 c89 -194 143 -442 172 -794 11 -131 10 -142 -14 -255 -65 -311 -125 -759
-156 -1179 -21 -275 -40 -625 -40 -742 0 -75 -4 -123 -10 -123 -6 0 -10 48
-10 123 0 117 -19 467 -40 742 -31 420 -91 868 -156 1179 -24 113 -25 124 -14
255 20 247 59 471 107 626 27 87 102 255 113 255 4 0 25 -39 48 -87z m-639
-34 c117 -161 232 -443 318 -774 24 -96 25 -110 24 -360 -3 -345 20 -751 68
-1215 21 -200 25 -237 61 -495 11 -82 22 -170 25 -195 4 -43 4 -43 -5 -10 -5
19 -32 141 -61 270 -128 586 -300 1189 -451 1585 -28 72 -58 153 -68 180 -22
60 -50 362 -50 534 0 142 22 339 50 446 23 84 27 95 38 95 4 0 27 -28 51 -61z
m1245 53 c2 -4 14 -44 26 -87 28 -107 50 -304 50 -446 0 -172 -28 -474 -50
-534 -10 -27 -40 -108 -68 -180 -151 -396 -323 -999 -451 -1585 -29 -129 -56
-251 -61 -270 -9 -33 -9 -33 -5 10 3 25 14 113 25 195 36 258 40 295 61 495
48 464 71 870 68 1215 -1 250 0 264 24 360 86 331 201 613 318 774 44 60 53
68 63 53z m-1844 -229 c122 -126 236 -295 350 -523 87 -175 137 -298 145 -360
54 -445 281 -1351 491 -1958 38 -112 42 -153 4 -50 -35 95 -197 479 -288 684
-193 434 -407 847 -597 1154 -42 67 -61 112 -88 210 -60 215 -77 293 -102 469
-24 166 -18 441 8 441 6 0 41 -30 77 -67z m2474 21 c21 -159 -4 -441 -60 -674
-53 -220 -87 -316 -139 -400 -190 -307 -404 -720 -597 -1154 -91 -205 -253
-589 -288 -684 -38 -103 -34 -62 4 50 126 363 297 976 386 1378 39 176 91 464
105 580 16 128 222 538 371 738 68 90 182 212 199 212 7 0 15 -19 19 -46z
m-4247 -14 c66 0 74 -2 69 -17 -10 -33 -36 -327 -36 -405 l0 -78 -77 0 c-77 0
-373 -26 -404 -36 -14 -4 -17 13 -21 131 -3 74 -3 196 0 270 l5 134 106 4 c58
2 146 2 195 1 49 -2 122 -4 163 -4z m6318 0 l72 0 5 -135 c3 -74 3 -196 0
-270 -4 -118 -7 -135 -21 -131 -31 10 -327 36 -403 36 l-78 0 0 78 c0 77 -26
372 -36 404 -5 15 6 18 103 21 59 2 148 2 197 1 49 -2 121 -4 161 -4z m-6805
-269 l0 -269 -65 -11 c-36 -6 -95 -16 -132 -22 -38 -6 -126 -22 -196 -36 -71
-14 -130 -23 -132 -21 -8 8 -65 508 -65 570 0 11 11 19 33 23 38 7 405 32 495
34 l62 1 0 -269z m805 254 c77 -7 168 -17 202 -21 70 -8 66 7 41 -129 -6 -38
-12 -142 -13 -231 l0 -161 -50 14 c-80 21 -261 43 -363 43 l-94 0 6 118 c7
115 21 271 32 345 6 37 6 37 52 37 26 0 110 -7 187 -15z m5529 -22 c11 -74 25
-230 32 -345 l6 -118 -94 0 c-102 0 -283 -22 -363 -43 l-50 -14 0 161 c-1 89
-7 193 -13 231 -25 137 -36 120 86 134 179 21 264 28 329 30 l61 1 6 -37z
m866 22 c271 -18 290 -20 290 -43 0 -62 -57 -562 -65 -570 -2 -2 -61 7 -132
21 -70 14 -158 30 -195 36 -38 6 -97 16 -133 22 l-65 11 0 269 0 269 33 0 c18
0 138 -7 267 -15z m-7806 -47 c2 -13 9 -79 16 -148 6 -69 20 -192 31 -274 10
-83 18 -150 16 -151 -1 -1 -47 -12 -102 -24 -138 -32 -457 -111 -466 -117 -12
-7 -16 3 -73 232 -102 410 -106 434 -83 434 7 0 82 9 167 19 85 11 211 25 280
31 69 7 127 14 129 16 2 2 21 4 42 4 32 0 39 -4 43 -22z m8381 -3 c83 -9 201
-22 263 -30 62 -8 120 -15 128 -15 25 0 21 -19 -82 -434 -57 -229 -61 -239
-73 -232 -9 6 -328 85 -466 117 -55 12 -101 23 -102 24 -2 1 6 68 16 151 11
82 25 205 31 274 18 188 11 174 78 167 31 -4 125 -13 207 -22z m-6519 -21
c113 -27 160 -42 251 -81 l62 -27 5 -65 c9 -104 26 -210 46 -286 42 -156 128
-382 206 -537 19 -37 34 -71 34 -74 0 -4 -64 56 -142 132 -226 220 -387 340
-573 425 l-93 43 -4 55 c-6 72 8 297 23 384 l12 67 36 -6 c20 -3 81 -17 137
-30z m4573 -31 c15 -87 29 -312 23 -384 l-4 -55 -93 -43 c-186 -85 -347 -205
-572 -425 -79 -76 -143 -136 -143 -132 0 3 15 37 34 74 78 155 164 381 206
537 20 76 37 182 46 286 l5 65 62 27 c114 49 302 102 413 116 6 0 16 -29 23
-66z m-7120 -40 c5 -21 19 -81 31 -133 12 -52 44 -182 71 -289 27 -107 47
-196 45 -199 -3 -2 -103 -32 -223 -67 -120 -35 -262 -77 -317 -94 -54 -17
-102 -31 -106 -31 -16 0 -293 720 -282 731 11 10 668 116 734 118 35 1 38 -1
47 -36z m9707 12 c265 -39 548 -87 556 -94 12 -11 -266 -731 -282 -731 -4 0
-52 14 -106 31 -55 17 -197 59 -317 94 -120 35 -220 65 -223 67 -2 3 18 92 45
199 27 107 59 237 71 289 39 172 38 170 64 170 13 0 99 -11 192 -25z m-6738
-117 c141 -98 292 -256 449 -468 144 -196 172 -244 214 -372 84 -253 208 -560
366 -908 85 -186 346 -712 421 -846 115 -208 103 -201 -31 17 -345 559 -771
1150 -1096 1519 -68 77 -106 131 -141 201 -106 209 -194 440 -236 618 -25 103
-44 291 -30 291 4 0 42 -24 84 -52z m3629 -42 c-11 -161 -70 -372 -173 -612
-92 -215 -137 -293 -235 -404 -325 -369 -751 -960 -1096 -1519 -134 -218 -146
-225 -31 -17 75 134 336 660 421 846 158 348 282 655 366 908 42 128 70 176
214 372 155 210 300 362 443 464 44 30 83 56 88 56 5 0 6 -40 3 -94z m-4787
-299 c0 -102 22 -283 43 -362 l14 -50 -161 0 c-89 -1 -192 -7 -231 -13 -136
-25 -120 -34 -133 71 -17 138 -37 396 -31 402 12 12 299 40 442 44 l57 1 0
-93z m355 68 c87 -16 155 -31 160 -37 2 -1 13 -41 24 -87 50 -200 181 -458
363 -712 33 -45 57 -83 55 -86 -3 -2 -41 22 -86 55 -254 182 -512 313 -712
363 -46 11 -86 22 -87 24 -17 17 -50 232 -58 374 l-7 134 134 -7 c74 -4 170
-14 214 -21z m5491 -107 c-8 -141 -41 -356 -58 -373 -1 -2 -41 -13 -87 -24
-200 -50 -458 -181 -712 -363 -45 -33 -83 -57 -86 -55 -2 3 22 41 55 86 182
254 313 512 363 712 11 46 22 85 23 87 7 6 119 31 191 41 90 13 136 17 244 19
l74 2 -7 -132z m383 107 c68 -8 126 -17 129 -20 7 -6 -13 -262 -30 -402 -13
-105 3 -96 -133 -71 -38 6 -142 12 -231 13 l-161 0 14 50 c21 80 43 261 43
363 l0 94 123 -7 c67 -3 178 -13 246 -20z m-6735 -160 c4 -66 13 -171 22 -233
8 -61 12 -117 9 -122 -3 -6 -15 -10 -26 -10 -25 0 -196 -41 -324 -79 -55 -16
-106 -30 -114 -32 -13 -4 -50 164 -89 409 -21 127 -37 113 161 149 274 52 341
61 348 49 4 -6 9 -65 13 -131z m6991 125 c39 -6 148 -25 243 -43 197 -36 181
-22 160 -149 -39 -245 -76 -413 -89 -409 -8 2 -59 16 -114 32 -128 38 -299 79
-324 79 -11 0 -23 4 -26 10 -3 5 1 61 9 122 8 62 18 165 21 228 8 137 11 149
33 145 9 -2 49 -9 87 -15z m-5849 -49 c178 -84 371 -231 590 -449 133 -132
144 -147 212 -270 257 -469 593 -960 1148 -1677 51 -66 41 -56 -155 160 -457
503 -884 917 -1278 1238 -141 115 -173 152 -300 342 -75 113 -94 145 -171 286
-73 133 -165 409 -136 409 3 0 44 -18 90 -39z m4684 25 c0 -56 -84 -289 -142
-395 -77 -141 -96 -173 -171 -286 -127 -190 -159 -227 -300 -342 -394 -321
-821 -735 -1278 -1238 -196 -216 -206 -226 -155 -160 555 717 891 1208 1148
1677 68 123 79 138 212 270 217 217 410 364 588 448 93 44 98 46 98 26z
m-6372 -108 c6 -29 15 -87 22 -128 6 -41 23 -133 37 -203 13 -71 22 -134 20
-141 -3 -7 -63 -32 -134 -56 -70 -24 -177 -63 -238 -87 -60 -23 -115 -43 -121
-43 -7 0 -14 10 -17 23 -3 12 -14 51 -25 87 -79 254 -132 454 -122 460 12 7
526 135 562 139 4 1 11 -23 16 -51z m8127 17 c150 -33 414 -101 421 -107 4 -5
-72 -278 -128 -458 -11 -36 -22 -75 -25 -87 -3 -13 -10 -23 -17 -23 -6 0 -60
20 -121 43 -60 24 -168 63 -238 87 -71 24 -131 49 -134 56 -2 7 7 70 20 141
14 70 31 162 37 203 27 174 29 180 53 175 12 -3 72 -16 132 -30z m-8701 -212
c15 -54 52 -182 83 -286 31 -103 54 -189 52 -190 -2 -2 -67 -30 -144 -62 -77
-32 -198 -84 -269 -117 -71 -32 -130 -57 -132 -55 -13 13 -277 618 -272 622 5
3 306 93 463 139 83 24 159 44 171 45 18 1 24 -12 48 -96z m9309 56 c136 -38
479 -141 485 -144 5 -4 -259 -609 -272 -622 -2 -2 -61 23 -132 55 -71 33 -192
85 -269 117 -77 32 -142 60 -144 62 -2 1 21 87 52 190 31 104 68 232 83 286
18 63 32 97 42 97 7 0 77 -18 155 -41z m-4908 -374 c47 -313 71 -527 95 -845
32 -432 62 -1216 46 -1199 -9 9 -70 402 -107 689 -75 578 -109 1052 -108 1470
l1 285 24 -115 c12 -63 34 -191 49 -285z m370 -390 c-26 -403 -69 -808 -130
-1230 -24 -166 -66 -419 -71 -424 -11 -11 5 536 26 889 34 576 80 982 157
1405 l28 150 3 -275 c1 -171 -3 -366 -13 -515z m-830 551 c188 -508 375 -1200
521 -1936 44 -224 52 -295 23 -210 -311 911 -484 1541 -584 2134 -36 216 -36
216 40 12z m1275 18 c-98 -596 -274 -1241 -589 -2164 -29 -85 -21 -14 23 210
146 736 327 1408 518 1928 33 90 62 161 65 159 2 -3 -6 -63 -17 -133z m-5860
-81 c30 -71 91 -211 137 -312 45 -102 81 -186 80 -187 -7 -8 -610 -304 -612
-302 -21 22 -409 668 -403 672 13 10 717 252 739 255 3 1 30 -56 59 -126z
m10720 38 c239 -80 470 -161 478 -167 6 -4 -381 -650 -403 -672 -2 -2 -605
294 -612 302 -1 1 35 85 80 187 46 101 107 241 137 312 29 70 54 127 55 127 0
0 120 -40 265 -89z m-8430 49 c35 0 36 -1 79 -94 85 -187 205 -348 425 -573
76 -79 136 -143 132 -143 -3 0 -37 15 -74 34 -156 79 -378 164 -537 206 -76
20 -182 37 -286 46 l-65 5 -27 62 c-46 107 -90 260 -111 388 l-6 36 72 12 c92
16 282 30 328 25 19 -2 51 -4 70 -4z m6075 -5 c44 -3 110 -10 148 -17 l67 -11
-6 -36 c-21 -128 -65 -281 -111 -388 l-27 -62 -65 -5 c-104 -9 -210 -26 -286
-46 -159 -42 -381 -127 -537 -206 -37 -19 -71 -34 -74 -34 -4 0 56 64 132 143
220 225 340 386 425 572 l43 94 51 4 c50 4 92 2 240 -8z m-5923 -21 c168 -43
371 -143 603 -297 191 -127 227 -159 342 -300 322 -395 742 -828 1238 -1277
210 -191 230 -210 160 -156 -713 552 -1207 890 -1678 1149 -124 68 -139 79
-268 209 -216 217 -363 409 -445 583 -24 51 -44 95 -44 99 0 10 24 7 92 -10z
m5608 10 c0 -4 -20 -48 -44 -99 -82 -174 -229 -366 -445 -583 -129 -130 -144
-141 -268 -209 -471 -259 -965 -597 -1678 -1149 -70 -54 -50 -35 160 156 496
449 916 882 1238 1277 115 141 152 173 342 299 178 118 311 191 445 244 130
52 250 82 250 64z m-3780 -305 c228 -408 564 -1141 762 -1664 27 -71 60 -158
73 -192 13 -35 23 -63 21 -63 -2 0 -37 60 -78 133 -281 497 -585 1119 -774
1583 -68 167 -184 484 -184 502 0 12 86 -131 180 -299z m1987 140 c-179 -510
-543 -1286 -905 -1926 -41 -73 -76 -133 -78 -133 -2 0 8 28 21 63 13 34 46
121 73 192 186 492 519 1222 732 1610 86 156 204 355 208 351 1 -2 -22 -72
-51 -157z m-4443 99 c18 -114 68 -283 115 -391 12 -27 21 -51 21 -53 0 -2 -19
-4 -43 -4 -59 0 -220 -35 -346 -76 -57 -19 -105 -33 -107 -31 -12 13 -89 283
-128 449 -6 26 -4 28 61 48 73 23 311 85 353 93 63 11 67 9 74 -35z m7001 -3
c72 -19 160 -43 198 -55 65 -20 67 -22 61 -48 -39 -166 -116 -436 -128 -449
-2 -2 -50 12 -107 31 -126 41 -287 76 -346 76 -24 0 -43 2 -43 4 0 2 9 26 21
53 48 108 97 277 115 391 l7 44 46 -7 c25 -4 105 -22 176 -40z m-7480 -197
c24 -101 84 -307 100 -349 5 -12 -14 -24 -87 -54 -51 -21 -153 -67 -226 -103
-72 -36 -134 -63 -137 -60 -7 7 -99 250 -145 386 l-39 113 27 10 c15 6 73 28
129 50 113 44 322 117 339 118 6 1 24 -50 39 -111z m7900 68 c72 -24 173 -61
225 -81 52 -21 105 -41 117 -46 l22 -8 -39 -113 c-46 -136 -138 -379 -145
-386 -3 -3 -65 24 -137 60 -73 36 -175 82 -226 103 -73 30 -92 42 -87 54 16
42 76 248 100 349 15 61 31 112 34 112 4 0 65 -20 136 -44z m-5391 -206 c289
-346 564 -727 881 -1221 130 -201 375 -603 375 -614 0 -15 -311 373 -481 600
-405 539 -633 883 -907 1365 -39 68 -7 37 132 -130z m2843 128 c-279 -489
-501 -825 -906 -1363 -170 -227 -481 -615 -481 -600 0 11 245 413 375 614 231
359 458 685 659 946 161 208 360 445 373 445 2 0 -7 -19 -20 -42z m-5848 -208
c26 -74 67 -186 91 -248 24 -62 41 -114 39 -116 -2 -2 -56 -32 -119 -66 -63
-35 -165 -94 -228 -132 -62 -37 -114 -68 -116 -68 -4 0 -266 525 -266 532 0 3
82 42 183 86 299 133 341 150 356 149 8 -1 32 -56 60 -137z m8972 61 c193 -83
340 -149 347 -156 4 -3 -258 -535 -263 -535 -2 0 -70 40 -152 88 -81 49 -185
108 -230 133 -46 24 -83 47 -83 51 0 4 21 60 46 125 25 65 63 170 85 233 22
63 41 121 44 128 2 6 8 12 13 12 5 0 92 -36 193 -79z m-7816 -158 c121 -184
306 -359 590 -558 61 -43 99 -75 85 -71 -421 115 -676 151 -877 127 -58 -7
-106 -11 -107 -10 -21 27 -72 110 -104 169 -38 70 -127 280 -120 284 22 16
239 79 323 95 164 30 166 30 210 -36z m276 23 c178 -42 409 -130 618 -236 70
-35 124 -73 201 -141 151 -132 407 -336 615 -489 169 -124 773 -531 913 -614
95 -57 66 -55 -40 2 -158 85 -624 316 -798 395 -343 156 -637 275 -909 367
-131 44 -178 71 -371 213 -212 157 -370 308 -467 449 -29 42 -53 80 -53 84 0
14 188 -5 291 -30z m1219 -86 c438 -362 1133 -1066 1550 -1571 l45 -54 -54 45
c-379 313 -1059 965 -1356 1300 -109 123 -289 335 -325 385 -14 19 -14 19 5 5
11 -8 72 -57 135 -110z m3559 103 c-323 -422 -1121 -1221 -1680 -1683 l-54
-45 45 54 c84 102 326 375 470 531 192 208 664 677 825 821 138 123 394 339
403 339 2 0 -2 -8 -9 -17z m1371 11 c0 -3 -24 -40 -52 -82 -98 -141 -256 -292
-468 -449 -193 -142 -240 -169 -371 -213 -272 -92 -566 -211 -909 -367 -174
-79 -640 -310 -798 -395 -106 -57 -135 -59 -40 -2 140 83 744 490 913 614 208
153 464 357 615 489 111 98 189 143 405 236 196 83 417 151 550 168 51 7 155
7 155 1z m215 -19 c87 -18 282 -76 303 -91 7 -4 -82 -214 -120 -284 -32 -59
-83 -142 -104 -169 -1 -1 -49 3 -107 10 -201 24 -456 -12 -877 -127 -14 -4 25
28 85 71 284 199 469 374 590 558 l39 59 60 -7 c34 -3 93 -13 131 -20z m-8152
-582 c-7 -3 -116 -73 -242 -158 -127 -84 -235 -156 -240 -159 -12 -8 -381 534
-381 559 0 3 136 73 302 156 l302 150 135 -272 c86 -172 132 -274 124 -276z
m10010 390 c158 -78 287 -145 287 -149 0 -24 -369 -566 -381 -558 -5 3 -113
75 -240 159 -126 85 -235 155 -242 158 -7 2 38 104 123 274 103 207 138 269
150 265 8 -3 144 -70 303 -149z m-9024 35 c38 -99 115 -257 160 -326 23 -34
41 -64 41 -66 0 -1 -46 -18 -102 -37 -57 -18 -162 -64 -235 -100 l-132 -67
-74 151 c-42 84 -89 184 -106 224 l-30 72 32 18 c63 37 394 190 417 192 3 1
16 -27 29 -61z m7593 18 c111 -46 263 -119 315 -149 l32 -18 -30 -72 c-17 -40
-64 -140 -106 -224 l-74 -151 -132 67 c-73 36 -178 82 -234 100 -57 19 -103
36 -103 37 0 2 18 32 41 66 45 69 122 227 160 326 13 34 25 62 26 62 0 0 48
-20 105 -44z m-8040 -272 c21 -49 66 -145 101 -213 34 -69 63 -128 65 -132 2
-4 -32 -29 -75 -55 -63 -40 -268 -184 -320 -226 -10 -8 -96 124 -195 302 -14
25 -39 70 -56 100 l-31 56 82 49 c165 100 372 215 381 212 5 -2 27 -43 48 -93z
m8522 34 c85 -47 333 -193 343 -202 3 -2 -132 -240 -202 -356 -47 -78 -70
-108 -78 -102 -52 42 -257 186 -320 225 -42 27 -77 51 -77 54 0 3 18 38 39 77
36 65 115 235 154 329 9 20 19 37 23 37 4 0 57 -28 118 -62z m-6259 -81 c383
-221 966 -629 1455 -1016 177 -141 323 -261 315 -261 -25 0 -676 409 -983 618
-394 269 -800 578 -977 744 l-50 48 85 -46 c47 -26 117 -65 155 -87z m4020 85
c-183 -170 -585 -476 -977 -744 -307 -209 -958 -618 -983 -618 -8 0 138 120
315 261 412 326 888 666 1250 891 166 103 427 256 440 257 3 0 -18 -21 -45
-47z m-7512 -259 c104 -157 187 -286 185 -287 -67 -46 -325 -234 -415 -303
-67 -51 -126 -93 -130 -93 -12 0 -209 219 -441 492 l-82 96 157 90 c172 98
525 291 533 291 3 0 90 -129 193 -286z m11205 181 c108 -59 263 -145 345 -191
l147 -85 -82 -96 c-232 -273 -429 -492 -441 -492 -4 0 -63 42 -130 93 -90 69
-348 257 -415 303 -3 2 370 572 376 573 1 1 91 -47 200 -105z m-8847 -109
c176 -25 254 -42 469 -102 98 -27 143 -46 210 -88 307 -190 720 -404 1154
-597 205 -91 589 -253 684 -288 103 -38 62 -34 -50 4 -363 126 -976 297 -1378
386 -176 39 -464 91 -580 105 -131 16 -561 235 -755 384 -83 64 -195 171 -195
187 0 7 14 15 33 17 81 10 313 6 408 -8z m6493 9 c27 -4 46 -12 46 -19 0 -15
-113 -123 -195 -186 -194 -149 -624 -368 -755 -384 -445 -54 -1351 -281 -1958
-491 -112 -38 -153 -42 -50 -4 95 35 479 197 684 288 434 193 847 407 1154
597 67 42 112 61 210 88 204 57 285 75 490 106 67 11 310 13 374 5z m-6876
-102 c115 -114 314 -247 532 -356 91 -45 180 -88 199 -94 50 -17 35 -21 -34
-9 -33 5 -188 11 -345 11 -303 1 -359 -4 -519 -51 l-84 -24 -34 33 c-48 46
-162 197 -222 295 l-50 82 82 44 c124 67 325 150 379 156 4 1 47 -39 96 -87z
m7025 67 c85 -25 222 -85 322 -140 l74 -40 -50 -82 c-60 -98 -174 -249 -222
-295 l-34 -33 -84 24 c-160 47 -216 52 -519 51 -157 0 -312 -6 -345 -11 -69
-12 -84 -8 -34 9 19 6 108 49 199 94 221 110 417 242 529 355 47 48 88 87 90
88 2 1 35 -8 74 -20z m-8222 -128 c28 -51 83 -146 121 -210 39 -64 72 -119 74
-123 3 -4 -40 -42 -93 -86 -54 -43 -145 -120 -203 -170 -58 -51 -108 -92 -112
-92 -7 0 -213 272 -312 412 l-47 66 248 166 c224 149 249 163 261 148 7 -9 36
-59 63 -111z m9696 -114 l133 -90 -47 -66 c-98 -139 -304 -411 -311 -411 -4 0
-54 41 -112 92 -58 50 -149 127 -203 170 -53 44 -96 82 -93 86 2 4 35 59 73
122 38 63 89 151 112 195 24 44 52 94 63 112 l19 32 117 -76 c64 -42 177 -116
249 -166z m-7305 57 c355 -123 759 -299 1248 -544 350 -175 830 -433 830 -446
0 -2 -21 5 -47 15 -27 10 -111 42 -188 71 -114 43 -364 145 -600 245 -310 131
-828 382 -1084 525 -166 93 -311 180 -299 180 4 0 66 -21 140 -46z m4551 2
c-277 -173 -891 -481 -1318 -661 -236 -100 -486 -202 -600 -245 -77 -29 -161
-61 -187 -71 -27 -10 -48 -17 -48 -15 0 13 480 271 830 446 375 188 633 305
948 432 132 53 420 157 437 157 5 1 -23 -19 -62 -43z m-6227 -141 c36 -55 99
-139 140 -187 l74 -86 -76 -41 c-101 -55 -172 -102 -268 -179 -43 -35 -81 -60
-85 -55 -3 5 -33 45 -67 89 -50 66 -182 256 -208 301 -8 14 118 110 290 223
101 66 110 70 122 53 7 -10 42 -63 78 -118z m8064 41 c150 -99 261 -186 254
-199 -26 -45 -158 -235 -208 -301 -34 -44 -64 -84 -67 -89 -4 -5 -42 20 -85
55 -96 76 -167 124 -268 179 l-76 41 78 91 c66 79 134 175 206 290 l17 28 37
-22 c20 -13 71 -45 112 -73z m-9299 -143 c35 -49 115 -158 180 -244 l117 -156
-66 -59 c-36 -32 -135 -125 -218 -207 l-152 -147 -185 191 c-103 104 -209 216
-236 248 l-50 58 177 131 c197 146 366 270 369 271 1 1 30 -38 64 -86z m10746
-196 l162 -121 -50 -57 c-27 -32 -133 -144 -236 -248 l-185 -191 -152 147
c-83 82 -182 175 -218 207 l-66 59 117 156 c65 86 145 195 180 243 l62 88 112
-82 c62 -44 185 -135 274 -201z m-9957 48 c63 -96 141 -203 190 -265 l37 -45
-179 -176 -180 -175 -92 105 c-99 113 -246 295 -246 304 0 16 402 348 411 339
4 -4 30 -43 59 -87z m8900 -1 c111 -90 290 -245 290 -252 0 -8 -148 -191 -246
-303 l-92 -105 -180 175 -179 176 37 45 c51 64 128 171 195 273 51 77 60 86
74 74 9 -8 54 -45 101 -83z m-7358 40 c115 -10 201 -22 233 -34 28 -10 109
-40 180 -68 396 -151 999 -323 1585 -451 129 -29 251 -56 270 -61 33 -9 33 -9
-10 -5 -25 3 -112 14 -195 25 -258 36 -295 40 -495 61 -464 48 -870 71 -1215
68 -250 -1 -264 0 -360 24 -246 64 -441 134 -605 218 -123 63 -238 145 -224
159 16 15 175 52 283 65 148 18 338 18 553 -1z m6178 1 c123 -14 277 -48 294
-65 14 -14 -102 -96 -224 -159 -164 -84 -359 -154 -605 -218 -96 -24 -110 -25
-360 -24 -345 3 -751 -20 -1215 -68 -200 -21 -237 -25 -495 -61 -82 -11 -170
-22 -195 -25 -43 -4 -43 -4 -10 5 19 5 141 32 270 61 276 60 634 150 880 220
215 62 670 213 804 268 116 48 119 48 306 65 200 18 402 19 550 1z m-5724 -60
c593 -100 1223 -273 2134 -584 85 -29 14 -21 -210 23 -736 146 -1428 333
-1936 521 -204 76 -204 76 12 40z m4892 20 c-2 -3 -71 -30 -152 -60 -508 -188
-1200 -375 -1936 -521 -224 -44 -295 -52 -210 -23 930 318 1523 479 2185 593
88 16 121 19 113 11z m-6136 -90 c146 -111 443 -237 741 -314 l112 -29 -55 -5
c-30 -4 -104 -11 -165 -17 -291 -30 -523 -88 -698 -177 l-69 -34 -74 56 c-68
53 -294 278 -294 293 1 9 126 106 213 165 58 39 200 117 213 117 1 0 36 -25
76 -55z m7381 12 c101 -53 336 -220 337 -239 0 -15 -226 -240 -294 -293 l-74
-56 -69 34 c-175 89 -407 147 -698 177 -60 6 -135 13 -165 17 l-55 5 112 29
c299 77 599 204 738 312 78 61 79 61 168 14z m-9448 -204 c50 -54 155 -164
234 -245 l144 -148 -144 -147 c-79 -82 -184 -192 -234 -245 -49 -54 -93 -98
-98 -98 -8 0 -54 35 -302 234 -198 158 -300 246 -300 256 0 11 108 102 330
280 99 79 198 158 220 176 22 18 45 33 50 34 6 0 51 -44 100 -97z m11528 40
c330 -260 522 -420 522 -433 0 -10 -102 -98 -300 -256 -248 -199 -294 -234
-302 -234 -5 0 -49 44 -98 98 -50 53 -155 163 -234 245 l-144 147 144 148 c79
81 184 191 234 245 49 53 93 97 98 97 4 0 40 -26 80 -57z m-10612 -125 c46
-57 123 -149 172 -205 l89 -103 -89 -102 c-49 -57 -126 -149 -172 -205 -67
-83 -86 -101 -99 -94 -10 5 -107 97 -217 204 l-200 195 75 77 c84 86 347 335
353 335 3 0 42 -46 88 -102z m9834 -112 l200 -196 -200 -196 c-110 -108 -207
-200 -217 -205 -13 -7 -32 11 -99 94 -46 56 -123 148 -172 205 l-89 102 89
103 c49 56 126 148 172 204 67 83 86 101 99 94 10 -5 107 -97 217 -205z
m-8882 -155 c26 -18 47 -36 47 -41 0 -5 -21 -23 -47 -41 -27 -18 -110 -95
-186 -171 l-137 -139 -178 176 -177 175 177 175 178 176 137 -139 c76 -76 159
-153 186 -171z m8157 94 l135 -136 -177 -175 -178 -175 -137 139 c-76 76 -159
153 -185 171 -27 18 -48 36 -48 41 0 4 24 25 53 45 28 20 111 97 182 169 l130
133 45 -38 c25 -21 106 -99 180 -174z m-4814 139 c59 -35 56 -40 -6 -9 -27 14
-50 28 -50 30 0 9 12 5 56 -21z m984 21 c0 -2 -24 -17 -52 -31 -59 -29 -59
-23 -1 12 37 23 53 29 53 19z m-3100 -89 c304 -65 756 -125 1175 -156 275 -21
625 -40 743 -40 74 0 122 -4 122 -10 0 -6 -48 -10 -122 -10 -118 0 -468 -19
-743 -40 -420 -31 -868 -91 -1179 -156 -113 -24 -124 -25 -255 -14 -247 20
-471 59 -626 107 -87 27 -255 102 -255 113 0 11 168 86 255 113 148 46 336 80
565 102 190 18 192 18 320 -9z m760 9 c397 -26 809 -70 1225 -130 166 -24 419
-66 424 -71 17 -16 -767 14 -1199 46 -410 31 -845 87 -1130 144 l-115 24 285
1 c157 0 386 -6 510 -14z m4320 -11 c-285 -57 -720 -113 -1130 -144 -432 -32
-1216 -62 -1199 -46 9 9 402 70 689 107 584 75 999 106 1440 106 l315 1 -115
-24z m385 11 c250 -23 426 -54 580 -102 87 -27 255 -102 255 -113 0 -11 -168
-86 -255 -113 -155 -48 -379 -87 -626 -107 -131 -11 -142 -10 -255 14 -311 65
-759 125 -1179 156 -275 21 -625 40 -742 40 -75 0 -123 4 -123 10 0 6 48 10
123 10 227 0 788 39 1162 79 239 26 617 85 770 120 102 24 100 24 290 6z
m-7803 -579 l66 -59 -117 -156 c-65 -86 -145 -195 -180 -243 l-62 -88 -112 82
c-62 44 -185 135 -274 201 l-162 121 50 57 c27 32 133 144 236 248 l185 191
152 -147 c83 -82 182 -175 218 -207z m748 -46 c-51 -64 -128 -171 -195 -273
-51 -77 -60 -86 -74 -74 -9 8 -54 45 -101 83 -111 90 -290 245 -290 252 0 8
148 191 246 303 l92 105 180 -175 179 -176 -37 -45z m498 366 c174 -88 406
-146 697 -176 61 -6 135 -13 165 -17 l55 -5 -112 -29 c-299 -77 -595 -203
-742 -314 l-74 -56 -71 35 c-104 52 -355 226 -356 248 -1 23 342 348 367 348
2 0 34 -15 71 -34z m3501 30 c-9 -9 -402 -70 -689 -107 -578 -75 -1052 -109
-1470 -108 l-285 1 115 24 c144 29 432 73 650 99 284 34 784 69 1190 84 242 9
495 13 489 7z m791 -6 c783 -29 1422 -92 1880 -184 l115 -24 -285 -1 c-418 -1
-892 33 -1470 108 -287 37 -680 98 -689 107 -7 7 169 4 449 -6z m3196 -46 c69
-52 294 -277 294 -292 -1 -22 -251 -196 -356 -248 l-71 -35 -74 56 c-147 111
-443 237 -742 314 l-112 29 55 5 c30 4 105 11 165 17 291 30 527 89 695 176
36 18 67 33 69 34 3 0 37 -25 77 -56z m766 -51 c100 -114 248 -297 248 -305 0
-7 -179 -162 -290 -252 -47 -38 -92 -75 -101 -83 -14 -12 -24 -1 -84 89 -75
113 -201 284 -216 293 -19 12 -7 -7 54 -87 53 -69 184 -258 211 -305 8 -14
-118 -110 -290 -223 -101 -66 -110 -70 -122 -53 -7 10 -42 63 -78 118 -36 55
-99 139 -140 187 l-74 86 77 42 c180 97 341 226 558 445 83 84 151 153 152
154 1 0 44 -47 95 -106z m1126 -331 l51 -58 -162 -121 c-89 -66 -212 -157
-274 -201 l-112 -82 -62 88 c-35 48 -115 157 -180 243 l-117 155 122 112 c66
61 164 154 216 207 l95 96 186 -190 c103 -105 209 -217 237 -249z m-5899 394
c-10 -11 -434 -153 -699 -234 -469 -145 -903 -258 -1280 -332 -146 -29 -352
-61 -357 -57 -2 3 69 32 159 65 509 187 1123 354 1873 507 239 49 315 62 304
51z m632 -40 c735 -146 1408 -327 1927 -518 90 -33 161 -62 159 -65 -5 -4
-211 28 -357 57 -537 106 -1222 299 -1885 530 -154 54 -135 53 156 -4z m-601
20 c0 -13 -478 -270 -830 -446 -386 -193 -642 -309 -968 -439 -137 -54 -405
-151 -420 -151 -12 0 133 87 299 180 256 143 774 394 1084 525 144 61 468 195
508 210 34 13 44 21 35 27 -8 6 -4 7 12 4 16 -4 70 12 150 44 142 56 130 51
130 46z m474 -55 c67 -26 116 -39 130 -36 14 4 17 3 8 -3 -9 -6 0 -14 35 -27
40 -15 364 -149 508 -210 310 -131 828 -382 1084 -525 166 -93 311 -180 299
-180 -29 0 -445 157 -670 253 -412 177 -1036 488 -1455 727 -92 52 -114 68
-70 51 12 -5 71 -28 131 -50z m-864 28 c-19 -4 -141 -31 -270 -60 -586 -128
-1189 -300 -1585 -451 -71 -28 -152 -58 -180 -68 -60 -22 -362 -50 -534 -50
-190 0 -500 46 -535 80 -14 14 102 96 224 159 164 84 359 154 605 218 96 24
110 25 360 24 400 -3 1034 39 1485 98 41 6 147 20 235 31 87 12 161 23 164 26
2 2 18 4 35 3 l31 -1 -35 -9z m1305 -19 c258 -36 295 -40 495 -61 464 -48 870
-71 1215 -68 250 1 264 0 360 -24 246 -64 441 -134 605 -218 122 -63 238 -145
224 -159 -35 -34 -345 -80 -535 -80 -172 0 -474 28 -534 50 -27 10 -108 40
-180 68 -396 151 -999 323 -1585 451 -129 29 -251 56 -270 61 -33 9 -33 9 10
5 25 -3 113 -14 195 -25z m-982 -53 c-597 -496 -1351 -1024 -1843 -1291 l-85
-46 50 48 c177 166 583 475 977 743 310 211 953 616 981 618 4 1 -32 -32 -80
-72z m579 -48 c329 -198 761 -481 1048 -686 239 -171 590 -448 705 -555 l50
-48 -85 46 c-431 234 -1041 652 -1610 1103 -177 141 -323 261 -315 261 3 0 96
-55 207 -121z m-514 49 c-445 -532 -1092 -1188 -1551 -1572 -65 -54 -120 -96
-124 -93 -7 7 140 184 312 376 312 349 807 829 1260 1220 77 66 142 121 143
121 2 0 -16 -23 -40 -52z m546 -174 c504 -441 1020 -960 1360 -1367 54 -65 96
-120 93 -124 -7 -6 -179 135 -377 312 -338 300 -987 977 -1300 1356 l-45 54
54 -45 c30 -25 127 -108 215 -186z m-605 -5 c-374 -623 -772 -1194 -1135
-1629 -139 -167 -171 -198 -132 -130 326 574 691 1105 1167 1699 86 107 170
211 186 231 17 21 31 37 33 35 2 -2 -52 -94 -119 -206z m582 -109 c460 -580
813 -1097 1127 -1650 39 -68 7 -37 -132 130 -289 346 -564 727 -881 1221 -130
201 -375 603 -375 614 0 8 121 -139 261 -315z m-456 238 c-13 -35 -46 -121
-73 -193 -198 -523 -534 -1256 -762 -1664 -94 -168 -180 -311 -180 -299 0 18
116 335 184 502 189 464 493 1086 774 1584 41 72 76 132 78 132 2 0 -8 -28
-21 -62z m247 -70 c354 -627 716 -1395 893 -1893 72 -205 73 -210 22 -129
-241 382 -655 1255 -899 1899 -27 72 -60 158 -73 193 -13 34 -23 62 -21 62 2
0 37 -60 78 -132z m-623 118 c-2 -3 -56 -25 -119 -49 -628 -245 -1343 -591
-1780 -862 -67 -42 -112 -61 -210 -88 -303 -85 -493 -117 -695 -117 -146 0
-215 8 -215 25 0 15 113 123 195 186 194 149 624 368 755 384 310 37 852 159
1340 300 224 65 586 177 655 204 47 18 84 26 74 17z m452 -416 c-28 -795 -91
-1442 -185 -1910 l-24 -115 -1 285 c-1 262 13 567 39 845 40 432 113 988 172
1310 8 47 8 -147 -1 -415z m63 260 c119 -721 187 -1457 185 -2000 l-1 -285
-24 115 c-57 285 -113 720 -144 1130 -32 432 -62 1216 -46 1199 2 -2 16 -74
30 -159z m496 140 c275 -102 1017 -311 1420 -400 176 -39 464 -91 580 -105
131 -16 561 -235 755 -384 82 -63 195 -171 195 -186 0 -17 -69 -25 -215 -25
-202 0 -392 32 -695 117 -98 27 -143 46 -210 88 -437 271 -1152 617 -1780 862
-63 24 -117 46 -119 49 -9 9 17 3 69 -16z m-634 -250 c-146 -736 -327 -1408
-518 -1928 -33 -90 -62 -161 -65 -159 -9 9 50 337 107 592 110 496 253 986
499 1705 29 85 21 14 -23 -210z m184 155 c231 -663 424 -1348 530 -1885 29
-146 61 -352 57 -357 -3 -2 -32 69 -65 159 -191 519 -372 1192 -518 1927 -57
291 -58 310 -4 156z m-515 37 c-6 -5 -57 -37 -115 -72 -183 -111 -768 -503
-955 -640 -208 -153 -464 -357 -615 -489 -77 -68 -131 -106 -201 -141 -209
-106 -440 -194 -618 -236 -103 -25 -291 -44 -291 -30 0 4 24 42 53 84 97 141
255 292 467 449 193 142 240 169 371 213 272 92 566 211 909 367 192 87 701
342 875 437 118 64 138 74 120 58z m1070 -113 c23 -17 624 -313 775 -382 343
-156 637 -275 909 -367 131 -44 178 -71 371 -213 212 -157 370 -308 468 -449
28 -42 52 -80 52 -84 0 -14 -188 5 -291 30 -178 42 -409 130 -618 236 -70 35
-124 73 -201 141 -151 132 -407 336 -615 489 -187 137 -772 529 -955 640 -58
35 -109 68 -115 73 -10 9 200 -99 220 -114z m-1036 28 c-433 -391 -703 -650
-935 -895 -204 -214 -335 -363 -487 -549 -115 -141 -151 -173 -342 -300 -187
-124 -312 -191 -465 -250 -110 -42 -216 -70 -226 -60 -10 9 79 188 135 271 88
129 206 269 350 414 129 130 144 141 268 209 459 252 1160 732 1653 1131 81
66 107 81 49 29z m1046 -196 c514 -394 1029 -740 1438 -964 124 -68 139 -79
268 -209 144 -145 262 -285 350 -414 56 -83 145 -262 135 -271 -10 -10 -116
18 -226 60 -153 59 -278 126 -465 250 -191 127 -227 159 -342 300 -322 395
-742 828 -1238 1277 -210 191 -230 210 -160 156 33 -26 141 -109 240 -185z
m-1000 112 c-432 -540 -894 -1214 -1147 -1675 -68 -123 -79 -138 -212 -270
-152 -151 -294 -271 -424 -355 -89 -59 -250 -138 -259 -129 -11 10 26 144 68
249 55 139 125 265 242 442 127 190 159 227 300 342 404 330 856 769 1321
1285 83 93 152 168 154 168 2 0 -17 -26 -43 -57z m844 -158 c457 -503 884
-917 1278 -1238 141 -115 173 -152 300 -342 117 -177 187 -303 242 -442 42
-105 79 -239 68 -249 -9 -9 -170 70 -259 129 -130 84 -272 204 -424 355 -133
132 -144 147 -212 270 -257 469 -593 960 -1148 1677 -51 66 -41 56 155 -160z
m-4542 142 c95 -76 167 -124 267 -178 l76 -41 -74 -86 c-41 -48 -104 -132
-140 -187 -36 -55 -71 -108 -78 -118 -12 -17 -21 -13 -122 53 -172 113 -298
209 -290 223 40 69 272 396 281 397 1 0 37 -28 80 -63z m3787 -19 c-9 -18 -39
-73 -66 -122 -75 -134 -336 -660 -421 -846 -158 -348 -282 -655 -366 -908 -42
-128 -70 -176 -214 -372 -157 -212 -308 -370 -449 -467 -42 -29 -80 -53 -84
-53 -14 0 5 188 30 291 42 178 130 409 236 618 35 70 73 124 141 201 327 372
780 1001 1124 1563 76 123 103 161 69 95z m610 -141 c351 -568 770 -1148 1095
-1517 68 -77 106 -131 141 -201 106 -209 194 -440 236 -618 25 -103 44 -291
30 -291 -4 0 -42 24 -84 53 -141 97 -292 255 -449 467 -144 196 -172 244 -214
372 -84 253 -208 560 -366 908 -85 186 -346 712 -421 846 -115 207 -104 201
32 -19z m-5084 61 c58 -50 149 -127 203 -170 93 -76 97 -81 84 -101 -31 -49
-159 -268 -205 -352 -27 -49 -52 -90 -55 -90 -4 0 -117 73 -252 163 l-246 163
47 67 c99 140 305 412 312 412 4 0 54 -41 112 -92z m9708 -80 c71 -95 150
-203 176 -240 l47 -67 -243 -161 c-134 -89 -247 -161 -253 -161 -5 0 -32 40
-58 88 -45 82 -173 301 -204 350 -13 20 -9 25 84 101 54 43 145 120 203 170
58 51 108 92 112 92 4 0 65 -78 136 -172z m-5182 30 c-126 -363 -297 -976
-386 -1378 -39 -176 -91 -464 -105 -580 -16 -129 -222 -537 -373 -740 -62 -84
-182 -210 -199 -210 -26 0 -32 275 -8 441 25 176 42 254 102 469 27 98 46 143
88 210 190 307 404 720 597 1154 91 205 253 589 288 684 38 103 34 62 -4 -50z
m427 -8 c245 -628 591 -1343 862 -1780 42 -67 61 -112 88 -210 60 -215 77
-293 102 -469 24 -166 18 -441 -8 -441 -17 0 -137 126 -199 210 -151 203 -357
611 -373 740 -37 310 -159 852 -300 1340 -62 216 -175 581 -205 660 -19 52
-25 78 -16 69 3 -2 25 -56 49 -119z m-5860 -23 c91 -69 334 -247 415 -303 2
-1 -77 -124 -176 -272 -99 -149 -185 -278 -190 -287 -8 -15 -35 -3 -208 90
-109 59 -265 146 -347 192 l-147 85 82 96 c232 273 429 492 441 492 4 0 63
-42 130 -93z m5538 10 c-6 -34 -18 -116 -27 -182 -8 -66 -19 -154 -25 -195
-59 -452 -101 -1085 -98 -1485 1 -250 0 -264 -24 -360 -95 -367 -211 -638
-352 -819 -21 -28 -30 -14 -55 79 -28 108 -50 304 -50 446 0 172 28 474 50
534 10 28 40 109 68 180 106 279 235 698 337 1101 54 214 155 654 170 744 5
25 10 39 13 32 2 -7 -1 -41 -7 -75z m260 -217 c128 -586 300 -1189 451 -1585
28 -71 58 -152 68 -180 22 -60 50 -362 50 -534 0 -142 -22 -338 -50 -446 -25
-93 -34 -107 -55 -79 -141 181 -257 452 -352 819 -24 96 -25 110 -24 360 3
345 -20 751 -68 1215 -21 200 -25 237 -61 495 -11 83 -22 170 -25 195 -4 43
-4 43 5 10 5 -19 32 -141 61 -270z m5685 223 c89 -99 255 -290 362 -415 l82
-96 -147 -85 c-82 -46 -238 -133 -347 -192 -173 -93 -200 -105 -208 -90 -5 9
-91 138 -190 287 -99 148 -178 271 -176 272 98 69 377 273 443 324 50 39 95
71 101 72 5 0 42 -35 80 -77z m-5836 -65 c0 -118 19 -468 40 -743 31 -420 91
-868 156 -1179 24 -113 25 -124 14 -255 -20 -247 -59 -471 -107 -626 -27 -87
-102 -255 -113 -255 -11 0 -86 168 -113 255 -48 155 -87 379 -107 626 -11 131
-10 142 14 255 65 311 125 759 156 1179 21 275 40 625 40 743 0 74 4 122 10
122 6 0 10 -48 10 -122z m-3564 -33 c150 -39 273 -49 539 -41 132 3 263 10
290 15 60 11 71 6 24 -11 -19 -6 -108 -49 -199 -94 -218 -109 -417 -241 -532
-356 l-89 -88 -71 21 c-86 25 -222 84 -323 140 l-74 40 50 82 c62 100 148 215
208 280 34 37 50 47 65 42 12 -3 62 -17 112 -30z m7286 -12 c59 -65 146 -181
207 -280 l50 -82 -74 -40 c-101 -56 -237 -115 -323 -140 l-71 -21 -89 88
c-115 115 -314 247 -532 356 -91 45 -180 88 -199 94 -50 17 -35 21 34 9 33 -6
193 -11 355 -11 269 -1 304 1 395 21 55 12 118 29 140 37 57 21 58 21 107 -31z
m-8012 -184 c63 -46 150 -106 193 -132 42 -27 77 -50 77 -52 0 -1 -26 -54 -58
-116 -32 -63 -77 -159 -101 -214 -24 -55 -47 -104 -52 -109 -8 -9 -150 67
-349 187 -63 38 -116 70 -117 71 -3 2 132 240 202 356 47 78 70 108 78 102 7
-6 64 -47 127 -93z m8765 -10 c70 -115 205 -353 202 -355 -1 -1 -54 -33 -117
-71 -199 -120 -341 -196 -349 -187 -5 5 -28 54 -52 109 -24 55 -69 151 -101
214 -32 63 -55 117 -51 121 4 4 60 41 123 83 63 41 151 102 195 136 44 33 81
61 82 61 1 0 32 -50 68 -111z m-9444 -194 c126 -85 235 -155 242 -158 8 -2
-38 -104 -124 -276 l-135 -272 -302 150 c-166 83 -302 153 -302 156 0 25 369
567 381 559 5 -3 113 -75 240 -159z m10271 13 c123 -181 268 -404 268 -413 0
-3 -136 -73 -302 -156 l-302 -150 -135 272 c-86 172 -132 274 -124 276 7 3
119 76 250 163 131 88 239 160 240 160 1 0 48 -69 105 -152z m-8944 -167 c56
-19 102 -36 102 -37 0 -2 -18 -32 -41 -66 -43 -67 -120 -223 -159 -323 -13
-33 -24 -61 -25 -63 -6 -7 -344 145 -422 191 l-32 18 30 72 c17 40 64 140 106
224 l74 151 132 -67 c73 -36 178 -82 235 -100z m7773 -126 c37 -82 66 -152 63
-156 -10 -17 -443 -216 -449 -207 -1 2 -12 30 -25 63 -39 100 -116 256 -159
323 -23 34 -41 64 -41 66 0 1 46 18 103 37 56 18 161 63 232 100 l130 65 39
-70 c22 -39 70 -138 107 -221z m-6757 129 c-280 -195 -467 -373 -589 -557
l-39 -59 -60 7 c-76 8 -184 29 -256 50 -52 16 -171 56 -178 61 -7 4 82 214
120 284 32 59 83 142 104 169 1 1 49 -3 107 -10 112 -13 280 -4 462 27 92 16
394 90 403 99 3 3 12 5 20 5 8 0 -34 -34 -94 -76z m5321 26 c284 -73 531 -102
702 -81 58 7 106 11 107 10 21 -27 72 -110 104 -169 38 -70 127 -280 120 -284
-7 -5 -126 -45 -178 -61 -72 -21 -180 -42 -256 -50 l-60 -7 -39 59 c-122 184
-304 357 -593 560 -59 42 -96 73 -82 69 14 -4 93 -24 175 -46z m-7248 -138
c81 -49 185 -108 230 -133 46 -24 83 -47 83 -51 0 -4 -21 -60 -46 -125 -25
-65 -64 -172 -86 -238 -23 -66 -44 -124 -49 -129 -4 -5 -42 6 -86 24 -155 64
-463 202 -463 207 0 7 262 533 265 533 2 0 70 -40 152 -88z m9372 -176 c72
-145 131 -266 131 -269 0 -5 -308 -143 -463 -207 -43 -18 -82 -29 -86 -24 -4
5 -25 59 -45 119 -21 61 -60 170 -88 242 -28 73 -50 135 -47 137 2 2 58 33
124 69 66 37 167 95 225 131 58 35 108 65 111 65 3 1 65 -118 138 -263z
m-10117 -126 c166 -83 304 -152 305 -154 1 -1 -25 -63 -58 -137 -34 -74 -95
-213 -136 -309 -41 -96 -76 -176 -77 -177 -4 -5 -729 241 -744 252 -6 5 396
675 405 675 1 0 138 -68 305 -150z m11005 -47 c141 -229 285 -474 281 -478
-15 -11 -740 -257 -744 -252 -1 1 -36 81 -77 177 -41 96 -102 235 -136 309
-33 74 -59 136 -58 137 4 5 601 303 607 303 3 1 60 -88 127 -196z m-9791 94
c71 -35 171 -81 222 -102 55 -23 91 -43 88 -50 -18 -47 -62 -201 -92 -319 -20
-77 -37 -143 -39 -145 -5 -5 -182 55 -330 111 -71 28 -140 54 -152 59 l-22 8
39 113 c21 62 61 173 89 247 28 74 51 136 51 138 0 9 29 -3 146 -60z m8294 60
c0 -2 23 -64 51 -138 28 -74 68 -185 89 -247 l39 -113 -22 -8 c-12 -5 -80 -31
-152 -59 -148 -56 -325 -116 -330 -111 -2 2 -19 68 -39 145 -30 118 -74 272
-92 319 -3 7 46 33 118 64 68 28 166 74 218 100 85 44 120 58 120 48z m-6626
-179 c-220 -226 -340 -387 -425 -573 l-43 -93 -55 -4 c-72 -6 -297 8 -384 23
l-67 12 6 36 c21 128 65 281 111 388 l27 62 65 5 c166 14 275 38 451 97 107
36 285 110 375 157 33 17 64 31 69 32 5 0 -54 -64 -130 -142z m4754 108 c156
-79 378 -164 537 -206 76 -20 182 -37 286 -46 l65 -5 27 -62 c46 -107 90 -260
111 -388 l6 -36 -67 -12 c-87 -15 -312 -29 -384 -23 l-55 4 -43 93 c-85 186
-205 347 -425 573 -76 78 -136 142 -132 142 3 0 37 -15 74 -34z m-5987 -170
c126 -41 287 -76 346 -76 24 0 43 -2 43 -4 0 -2 -9 -26 -21 -53 -48 -108 -97
-277 -115 -391 l-7 -44 -46 7 c-53 8 -274 64 -374 95 -65 20 -67 22 -61 48 39
164 120 452 129 452 1 0 49 -15 106 -34z m7417 -63 c26 -82 68 -235 96 -355 6
-26 4 -28 -61 -48 -100 -31 -321 -87 -374 -95 l-46 -7 -7 44 c-18 114 -67 283
-115 391 -12 27 -21 51 -21 53 0 2 19 4 43 4 60 0 221 36 341 75 56 19 104 34
107 34 3 1 20 -43 37 -96z m-8611 -22 c70 -32 191 -84 268 -116 77 -32 142
-60 144 -62 2 -1 -21 -87 -52 -190 -31 -104 -68 -232 -83 -285 -18 -64 -32
-98 -42 -98 -19 0 -624 175 -640 185 -6 4 266 625 274 625 2 0 61 -26 131 -59z
m9876 -108 c90 -200 199 -455 195 -458 -16 -10 -621 -185 -640 -185 -10 0 -24
34 -42 98 -15 53 -52 181 -83 285 -31 103 -54 189 -52 190 2 2 67 30 144 62
77 32 196 84 265 116 69 32 128 58 131 58 3 1 40 -74 82 -166z m-7023 -5
c-203 -272 -357 -564 -411 -779 -11 -46 -22 -86 -24 -87 -17 -17 -232 -50
-374 -58 l-134 -7 7 134 c8 142 41 357 58 374 1 2 41 13 87 24 205 51 467 186
724 373 50 37 94 67 95 67 2 1 -11 -18 -28 -41z m4115 -87 c248 -167 449 -265
636 -312 46 -11 86 -22 87 -24 17 -17 50 -232 58 -374 l7 -134 -134 7 c-142 8
-357 41 -374 58 -2 1 -13 41 -24 87 -54 216 -204 501 -413 781 l-33 45 45 -33
c25 -19 90 -64 145 -101z m-6410 -34 c61 -24 168 -63 238 -87 71 -24 131 -49
134 -56 2 -7 -7 -70 -20 -141 -14 -70 -31 -162 -37 -203 -27 -174 -29 -180
-53 -175 -12 3 -71 16 -132 30 -150 33 -414 101 -421 107 -4 5 72 278 128 458
11 36 22 75 25 88 3 12 10 22 17 22 6 0 61 -20 121 -43z m8688 21 c3 -13 14
-52 25 -88 56 -180 132 -453 128 -458 -7 -6 -271 -74 -421 -107 -60 -14 -120
-27 -132 -30 -24 -5 -26 1 -53 175 -6 41 -23 133 -37 203 -13 71 -22 134 -20
141 3 7 63 32 134 56 70 24 175 62 233 86 124 49 136 51 143 22z m-8170 -199
c132 -38 301 -79 326 -79 11 0 23 -4 26 -10 3 -5 -1 -61 -9 -122 -9 -62 -18
-167 -22 -233 -4 -66 -9 -125 -13 -131 -7 -12 -74 -3 -348 49 -197 36 -183 25
-163 138 41 234 72 406 76 417 2 7 9 10 14 7 6 -4 57 -20 113 -36z m7676 -154
c17 -99 36 -204 41 -234 20 -113 34 -102 -162 -138 -275 -52 -342 -61 -349
-49 -4 6 -10 65 -13 131 -4 66 -14 171 -22 233 -8 61 -12 117 -9 122 3 6 15
10 26 10 39 0 423 101 437 115 12 12 20 -17 51 -190z m-5542 99 c-79 -157
-165 -382 -207 -539 -20 -76 -37 -181 -46 -286 l-5 -67 -62 -26 c-110 -46
-262 -89 -388 -110 l-36 -6 -12 67 c-15 87 -29 312 -23 384 l4 55 95 44 c184
84 399 247 612 464 52 52 97 94 99 92 2 -2 -12 -35 -31 -72z m3578 -263 c113
-91 241 -172 350 -222 l93 -43 4 -55 c6 -72 -8 -297 -23 -384 l-12 -67 -36 6
c-128 21 -281 65 -388 111 l-62 27 -5 65 c-9 104 -26 210 -46 286 -42 156
-128 382 -206 537 -19 37 -34 71 -34 74 0 4 64 -56 143 -132 78 -77 178 -168
222 -203z m-5220 207 c39 -6 142 -12 231 -13 l161 0 -14 -50 c-21 -80 -43
-261 -43 -363 l0 -94 -122 7 c-142 8 -368 32 -376 40 -7 6 13 262 30 402 13
105 -3 96 133 71z m6663 -70 c17 -141 37 -397 30 -403 -8 -8 -234 -32 -375
-40 l-123 -7 0 94 c0 104 -22 283 -44 366 l-14 52 91 -6 c94 -6 330 13 417 35
3 0 11 -41 18 -91z m-8532 -19 c55 -17 197 -59 317 -94 120 -35 220 -65 223
-67 2 -3 -18 -92 -45 -199 -27 -107 -62 -249 -77 -317 -16 -67 -32 -128 -36
-135 -5 -8 -46 -6 -165 11 -237 34 -597 94 -605 101 -11 11 266 731 282 731 4
0 52 -14 106 -31z m10465 -176 c121 -306 198 -517 191 -524 -8 -7 -368 -67
-605 -101 -119 -17 -160 -19 -165 -11 -4 7 -20 68 -36 135 -15 68 -50 210 -77
317 -27 107 -47 196 -45 199 3 2 103 32 223 67 120 35 261 77 313 94 52 16
100 30 107 30 6 1 48 -92 94 -206z m-6529 46 c-86 -300 -125 -600 -103 -786 7
-58 11 -106 10 -107 -27 -21 -110 -72 -169 -104 -70 -38 -280 -127 -284 -120
-5 7 -45 126 -61 178 -21 72 -42 180 -50 256 l-7 60 59 39 c185 122 382 332
565 600 35 51 64 92 66 90 2 -2 -10 -49 -26 -106z m2594 -195 c150 -186 265
-295 407 -389 l59 -39 -7 -60 c-8 -76 -29 -184 -50 -256 -16 -52 -56 -171 -61
-178 -4 -7 -214 82 -284 120 -59 32 -142 83 -169 104 -1 1 3 49 10 107 22 185
-17 486 -102 783 -16 56 -29 105 -29 109 0 4 34 -41 76 -101 42 -60 109 -150
150 -200z m-5770 113 c98 -25 224 -55 279 -68 55 -12 101 -23 102 -24 2 -1 -6
-68 -16 -151 -11 -82 -25 -205 -31 -274 -18 -188 -11 -174 -78 -167 -31 4
-124 13 -207 22 -82 9 -201 22 -263 30 -62 8 -120 15 -128 15 -25 0 -21 19 82
434 57 229 61 239 73 232 4 -3 88 -25 187 -49z m9007 -182 c104 -417 108 -435
83 -435 -8 0 -66 -7 -128 -15 -62 -8 -180 -21 -263 -30 -82 -9 -176 -18 -207
-22 -67 -7 -60 -21 -78 167 -6 69 -20 192 -31 274 -10 83 -18 150 -16 151 1 1
47 12 102 24 150 34 459 112 464 117 12 11 23 -26 74 -231z m-5356 150 c-5
-33 -11 -188 -11 -345 -1 -303 4 -359 51 -520 l25 -85 -54 -49 c-70 -65 -175
-143 -275 -205 l-82 -50 -40 74 c-56 101 -115 237 -140 323 l-22 71 83 83
c140 141 267 336 398 610 41 86 76 156 76 155 1 -1 -3 -29 -9 -62z m1667 -382
c86 -140 171 -250 253 -330 l74 -73 -21 -71 c-26 -87 -85 -223 -141 -324 l-40
-74 -82 50 c-100 62 -204 139 -276 205 l-54 50 17 52 c42 126 57 234 63 442 5
185 -8 458 -23 507 -3 10 34 -63 83 -162 49 -99 115 -221 147 -272z m-1175
252 c1 -53 24 -239 42 -340 29 -170 84 -347 146 -468 l34 -69 -56 -74 c-53
-68 -278 -294 -293 -294 -22 1 -196 251 -248 356 l-35 71 56 74 c111 147 247
468 316 752 26 104 35 102 38 -8z m577 -252 c57 -172 165 -394 239 -492 l56
-74 -35 -71 c-52 -105 -226 -355 -248 -356 -15 0 -240 226 -293 294 l-56 74
34 69 c43 85 90 218 116 326 34 140 48 239 78 537 l5 55 29 -112 c16 -62 50
-175 75 -250z m-4183 293 c67 -13 152 -29 190 -35 37 -6 96 -16 132 -22 l65
-11 0 -269 0 -269 -33 0 c-58 0 -501 30 -529 36 -17 3 -28 12 -28 22 0 35 21
242 40 397 11 88 20 163 20 167 0 11 8 10 143 -16z m7817 16 c0 -4 9 -79 20
-167 19 -155 40 -362 40 -397 0 -10 -11 -19 -27 -22 -29 -6 -472 -36 -530 -36
l-33 0 0 269 0 269 63 11 c34 6 105 18 157 26 52 9 136 24 185 34 103 22 125
24 125 13z m-6395 -225 c1 -89 7 -193 13 -232 25 -136 34 -120 -71 -133 -140
-17 -396 -37 -402 -30 -8 8 -32 234 -40 376 l-7 122 94 0 c104 0 285 22 363
44 28 8 50 15 50 15 0 1 0 -72 0 -162z m5039 118 c61 -8 152 -15 204 -15 l94
0 -7 -122 c-8 -142 -32 -368 -40 -376 -6 -7 -262 13 -402 30 -105 13 -96 -3
-71 133 6 39 12 142 13 231 l0 161 50 -14 c28 -7 99 -20 159 -28z m-5864 0
c85 -8 190 -15 233 -15 l77 0 0 -77 c0 -77 26 -373 36 -404 4 -14 -13 -17
-131 -21 -74 -3 -195 -3 -269 0 l-133 5 -5 133 c-3 74 -3 195 0 269 4 118 7
135 21 131 9 -3 86 -12 171 -21z m6672 -110 c3 -74 3 -195 0 -269 l-5 -133
-133 -5 c-74 -3 -195 -3 -269 0 -118 4 -135 7 -131 21 10 31 36 327 36 404 l0
77 76 0 c77 0 395 28 403 36 14 14 19 -10 23 -131z m-5302 -268 c0 -59 35
-220 76 -346 19 -57 33 -105 31 -107 -13 -12 -283 -89 -449 -128 -26 -6 -28
-4 -48 61 -31 100 -87 321 -95 374 l-7 46 44 7 c115 18 288 69 388 114 25 11
48 21 53 21 4 1 7 -18 7 -42z m3797 22 c108 -48 277 -97 391 -115 l44 -7 -7
-46 c-8 -53 -64 -274 -95 -374 -20 -65 -22 -67 -48 -61 -166 39 -436 116 -449
128 -2 2 12 50 31 107 41 126 76 287 76 346 0 24 2 43 4 43 2 0 26 -9 53 -21z
m-6462 -84 c72 -9 207 -24 300 -33 l170 -17 -3 -80 c-1 -44 -7 -136 -12 -205
-5 -69 -12 -186 -16 -261 l-6 -136 -121 -7 c-136 -7 -667 -8 -667 -1 0 24 116
620 145 744 5 21 10 23 43 18 20 -3 96 -13 167 -22z m9280 3 c29 -126 145
-719 145 -743 0 -7 -531 -6 -667 1 l-121 7 -6 136 c-4 75 -11 192 -16 261 -5
69 -11 161 -12 205 l-3 80 215 22 c118 12 260 29 315 36 144 20 144 20 150 -5z
m-7117 -73 c6 -46 46 -208 77 -315 18 -63 34 -121 36 -129 4 -13 -164 -50
-409 -89 -127 -21 -113 -37 -149 161 -52 274 -61 341 -49 348 6 4 67 10 136
14 69 3 166 13 215 20 116 17 139 15 143 -10z m4877 10 c55 -7 156 -17 225
-21 69 -3 130 -9 136 -13 12 -7 3 -74 -49 -348 -36 -198 -22 -182 -149 -161
-245 39 -413 76 -409 89 2 8 16 59 32 114 37 126 79 299 79 323 0 37 -1 37
135 17z m-6195 -15 c113 -6 214 -13 226 -15 19 -4 21 -15 33 -232 7 -126 15
-260 18 -299 l5 -71 -93 -6 c-347 -23 -583 -36 -586 -34 -2 3 11 239 34 586
l6 93 76 -5 c42 -3 168 -11 281 -17z m7743 -72 c23 -343 36 -582 34 -585 -3
-2 -239 11 -586 34 l-93 6 5 71 c3 39 11 173 18 299 12 217 14 228 33 232 12
2 120 9 241 15 121 6 221 13 224 16 2 2 30 4 61 4 l57 0 6 -92z m-6934 -13 c6
-36 16 -95 22 -132 6 -38 22 -126 36 -196 14 -71 23 -130 21 -132 -8 -8 -508
-65 -570 -65 -10 0 -19 11 -22 28 -6 28 -36 471 -36 529 l0 33 269 0 269 0 11
-65z m6311 32 c0 -58 -30 -501 -36 -529 -3 -17 -12 -28 -22 -28 -62 0 -562 57
-570 65 -2 2 7 61 21 132 14 70 30 158 36 196 6 37 16 96 22 132 l11 65 269 0
269 0 0 -33z m-4679 -149 c18 -57 64 -162 100 -235 l67 -131 -132 -66 c-72
-36 -171 -83 -221 -105 -83 -36 -91 -38 -103 -23 -28 35 -209 431 -200 437 2
1 30 12 63 25 96 37 276 126 330 164 28 19 53 35 56 35 3 1 21 -45 40 -101z
m2601 61 c67 -43 223 -120 323 -159 33 -13 61 -24 63 -25 9 -6 -172 -402 -200
-437 -12 -15 -20 -13 -103 23 -49 22 -149 69 -221 105 l-132 66 67 131 c36 73
82 178 100 235 19 56 36 102 37 102 2 0 32 -18 66 -41z m-1973 -186 c40 -80
137 -225 200 -301 29 -35 51 -65 49 -66 -1 -1 -41 -32 -88 -68 -69 -53 -253
-180 -307 -212 -14 -8 -110 117 -223 290 -66 101 -70 110 -53 122 10 7 65 44
123 82 58 38 141 101 185 139 44 39 81 71 82 71 2 0 16 -26 32 -57z m1439 -81
c37 -29 104 -76 150 -105 46 -28 85 -54 87 -57 6 -9 -116 -196 -206 -317 -45
-61 -74 -91 -82 -87 -54 32 -238 159 -307 212 -47 36 -87 67 -88 68 -2 1 20
31 49 66 63 76 160 221 200 301 l30 58 50 -43 c27 -24 80 -67 117 -96z m-2533
-14 c21 -51 67 -153 103 -226 36 -72 63 -134 60 -137 -7 -7 -250 -99 -386
-145 l-113 -39 -8 22 c-5 12 -31 81 -59 152 -56 148 -116 325 -111 330 2 2 68
19 146 39 79 20 182 49 230 65 49 16 91 29 94 30 3 1 23 -41 44 -91z m1756 45
c18 -27 95 -110 171 -186 l139 -137 -176 -178 -175 -177 -175 177 -176 178
139 137 c76 76 153 159 171 186 18 26 36 47 41 47 5 0 23 -21 41 -47z m1819
13 c45 -15 146 -43 224 -62 77 -20 143 -37 145 -39 5 -5 -55 -182 -111 -330
-28 -71 -54 -140 -59 -152 l-8 -22 -113 39 c-136 46 -379 138 -386 145 -3 3
24 65 60 137 36 73 82 175 103 226 23 55 43 91 50 88 6 -2 49 -16 95 -30z
m-4062 -236 c23 -69 62 -177 87 -241 25 -63 45 -120 45 -126 0 -6 -10 -13 -22
-16 -13 -3 -52 -14 -88 -25 -180 -56 -453 -132 -458 -128 -6 7 -74 271 -107
421 -14 61 -27 120 -30 132 -6 24 -3 25 200 58 55 8 141 24 190 34 143 30 133
36 183 -109z m4603 106 c68 -13 158 -30 199 -36 173 -27 180 -29 175 -53 -3
-12 -16 -71 -30 -132 -33 -150 -101 -414 -107 -421 -5 -4 -278 72 -458 128
-36 11 -75 22 -87 25 -30 7 -29 14 11 114 19 46 55 145 80 219 60 172 63 180
79 180 7 0 69 -11 138 -24z m-5172 -168 c30 -138 111 -460 117 -469 7 -12 -3
-16 -232 -73 -415 -103 -434 -107 -434 -82 0 8 -7 66 -15 128 -8 62 -21 181
-30 263 -9 83 -18 176 -22 207 -7 67 -22 61 177 79 74 7 191 20 260 30 69 9
132 17 140 18 12 1 21 -25 39 -101z m5751 78 c63 -8 171 -20 240 -26 188 -18
174 -11 167 -78 -4 -31 -13 -124 -22 -207 -9 -82 -22 -201 -30 -263 -8 -62
-15 -120 -15 -128 0 -25 -19 -21 -434 82 -229 57 -239 61 -232 73 6 9 87 331
118 469 l23 103 35 -6 c19 -3 87 -12 150 -19z m-4003 -73 c39 -63 183 -268
225 -320 6 -8 -24 -31 -102 -78 -116 -70 -354 -205 -356 -202 -1 1 -33 54 -71
117 -120 199 -196 341 -187 349 5 5 54 28 109 52 55 24 150 69 210 100 61 32
113 58 117 58 4 1 28 -34 55 -76z m2214 19 c63 -32 159 -77 214 -101 55 -24
104 -47 109 -52 9 -8 -67 -150 -187 -349 -38 -63 -70 -116 -71 -117 -2 -3
-240 132 -356 202 -78 47 -108 70 -102 78 42 52 186 257 225 320 27 42 50 77
52 77 1 0 54 -26 116 -58z m-4575 -207 c12 -115 29 -266 38 -334 9 -68 15
-126 12 -128 -9 -9 -480 -104 -730 -148 l-39 -6 5 390 c3 215 7 393 9 395 2 2
103 10 224 17 121 6 258 15 305 19 47 4 101 7 120 6 l35 -1 21 -210z m7069
195 c72 -5 191 -12 266 -16 l136 -6 7 -121 c3 -66 6 -243 6 -394 l0 -274 -37
7 c-246 42 -720 138 -729 147 -3 2 4 74 15 158 11 85 27 231 36 324 9 94 18
176 21 183 3 11 21 12 77 8 39 -3 131 -10 202 -16z m-3734 -374 l40 -34 -108
-94 c-114 -100 -297 -248 -305 -248 -7 0 -162 179 -252 290 -38 47 -75 92 -83
101 -11 14 3 26 115 102 70 47 161 113 202 145 l75 59 138 -144 c77 -79 157
-158 178 -177z m722 95 c86 -57 96 -66 84 -80 -8 -9 -45 -54 -83 -101 -90
-111 -245 -290 -252 -290 -8 0 -191 148 -303 246 l-105 92 175 179 176 178
105 -80 c59 -44 150 -109 203 -144z m-2164 46 c25 -45 84 -149 133 -230 48
-82 88 -150 88 -152 0 -3 -526 -265 -533 -265 -5 0 -143 308 -207 463 -18 43
-29 82 -24 86 5 5 70 29 144 54 74 26 180 64 235 86 55 22 105 40 110 40 6 1
30 -36 54 -82z m3158 37 c65 -25 172 -64 238 -86 66 -23 124 -44 129 -49 5 -4
-6 -42 -24 -86 -64 -155 -202 -463 -207 -463 -7 0 -533 262 -533 265 0 2 40
70 88 152 49 81 108 185 133 230 24 46 47 83 51 83 4 0 60 -21 125 -46z
m-3678 -252 c24 -59 77 -181 118 -271 40 -90 72 -165 70 -167 -13 -13 -618
-277 -622 -272 -10 16 -185 621 -185 640 0 10 55 30 173 63 94 27 217 63 272
81 55 18 107 33 115 33 10 0 30 -36 59 -107z m4244 59 c89 -27 215 -64 280
-82 78 -22 117 -37 117 -47 0 -19 -175 -624 -185 -640 -4 -5 -609 259 -622
272 -2 2 30 77 70 167 41 90 94 212 118 271 24 59 48 108 52 108 4 0 81 -22
170 -49z m-2910 -88 c58 -71 134 -162 171 -203 36 -41 66 -78 66 -81 0 -8
-153 -125 -325 -249 -71 -51 -135 -97 -142 -102 -8 -6 -62 67 -176 239 -91
136 -163 251 -159 255 4 4 63 38 132 76 69 38 170 97 225 130 55 34 101 62
102 62 1 0 49 -57 106 -127z m1622 29 c66 -38 160 -92 209 -119 48 -27 89 -52
89 -57 0 -4 -73 -118 -162 -253 -113 -170 -166 -241 -174 -235 -7 5 -70 51
-142 102 -172 124 -325 241 -325 249 0 3 30 40 66 81 37 41 113 133 171 203
100 122 106 127 127 114 11 -7 75 -46 141 -85z m-841 -60 c55 -48 147 -125
203 -171 83 -67 101 -86 94 -99 -5 -10 -97 -107 -205 -217 l-196 -200 -196
200 c-108 110 -200 207 -205 217 -7 13 14 35 114 116 67 55 158 132 202 170
44 39 82 71 84 72 2 0 49 -40 105 -88z m-2735 -69 c11 -38 34 -117 51 -178 17
-60 51 -174 76 -253 24 -79 44 -147 44 -152 0 -17 -720 -294 -731 -282 -7 8
-67 368 -101 605 -18 125 -20 160 -10 166 7 4 61 18 120 31 59 14 197 48 307
76 110 28 205 52 212 53 7 0 21 -29 32 -66z m5546 3 c121 -30 258 -64 303 -75
46 -10 87 -22 90 -26 10 -10 -102 -751 -117 -767 -11 -12 -731 265 -731 282 0
5 20 73 44 152 25 79 59 193 76 253 74 261 69 248 93 241 12 -4 121 -31 242
-60z m-4165 -64 c0 -5 69 -113 154 -240 85 -127 157 -236 160 -241 8 -12 -534
-381 -559 -381 -3 0 -73 136 -155 302 l-150 302 262 132 c258 130 288 143 288
126z m2783 -125 l267 -133 -150 -302 c-82 -166 -152 -302 -155 -302 -25 0
-567 369 -559 381 3 5 75 114 160 241 85 127 154 235 154 240 0 4 4 8 8 8 4 0
128 -60 275 -133z m-1670 -313 l128 -131 -191 -186 c-105 -102 -217 -209 -249
-236 l-57 -50 -121 162 c-66 89 -157 212 -201 274 l-82 112 133 95 c72 53 182
133 242 179 l110 84 80 -86 c43 -47 137 -145 208 -217z m959 7 l88 -62 -82
-112 c-44 -62 -135 -185 -201 -274 l-121 -162 -57 50 c-32 27 -144 133 -248
236 l-191 185 147 152 c82 83 175 182 207 218 l59 66 156 -117 c86 -65 195
-145 243 -180z m-2482 -140 c83 -167 149 -305 148 -306 -24 -23 -669 -408
-673 -403 -11 16 -257 740 -252 744 1 1 81 36 177 77 96 41 234 102 305 135
72 33 133 59 137 58 4 0 75 -138 158 -305z m3610 248 c74 -34 214 -95 310
-136 96 -41 176 -76 177 -77 5 -4 -241 -728 -252 -744 -4 -5 -649 380 -673
403 -2 2 299 615 303 615 0 0 61 -27 135 -61z m-2805 -266 c33 -48 122 -170
198 -270 75 -101 137 -187 137 -192 0 -10 -231 -217 -492 -439 l-96 -82 -85
147 c-142 248 -300 547 -291 550 5 2 133 86 284 188 151 101 277 184 280 184
3 0 32 -39 65 -86z m2045 -92 c148 -99 276 -184 285 -189 15 -8 3 -35 -90
-208 -59 -109 -146 -265 -192 -347 l-85 -147 -96 82 c-261 222 -492 429 -492
439 0 5 62 91 138 192 75 100 164 222 197 270 33 47 61 86 63 87 1 0 124 -81
272 -179z m-1095 8 c50 -49 159 -154 243 -232 83 -77 152 -145 152 -150 0 -8
-35 -54 -234 -302 -158 -198 -246 -300 -256 -300 -10 0 -98 102 -256 300 -199
248 -234 294 -234 302 0 5 69 73 153 150 83 78 192 183 242 232 49 50 92 91
95 91 3 0 46 -41 95 -91z"/>
</g>
</svg>
